<?xml version="1.0" encoding="UTF-8"?>
<!-- Created with Inkscape (http://www.inkscape.org/) -->
<svg width="1200" height="800" version="1.1" viewBox="0 0 317.5 211.67" xmlns="http://www.w3.org/2000/svg" xmlns:xlink="http://www.w3.org/1999/xlink">
 <defs>
  <linearGradient id="linearGradient65234" x1="5267" x2="5267" y1="862.29" y2="479.66" gradientUnits="userSpaceOnUse">
   <stop stop-color="#1d1d47" offset="0"/>
   <stop stop-color="#1d1d47" stop-opacity="0" offset="1"/>
  </linearGradient>
 </defs>
 <g stroke-opacity="0">
  <path transform="matrix(.11797 0 0 .33751 155 8.6931)" d="m200 425c8.6602 0 47.631 67.5 43.301 75-4.3301 7.5-82.272 7.5-86.603 0-4.3301-7.5 34.641-75 43.301-75zm-280.34-19.598c8.6602 0 47.631 67.5 43.301 75-4.3301 7.5-82.272 7.5-86.603 0-4.3301-7.5 34.641-75 43.301-75zm-392.48-39.196c8.6602 0 47.631 67.5 43.301 75-4.3301 7.5-82.272 7.5-86.603 0-4.3301-7.5 34.641-75 43.301-75zm-112.14 19.598c8.6602 0 47.631 67.5 43.301 75-4.3301 7.5-82.272 7.5-86.603 0-4.3301-7.5 34.641-75 43.301-75zm-56.068 19.598c8.6602 0 47.631 67.5 43.301 75-4.3301 7.5-82.272 7.5-86.603 0-4.3301-7.5 34.641-75 43.301-75zm-56.068-39.196c8.6602 0 47.631 67.5 43.301 75-4.3301 7.5-82.272 7.5-86.603 0-4.3301-7.5 34.641-75 43.301-75zm-280.34 0c8.6602 0 47.631 67.5 43.301 75-4.3301 7.5-82.272 7.5-86.603 0s34.641-75 43.301-75zm-280.34-39.196c8.6603 0 47.631 67.5 43.301 75s-82.272 7.5-86.603 0c-4.3301-7.5 34.641-75 43.301-75zm112.14 39.196c8.6602 0 47.631 51.092 43.301 56.769-4.3301 5.6769-82.272 5.6769-86.602 0s34.641-56.769 43.301-56.769zm-168.2 39.196 560.68 19.598 616.75 39.196 448.55 39.196 672.82 19.598h392.48v78.392h-2691.3v-195.98" fill="#665d87"/>
  <path transform="matrix(.037204 0 0 .12101 -23.975 100.71)" d="m1e3 425c34.641 1e-5 190.53 270 173.21 300s-329.09 30-346.41-1e-5c-17.321-30 138.56-300 173.21-300zm888.95 54.661c34.641 1e-5 190.53 270 173.21 300s-329.09 30-346.41-1e-5c-17.32-30 138.56-300 173.21-300zm888.95-109.32c34.641 1e-5 190.53 270 173.21 300s-329.09 30-346.41-1e-5c-17.32-30 138.56-300 173.21-300zm177.79 54.661c34.641 0 190.53 178.47 173.21 198.31-17.32 19.83-329.09 19.83-346.41-1e-5 -17.321-19.831 138.56-198.31 173.21-198.31zm0 0c34.641 0 190.53 178.47 173.21 198.31-17.32 19.83-329.09 19.83-346.41-1e-5 -17.321-19.831 138.56-198.31 173.21-198.31zm2666.8-109.32c34.641 0 190.53 178.47 173.21 198.31-17.321 19.831-329.09 19.831-346.41-1e-5 -17.32-19.831 138.56-198.31 173.21-198.31zm355.58 54.661c34.641 1e-5 190.53 132.71 173.21 147.46s-329.09 14.746-346.41 0c-17.32-14.746 138.56-147.46 173.21-147.46zm1066.7-109.32c34.641 1e-5 190.53 270 173.21 300s-329.09 30-346.41-1e-5c-17.32-30 138.56-300 173.21-300zm355.58 54.661c34.641 1e-5 190.53 270 173.21 300s-329.09 30-346.41-1e-5c-17.32-30 138.56-300 173.21-300zm177.79-54.661c34.641 1e-5 190.53 270 173.21 300s-329.09 30-346.41-1e-5c-17.32-30 138.56-300 173.21-300zm711.16-109.32c34.641 1e-5 190.53 270 173.21 300s-329.09 30-346.41-1e-5c-17.32-30 138.56-300 173.21-300zm177.79 54.661c34.641 1e-5 190.53 270 173.21 300s-329.09 30-346.41-1e-5c-17.321-30 138.56-300 173.21-300zm355.58-163.98c69.926 0 384.59 361.53 349.63 401.69-34.963 40.169-664.3 40.169-699.26-1e-5s279.71-401.69 349.63-401.69zm-8178.3 655.93 2133.5-54.661 1066.7-54.661 1955.7-109.32h1600.1l1777.9-54.661v491.95h-8533.9v-163.98" fill="#4d446e"/>
  <path transform="matrix(.037204 0 0 .12101 -23.975 100.71)" d="m1e3 425c34.641 1e-5 190.53 270 173.21 300s-329.09 30-346.41-1e-5c-17.321-30 138.56-300 173.21-300zm888.95 54.661c34.641 1e-5 190.53 270 173.21 300s-329.09 30-346.41-1e-5c-17.32-30 138.56-300 173.21-300zm888.95-109.32c34.641 1e-5 190.53 270 173.21 300s-329.09 30-346.41-1e-5c-17.32-30 138.56-300 173.21-300zm177.79 54.661c34.641 0 190.53 178.47 173.21 198.31-17.32 19.83-329.09 19.83-346.41-1e-5 -17.321-19.831 138.56-198.31 173.21-198.31zm0 0c34.641 0 190.53 178.47 173.21 198.31-17.32 19.83-329.09 19.83-346.41-1e-5 -17.321-19.831 138.56-198.31 173.21-198.31zm2666.8-109.32c34.641 0 190.53 178.47 173.21 198.31-17.321 19.831-329.09 19.831-346.41-1e-5 -17.32-19.831 138.56-198.31 173.21-198.31zm355.58 54.661c34.641 1e-5 190.53 132.71 173.21 147.46s-329.09 14.746-346.41 0c-17.32-14.746 138.56-147.46 173.21-147.46zm1066.7-109.32c34.641 1e-5 190.53 270 173.21 300s-329.09 30-346.41-1e-5c-17.32-30 138.56-300 173.21-300zm355.58 54.661c34.641 1e-5 190.53 270 173.21 300s-329.09 30-346.41-1e-5c-17.32-30 138.56-300 173.21-300zm177.79-54.661c34.641 1e-5 190.53 270 173.21 300s-329.09 30-346.41-1e-5c-17.32-30 138.56-300 173.21-300zm711.16-109.32c34.641 1e-5 190.53 270 173.21 300s-329.09 30-346.41-1e-5c-17.32-30 138.56-300 173.21-300zm177.79 54.661c34.641 1e-5 190.53 270 173.21 300s-329.09 30-346.41-1e-5c-17.321-30 138.56-300 173.21-300zm355.58-163.98c69.926 0 384.59 361.53 349.63 401.69-34.963 40.169-664.3 40.169-699.26-1e-5s279.71-401.69 349.63-401.69zm-8178.3 655.93 2133.5-54.661 1066.7-54.661 1955.7-109.32h1600.1l1777.9-54.661v491.95h-8533.9v-163.98" fill="url(#linearGradient65234)"/>
 </g>
</svg>
