<?xml version="1.0" encoding="UTF-8"?>
<!-- Created with Inkscape (http://www.inkscape.org/) -->
<svg width="1200" height="800" version="1.1" viewBox="0 0 317.5 211.67" xmlns="http://www.w3.org/2000/svg">
 <defs>
  <filter id="filter10682" x="0" y="0" width="1" height="1" color-interpolation-filters="sRGB">
   <feComponentTransfer result="component">
    <feFuncR amplitude="1.2" type="gamma"/>
    <feFuncG amplitude="1.2" type="gamma"/>
    <feFuncB amplitude="1.2" type="gamma"/>
   </feComponentTransfer>
  </filter>
 </defs>
 <g>
  <g transform="matrix(.76115 0 0 .76115 3.7003 31.478)">
   <g transform="matrix(.72206 -.12732 .12732 .72206 70.721 35.192)" filter="url(#filter10682)" stroke-width=".21167">
    <path d="m208.1 82.338c-2.2584-2.1863-4.0784-3.7792-6.7555-1.2383-4.755-1.2968-3.2375-5.1176-1.8951-7.2278-0.87704-4.4448-6.6653-4.7888-8.174-8.9869-2.1462-1.8788-3.5502-6.3992-6.9972-5.5852-3.8276 0.40407-7.7093 0.18884-11.517 0.51498-3.123 0.8967-9.2115 1.4454-11.17-1.1947 5.2441-1.9371 11.216-1.9085 16.723-3.1885 11.846-2.3541 23.959-3.3321 35.651-6.3842 3.5062-1.7889 8.1218-1.0513 12.109-2.8952 9.0718-2.5134 18.253-4.7869 27.371-7.1694 0.65894 1.9048 2.1989 0.27076 1.1089-0.29478 7.3852-2.0635 14.9-3.7114 22.267-5.8224 3.7791 0.01498 9.4143 1.3305 11.771 3.2322-6.4493 1.323-12.458 4.2907-18.763 6.191-4.2528 0.88517 3.2971 1.8704 0.11537 4.8234-0.54363 4.2323-3.3176 10.044-2.3888 13.39 5.7096-0.43981 11.579-2.5131 17.245-0.72967-2.7594 2.0157-8.7015 2.0969-12.662 3.3519-5.2794-0.44803-7.5834 4.264-12.773 4.071-4.0491 1.6368-7.8601 0.65105-12.147 1.7121-2.4224 0.65859-5.7873 0.33641-7.7982 1.3639-0.20651 0.89134-8.0007-0.34291-6.4741 1.3486 4.4785-1.9897 10.532 3.1404 3.969 5.4369-2.6215 4.5342-6.8783-1.5562-6.9302-3.6517-4.8763 1.7248-10.201 2.1118-15.306 2.8018-2.5991-1.7049-4.7206 3.2449-5.1514 0.0716-3.7428-1.5233-3.0664 4.0993 0.33879 2.7054 1.7376-1.9167 5.7657-1.0332 2.7566 1.0418-1.7167 0.50251-2.2858 3.1868-4.5234 2.3122zm-3.7183-8.9792c-0.5197-4.048-0.6353 0.75167-1.2639 1.2421 1.2991 0.89978 1.1836-0.34293 1.2639-1.2421zm-2.7124-0.59665c-0.26597-3.6743-1.5733 1.8895-0.0547 0.63317zm1.6999 0.80227c-0.1457-3.0962-1.9146 1.2511 0 0zm44.996-15.351c5.417-1.035 10.899-3.3883 12.707-9.0624 2.0608-2.8464 2.3656-5.1-1.569-2.9128-8.2691 2.6085-16.824 4.316-25.159 6.5865 3.8869 2.002 7.5988 5.1193 11.929 5.7758 0.71879 0.1262 1.421-0.20194 2.0928-0.38698zm-15.366-0.06836c-2.7843-2.9418-3.836 0.75226 0 0zm4.0786-1.3318c-1.2205-0.16247-0.51747 0.30213 0 0z" fill="#8db0ce"/>
    <path d="m208.14 82.023c-2.2965-2.2149-3.9022-4.1318-6.5475-1.1527-5.6736-1.0523-2.8432-7.3776 0.81487-6.7328 2.7916 1.7883-6.3096 1.5-1.6759 3.482 0.3393 0.75196 2.879 1.6283 3.4812-0.84367 0.56794 1.607 2.8564 1.1773 1.8062 2.7302 2.7502 0.68827 8.8405-1.0304 3.8384 2.519l-0.81424 0.15417zm24.933-3.8938c-4.1527-2.0603 0.49113-6.5034-3.8666-8.0065-2.4042-0.17071-5.7159-2.6868-7.0121-0.29363-2.8269-1.7027-9.2068-0.49172-12.581 1.9853-3.145 1.1149 5.3407 2.2688 6.7857 1.7239 3.2614 0.61325 5.5726-0.49149 7.86-2.3332-1.9838 2.7735 5.7357 2.6409-0.40982 3.2906-4.6443 0.7811-9.2584 1.933-13.992 1.2123-2.548-0.81574-4.6628 2.6254-5.5942-0.33765 6.044-1.6026-1.6547-4.8398-2.1962-3.2823-1.2943-2.794-6.8383-1.5613-7.9355-4.8739-3.6723-4.2252 4.301 0.69736 1.1833-3.538-2.5537-0.42453-9.2345-2.2932-8.4788-6.0264-6.5268-0.02519-13.093 0.83563-19.539 1.6773 1.4412 0.4688 7.6837 0.44306 2.6569 0.90862-1.8403-0.38925-8.2944 0.46893-7.6426-1.666 4.3606-0.12108 9.5965-2.2516 13.206-1.6794 6.9223-1.7101 14.066-2.8917 21.178-3.7297 1.816 1.1734 8.8636 1.635 9.768-0.97165 3.7904-1.7638 7.9644-2.8934 11.84-3.28 11.583-2.9856 23.231-6.01 34.776-9.1263 2.5266 1.1901 2.6189-2.2879 5.9744-1.488 5.1928-1.4524 10.537-2.4202 15.664-4.0637 2.604-2.772 2.2328 1.5423 4.152-0.98534 2.4325 0.28864 9.0849 1.8266 8.7382 2.7562-6.7395 1.7096-13.183 4.5669-19.83 6.6604 1.2994 1.3378 3.8746 2.424 1.7293 5.3538-1.2856 3.8476-1.3193 8.9205-3.2567 12.072-2.3214-1.0958-5.0482-7.4442-5.9908-6.73 1.3859 1.8364 5.2034 7.2849 1.0008 4.8697-0.3101-2.8319-4.4117-4.6094-0.74065-7.6814 1.3433-2.4337 5.147-7.8967-0.31315-4.8445-8.4406 2.8005-17.166 4.6677-25.838 6.5936-1.9902 2.0754 1.5503 8.4708-3.896 6.4506-3.4371-1.114-3.0394 1.8909 0.30513 1.3735 3.0168 0.29269 7.9816 0.71795 4.1257 4.3683-2.5514 4.0393-7.4981-0.76636-11.1-1.0927-4.2106 0.88259-1.3167 5.2113 2.4473 4.2808 3.4291 4.2946 9.0906 0.36498 13.718 0.47331 7.9164-1.2888-9.0114 1.0545-4.2298-3.2141 2.3123-6.8221 9.8998-3.1657 15.072-3.2299 11.315 2.0453 22.401-3.9707 33.68-1.8273-3.5795 1.5235-8.8921 2.1182-13.166 3.1267-3.6306-0.15856-5.5549 1.0469-7.8359 3.2093-4.9597 1.1394-9.6949 1.872-14.734 2.1463-5.7797 0.96457-11.644 1.4808-17.322 2.7076-0.15359 1.6899 4.4982 0.18101 0.81886 2.122 0.0137 0.59579 10.901-1.4316 6.033 2.6424-1.9373 0.56795-2.5836 3.9704-5.2089 2.297zm-16.028-11.152c0.0413-2.8009 3.7758-1.3788 3.909-4.1162-6.0003-2.5816-12.644-2.3243-18.938-3.4631-2.1989-2.149 5.2424-0.0075 6.8225-0.39296 4.8309-0.4479 10.083 3.3806 14.227 2.4365 0.58179-3.023-6.8428-1.254-9.3288-2.4853-3.0347-0.5431-8.2689-0.41693-9.9694-1.3625 7.1199 0.54622 14.265 1.0094 21.366 1.7988 0.23072-3.0601-8.5718-0.34879-6.1857-6.218-0.98754-3.0879-0.92513 4.2624-2.2518 3.4971-2.3356 1.6125-9.2793-0.22248-13.322-0.04266-2.8564 0.19964-9.9619-1.9239-5.9244 2.8226 1.4006 2.2299 3.8836 2.3686 1.763 4.2743 2.089 1.3274 6.2271 4.0476 8.0307 2.7827-4.5905-0.45878 3.6983-2.3971 0.43392 0.5338 3.5112-0.55921 6.9401-0.46538 9.3678-0.06503zm-5.0906-3.2369c-0.0457-1.5205 1.3314 1.1796 0 0zm-11.227-6.1592c-2.8487-0.72226 3.8144 0.15625 0 0zm-3.3386 8.1073c-1.2391-1.2176-0.36573 0.72702 0.42975 0.69914l-0.0707-0.26094zm35.384-1.2748c5.891-4.8507-10.572-5.2387-7.6353-1.3479 2.3192 0.43735 5.439 2.8056 7.6353 1.3479zm-37.561-4.597c-2.5312-1.1286 0.27234 1.2111 0 0zm-2.103-0.96112c-0.78898-2.7605-9.2822 0.39261-2.8143 0.15584 0.93364 0.0081 1.9108 0.15157 2.8143-0.15584zm40.039-0.54136c-1.0679-3.9266-6.1066 0.89238 0 0zm-43.472-1.8603c2.1412-3.6302-5.6077 2.4565 0 0zm38.974-0.72553c-1.3487-2.0208-0.65483 2.9455 0 0zm-15.116-0.78135c-2.2903-1.5944-1.1674 0.02807 0 0zm-17.935-1.0968c-1.2204-0.16236-0.51754 0.30233 0 0zm12.797 0.01096c-0.77927-0.24006-0.38883 0.36864 0 0zm28.448-5.7459c0.68652-0.97404-1.181 1.1132 0 0zm29.26-0.79375c0.0267-1.0338-0.60959 1.0457 0 0zm-0.28822-1.1642c-0.5408-0.75935-0.54079 0.75935 0 0zm-65.974 27.993c-1.6435-2.1505-0.40138-4.8946 0.65666-1.0932 0.19798-0.0014-0.25965 2.2878-0.65666 1.0932zm26.084-2.3666c-0.0457-1.5206 1.3314 1.1797 0 0zm10.52-12.459c-4.3984-0.52835-1.0584-8.2174 1.6206-2.9012 0.99538 1.5375 0.6185 3.4681-1.6206 2.9012zm0.68864-2.16c1.0907-1.559-3.7291 0.29462-3e-5 0zm3.5459 1.2167c-3.3652-3.8048 4.5491 0.32203 0.4469 0.23132zm14.129 0.04417c-1.6944 0.13727-7.2114-0.541-2.3902-0.76816 2.0778-0.12773 10.601 1.1393 4.4183 0.87636l-0.94728-0.04654zm-52.775-5.7946c1.1338-1.995 2.169 1.3161 0 0z" fill="#6d8fad"/>
    <path d="m208.14 82.023c-2.9597-0.77507-3.3888-5.4554-1.7871-2.3578 2.8681 0.25368 8.3083-0.97474 3.5044 2.3599l-0.81424 0.15417-0.90306-0.15627zm-8.3926-2.1581c-1.6965-1.0377-2.3583-4.2832 0.081-1.297 3.1145-0.35033 6.1273 0.63312 1.7641 2.3024-0.79023 0.06589-1.3261-0.541-1.8451-1.0054zm33.326-1.7357c-2.0128-1.3273-3.0554-5.0924 0.0757-2.0118 4.0573-1.4345 4.6026 2.6 0.57464 2.3025zm-27.467-2.5986c-1.3788-0.78153 3.533-1.6914-0.15453-3.4697-2.0373-1.4276-3.0972 0.61607-4.7448-1.7384-3.0944 1.2028-9.3363-4.0491-6.2288-5.3787 1.789 2.0217 6.628 2.3284 2.4795-0.05996-0.12979-2.3932 2.6767 1.4687 3.4036 1.7175 4.1986 0.65124 9.5841 3.2063 13.259 0.3906 3.7868 2.5719 6.8403-3.4138 9.8901-5.5175 5.056-5.1068 10.639-9.7792 15.211-15.318-3.6352 2.2173-7.0237 8.0847-10.348 8.7521-1.0256-0.15874-1.6425 5.1147-4.8763 2.7022-5.4334 1.1791-3.7823-3.8344-5.098-6.5859-0.46679 2.8097-0.38904 7.287-4.2211 3.9934-5.5026-2.4132 2.1207 1.3799 2.0207 2.0947-6.8173 0.05912-13.627-1.045-20.446-0.70614 2.9685 4.4045-1.4892 3.3967-2.2587 0.63151 0.5712 2.7444 1.2902 8.4907-3.1626 5.1766-2.0485-0.99323-5.9045-4.5757-1.1354-3.215 2.4704 0.94827 6.5647-1.3405 1.5956-1.2171-2.5985 0.75564-4.5982 0.50707-1.2554-1.0773 4.5626-1.6191-2.7942-2.0096-2.206 0.70932-6.6774 0.43292-13.428 0.90632-20.035 1.9115 1.4412 0.4688 7.6837 0.44306 2.6569 0.90862-1.9156-0.38392-8.0442 0.43585-7.6294-1.5253 4.5186 0.17049 9.3125-2.2518 13.377-1.7267 6.6654-1.5854 13.578-2.2877 20.288-3.3329 1.8296 1.2403 8.447-0.01673 12.283 0.32463 5.6328-0.39183-1.8039 0.03569-0.88863-1.0927 2.8775-2.2106 7.0993-3.9299 9.985-3.3858 11.944-3.1073 23.944-6.2635 35.901-9.4218 4.1439-0.20352 8.6187-2.6691 13.037-3.3181 3.8189-0.30009 8.5188-2.9605 10.889-3.0815 1.1598-0.22672 7.4178 0.28311 10.575 1.9804-6.824 2.3467-13.722 4.6273-20.426 7.2924 5.7992 2.2011-0.38875 9.6014-0.1111 14.359-0.98032 6.389-5.7453-3.9487-7.2028-5.5876 1.1341-2.6757 6.4425-9.3315 0.11035-6.0143-8.4593 2.8385-17.235 4.6207-25.926 6.5905-2.3863 1.1151 1.2327 9.0521-2.2743 4.5841-2.475-0.86756-1.3112 2.3414-3.9433 1.6277-4.2794 2.9406-6.8366 8.7678-11.509 10.407-2.3937 0.18184-8.531 1.8938-8.4151 3.3583 4.3242 2.1793 9.8104 1.8331 14.342 1.2059 0.51572-0.50466 4.3394 1.3541 0.94269 1.0188-5.3705 1.5191-10.825 1.3854-16.328 1.3247l-0.54546-0.0093-0.87813-0.28175zm1.6066-6.7323c-2.3438-1.4256 1.2213 1.381 0 0zm-12.211-14.409c-1.1465-0.28976-2.4656 1.0927 0 0zm71.025-2.3892c4.3647-0.59486-1.949-0.86226 0 0zm0.35417-4.4869c-0.31964-4.9055-2.0627 1.0344 0 0zm-28.162 27.756c1.9245-2.3767 1.0208 1.4292 0 0zm-36.01-0.74889c0.64986-0.70511-9e-3 0.71175 0 0zm-2.3685-0.37042c-1.6435-2.1505-0.40138-4.8946 0.65666-1.0932 0.19798-0.0014-0.25965 2.2878-0.65666 1.0932zm29.96-3.5836c3.9442-1.9559 9.6523-1.5141 14.303-2.2399 3.3439-0.79417-5.8408-0.86815-7.5686-1.2741-3.4255-0.17313 1.9546-7.6432 5.0258-6.0356 7.8551 0.44772 15.781 2.2209 23.581 0.27797 6.3795-0.67246 12.923-2.9137 19.266-1.2175-5.9529 1.3302-11.95 3.1798-18.083 3.4365-1.4533 3.5883-6.2878 3.1716-9.71 3.9786-4.9246 0.83833-10.258 0.83977-15.314 1.9407-3.7221 0.58345-7.8277 1.4469-11.5 1.1334zm-3.4908-1.0202c0.15535-2.4695 2.7584 1.3239 0-3e-6zm5.4268-3.7904c-1.9652-0.4002-4.982-1.7884-1.1239-0.66837 1.4169-0.47541 4.4429 1.4691 1.1239 0.66837zm-11.748-3.6589c-1.8435-1.1449-9.154-1.3219-8.2426-2.3931 1.8991 0.26138 9.0366 1.8229 8.2426 2.3931zm-11.585-2.2139c-2.6713-2.6801 5.8533 1.7613 0 0zm11.852-0.54058c2.2781-0.28048-0.22604 0.35439 0 0zm-1.6933-0.21167c2.2781-0.28048-0.22607 0.35439 0 0zm16.611-0.3189c-2.4605-3.7218 1.9357-5.8037 3.0446-1.4238 1.1797 2.5154-1.7046 1.4681-3.0446 1.4238zm2.4775-1.7391c-0.84313-2.2157-3.987 0.95865-0.37673 0.19927zm3.4474 1.4169c-3.5786-3.5461 3.5044 0.03163 0 0zm12.334-0.27663c-7.614-1.0062 10.43 0.28545 2.0108 0.1165l-0.94918-0.05174zm6.145-3.4562c-2.4839-5.1704 4.0237 2.3771 0 0zm-57.273-2.1312c1.4907-0.74404 0.18171 1.0438 0 0z" fill="#5d728c"/>
    <path d="m206.9 81.098c-2.2423-2.8838 8.7567-1.4447 2.5456 0.9314-0.94384 0.34031-1.9942-0.13814-2.5456-0.9314zm-6.219-0.50038c-5.6392-3.65 7.3829-1.3225 0.6802 0.17371zm32.573-2.3993c-5.8423-4.1321 8.3097-1.4107 1.0741 0.16941zm-27.398-2.8203c1.8992-4.0212 8.4223-0.43408 12.679-1.1147 6.0226 0.51086-8.1816 0.72491-1.5543 1.2228-3.6906 0.44491-7.4431 0.40844-11.124-0.10811zm-5.9498-1.2315c-2.5577-3.3989 1.3412-3.4926 0.42839 0.07153l-0.17687 0.07794zm5.4456-2.4704c-2.4346-1.6182-9.4561-0.77529-9.4653-3.6945 4.0525-1.2991 8.0702 1.7203 11.801 1.0304 1.0799-1.661 5.9806 1.6463 1.1884 1.4609-1.2528 0.12329-2.2025 1.6805-3.5238 1.2032zm25.692-1.111c2.0572-1.4307 12.275-1.3417 5.3576-0.51414-1.7834 0.19758-3.5814 0.2498-5.3576 0.51414zm-4.3921-1.3358c0.61939-0.89083 0.69992 0.96692 0 0zm14.142-0.14459c1.2851-0.30618-0.3019 0.45252 0 0zm-23.455-1.4429c2.0007-2.0992 3.7926-2.7688 1.1393 0.04228-0.60527 0.85621-3.0686 1.0258-1.1393-0.04228zm29.501 0.33609c-3.1159-1.3994-10.427 0.58206-10.804-2.3413 4.8082-1.7355 10.342 1.2721 14.904-0.77075-3.5861-1.7471-11.788 1.0879-12.962-2.5688 4.6533-3.2199 10.619 0.28378 15.842-0.142 9.9791 1.3239 19.654-3.8935 29.632-2.088-4.7882 1.3389-10.021 2.532-15.091 3.1252-1.2431-0.74315 9.0346-1.8201 8.2483-2.6177-5.0672 0.67111-10.481 0.7714-13.405 5.504-5.0217 1.659-10.492 1.7049-15.747 1.969zm9.9573-3.1104c-1.5092-1.9698-5.3505 0.97436-0.81966 0.11257 0.27322-0.03753 0.54645-0.07505 0.81966-0.11257zm1.6048-0.17653c-0.40419-0.83924-0.95874 0.69158 0 0zm5.5523-0.18812c3.0933-1.579-3.8115 0.73214 0 0zm-1.7599-0.0061c-1.5249-0.71329-2.1382 0.50266 0 0zm-48.242 3.0392c-0.32828-0.98504 1.5897 0.96149 0 0zm-19.99-0.47043c-2.875-4.383 5.1817 1.5294 0.083 0.08562zm3.9038-1.7521c-0.96434-2.6149 3.2177 2.4587 0 0zm-6.2293-2.6218c-2.8986-0.52886-6.6492-5.0076-1.1872-3.7031 3.4203-1.5758 4.0402 3.9752 1.1872 3.7031zm34.967-3.6598c3.5241-3.5068-0.15234 1.2149-0.81016 0.85118zm-60.488 0.89421c-3.476 0.68547-4.9855-2.1537-0.70774-0.65268 2.1825 0.50852 9.1455 0.67935 3.124 0.74287-0.80549-0.02831-1.6109-0.05945-2.4163-0.09018zm42.228-0.34752c0.37456-1.281 2.3315 1.5676 0 0zm-12.966-0.13876c0.76886-5.5784-7.9187 0.95278-7.1882-2.0133 6.8927-4.2691 15.377-3.3814 23.086-3.1933 2.6985 1.1237 7.1792 3.5516 1.7757 2.7265-5.8832-0.16106-11.758-0.94819-17.649-0.57713 0.90406 0.44988 2.3527 3.9937-0.0245 3.0572zm70.831 0.10583c0.31774-1.7528 1.8935-9.206 0.30975-3.8698-0.98037 6.9917-8.1685-3.8022-5.425-6.4501 3.0629-2.1405 2.761-6.5946-1.2806-3.5848-4.523 1.1911-12.026 4.5202-14.631 2.7948-3.1257 0.41001-4.6003 3.1923-7.2499 1.7443-3.1783 1.2818-6.1781 3.8489-4.8994 7.1433-1.9589-1.9306-4.7625-0.36945-1.6022-2.9613 2.0086-3.3523 8.213-5.8233 7.7733-9.389-1.8573 2.343-5.363 3.4792-6.8803 1.3073-3.2426 0.48458-2.6784 2.1004 0.14241 2.0059 2.9075 2.1866-3.8337 8.3125-4.3288 4.9753 0.16259 6.1678-10.382 5.7906-8.8178-0.25394 1.2703-2.236 9.127 0.291 2.8057-1.3984-2.6725-0.08979-6.8537-2.3992-1.6824-2.6849 4.0499-1.9869 8.0728 0.21638 10.885-2.9563 6.2119-1.1158 12.126-3.2742 18.297-4.6602 4.6037-1.0685 9.1719-2.1966 13.7-3.5947 4.366-1.3083 9.2873-1.4268 13.023-4.1374 3.1343 0.75814 7.3473-0.75337 10.29 2.323-6.2242 1.8704-12.508 3.498-18.61 5.7006-3.7108 1.6427 4.2065 2.2306 1.4749 5.9617-1.5934 3.8558-1.3929 8.3084-3.2934 11.984zm-39.817-2.7649c-0.20913-0.96484-0.84102 1.3863 0 0zm3.3778-3.7659c-0.90444-0.55028-0.29576 0.50326 0 0zm36.464-0.93045c4.457-0.75433-2.595-1.9462-0.36978 0.32823zm-38.312-2.4467c-0.42561-1.4253-0.39739 1.7307 0 0zm12.171-0.70166c2.2982 0.48403 1.662-4.6022 0.94773-1.085-1.9272-1.1627-5.2819 2.5846-0.94773 1.085zm4.4023-1.2187c-0.0654-3.0116-2.8121 0.40018 0 0zm21.881-0.20308c0.39535-3.6865-2.4012-0.14001 0 0zm-21.098-1.3691c-0.91042-1.128-0.68145 1.4295 0 0zm20.427-2.1058c-0.57552-2.335-1.7857 0.43447 0 0zm-100.22 14.753c7.7946-1.736 15.727-2.56 23.599-3.8639 5.6664-1.219-1.4672 0.89949-3.1659 2.2009-6.8302 0.32163-13.58 1.7341-20.433 1.663zm75.16-0.90407c-1.2722-3.0695 3.5499 2.2647 0 0zm12.781 0.32522c-6.4472-0.99678 9.6545 0.2837 1.418 0.08499l-0.70909-0.0411zm-16.797-0.17971c0.76758-1.7054 2.1001 0.89451 0 0zm-1.8577-2.2823c1.0329-2.7399 4.4696 2.2042 0.26528 0.3893l-0.18733-0.15382zm-20.251-0.66077c-2.0894-1.5756-9.8168-1.7633-3.6258-4.2998 4.1231-3.4776 9.8961 1.4934 5.662 5.3029-0.78322-0.08436-1.4204-0.56527-2.0363-1.0031zm45.097-0.28238c-2.94-5.3547 4.2928 2.279 0 0zm-25.559-5.5741c1.5337-3.9436 1.9922 1.8941 0 0z" fill="#565966"/>
    <path d="m207.44 81.382c-2.5603-2.3393 7.089-1.5756 1.9736 0.50327-0.69067 0.12372-1.4198-0.08102-1.9736-0.50327zm-6.7752-0.99504c-3.2547-2.7642 6.6539-0.78389 0.554 0.17796zm32.969-2.1962c-4.484-2.7719 7.2274-1.6051 0.73728 0.09615zm13.335-10.445c-3.3498-0.98377-9.7206 0.27342-11.316-1.9101 5.0489 0.2069 10.243 0.07297 15.342-0.13482 0.32814-3.4813-7.643-0.42808-10.253-2.0721-2.5386 0.34401-4.9573 0.11177-1.9659-2.4861 6.1433-0.23903 12.352 0.72757 18.458 1.3908 2.4273 0.06451 12.094 0.1646 5.0005 1.5262-3.5049-0.41801-5.0132-0.53225-8.3844 0.13164-2.002 2.4513 7.1292 0.05544 9.2924 0.83366 5.405-0.27612-4.8366 2.312-6.5435 2.1149-3.1635 0.55029-6.4242 0.82352-9.6308 0.60592zm-48.56-2.2509c-0.0837-1.5055 1.4397 1.3427 0 0zm-7.8944-3.673c-2.5151-1.416-4.3499-3.3683-0.22823-1.6439 3.3991-0.7675 2.7312 2.2068 0.22823 1.6439zm17.825-2.2433c-0.36142-1.2848 2.8699 1.1674 0 0zm-45.495-0.06369c1.0218-1.361 2.682 1.1064 0 0zm103.36 0.03074c0.39947-2.0852 2.0609-10.153 0.25028-3.9237-0.90013 7.0075-4.0547-1.6378-6.6288-3.3892 1.8715-3.2447 3.1565-7.3642 6.5105-8.9137 6.5474-0.40545 1.7567 6.5505 1.6209 10.341-0.61417 1.6717-0.6794 4.9944-1.7528 5.8858zm0.0251-7.4612c3.6011 0.50862 0.1167-2.7881-0.83554 0.02693 0.0263 0.43589 0.81295 0.56165 0.83554-0.02693zm0.1425-4.5701c-0.31964-4.9055-2.0627 1.0344 0 0zm-71.088 11.502c-2.0246-5.2538 3.2997 1.1733 0 0zm45.359-1.1281c-1.5521-2.988 3.9163 2.0776 0 0zm12.781 0.32522c-7.614-1.0062 10.43 0.28545 2.0108 0.1165l-0.94918-0.05174zm-65.402-0.56324c6.2362-4.4315 14.354-3.4549 21.58-3.5635 3.177-0.24127 9.1304 4.3814 2.4623 2.8152-6.1492-0.16107-12.408-1.2887-18.501-0.09416 0.35937 1.1922-8.5114 2.0551-5.5406 0.84248zm48.605 0.38353c0.58402-1.6771 2.4961 0.70244 0 0zm-62.684-0.86948c0.54081-0.75935 0.54081 0.75935 0 0zm49.082-0.15875c-2.4059 0.45621-4.869-1.2524-3.3085-4.6512 4.5527-1.6317 10.725 2.9227 4.5574 4.8099l-0.87153-0.04663-0.37713-0.11212zm2.7674-1.2665c0.38766-0.79875-3.6001 1.4412 0 0zm6.6768 1.0019c-2.8853-1.2659 2.5105-3.955 0.88033 0.22506-0.17226 0.41739-0.80994 0.11529-0.88033-0.22506zm2.3001-0.98947c0.12638-2.8069 5.6034 1.9773 0.31702 0.41321l-0.21316-0.14565zm-20.609-0.92168c-2.3126-1.5532-9.4397-1.2869-3.4627-3.8085 4.146-3.4912 8.014 0.11601 5.8278 4.5706-0.80881 0.27474-1.6342-0.5295-2.3652-0.76211zm45.455-0.02148c-2.6171-5.1519 4.1434 2.2568 0 0zm-30.793-0.02779c-1.0276-2.5904 2.9448-0.26977 0 0zm1.2128-3.8737c-0.64098-0.42989 3.3021-4.1763 2.4459-0.25798-0.72978 0.35372-1.6772 0.91909-2.4459 0.25798zm50.165-15.02c-1.7967 0.55865-7.1423-0.75915-3.8527-2.4574 1.2695 3.158 2.3769 0.76291 3.2473-0.08723 2.6347 0.30017 11.044 3.1093 4.1104 2.2153-1.4837-0.34705-4.2936-0.59273-1.1097 0.58223-0.80626 0.0071-1.5979-0.16491-2.3953-0.25295z" fill="#1e6195"/>
    <path d="m207.44 81.382c-2.5603-2.3393 7.089-1.5756 1.9736 0.50327-0.69067 0.12372-1.4198-0.08102-1.9736-0.50327zm-6.7752-0.99504c-3.2547-2.7642 6.6539-0.78389 0.554 0.17796zm32.969-2.1962c-4.484-2.7719 7.2274-1.6051 0.73728 0.09615zm13.335-10.445c-3.3498-0.98377-9.7206 0.27342-11.316-1.9101 5.0489 0.2069 10.243 0.07297 15.342-0.13482 0.18399-3.5638-8.8002-0.23411-11.011-2.4615 6.4644-0.29 12.88-0.96862 19.361-0.58078 2.7699-0.54615 9.0194 0.67448 2.8901 1.4011-3.5049-0.41801-5.0132-0.53225-8.3844 0.13164-2.002 2.4513 7.1292 0.05544 9.2924 0.83365 5.405-0.27612-4.8366 2.312-6.5435 2.1149-3.1635 0.55029-6.4242 0.82352-9.6308 0.60592zm-48.56-2.2509c-0.0837-1.5055 1.4397 1.3427 0 0zm39.468-2.0748c0.11099-1.5722 1.8794 0.92538 2e-5 3e-6zm-47.362-1.5982c-2.5151-1.416-4.3499-3.3683-0.22823-1.6439 3.3991-0.7675 2.7312 2.2068 0.22823 1.6439zm-27.67-2.307c1.0218-1.361 2.682 1.1064 0 0zm32.485-0.4316c-2.2382-5.2057 3.2918 0.83529 0 0zm-21.386-1.9189c0.54081-0.75935 0.54081 0.75935 0 0zm18.395-0.76246c1.7996-2.7661 8.6741-1.4425 12.48-1.8961 2.9116 0.22908 6.1158-0.82275 8.6607 1.0125 5.5106 2.6122-4.6917 0.84249-6.7028 0.88675-4.7696-0.9553-9.9778-0.18235-14.438-0.0031zm27.378 0.31156c-2.9223-5.6148 5.6547-5.3579 7.4613-2.4036-0.84591 1.8999-5.3952 2.6553-7.4613 2.4036zm-5.0271-1.656c-2.4285-1.5889-7.8606-1.7043-2.735-3.9389 3.6678-3.9689 6.8534 1.7307 4.2469 4.5592l-0.63125-0.18424zm13.959-0.87488c0.38086-1.604 2.3251 0.70077 0 0zm31.678-1.8682c-7e-3 -1.9452 6.369-11.764 3.3803-5.6666-1.4606 1.4777-1.5037 5.3479-3.3803 5.6666zm-30.291-1.4075c-0.64098-0.42989 3.3021-4.1763 2.4459-0.25798-0.72978 0.35372-1.6772 0.91909-2.4459 0.25798zm37.465-5.82c0.35049-0.47289 0.52921 0.72479 0 0zm12.7-9.2c-1.8843 0.70998-7.1299-1.1183-3.6569-2.1236 1.933 2.4166 6.1805-0.42787 9.2906 1.5856 2.1162 1.2829-8.4612-1.3268-3.2354 0.78733-0.8071 0.0084-1.6001-0.16018-2.3983-0.2493z" fill="#142d58"/>
   </g>
  </g>
 </g>
</svg>
