<?xml version="1.0" encoding="UTF-8"?>
<!-- Created with Inkscape (http://www.inkscape.org/) -->
<svg width="450" height="150" version="1.1" viewBox="0 0 595.31 198.44" xmlns="http://www.w3.org/2000/svg">
 <g stroke-width="1.3229" aria-label="Place Order">
  <path d="m421.34 134q0 1.3143-0.40996 2.3272-0.40997 1.0128-1.1937 1.7122-0.78376 0.68729-1.9292 1.049-1.1334 0.36173-2.6768 0.36173h-1.3022v4.9799q0 0.12058-0.0844 0.21704-0.0723 0.0965-0.25322 0.15675-0.18086 0.0603-0.48231 0.0965-0.30144 0.0362-0.7717 0.0362-0.45819 0-0.7717-0.0362-0.30144-0.0362-0.48231-0.0965t-0.25321-0.15675q-0.0723-0.0965-0.0723-0.21704v-14.035q0-0.56671 0.28939-0.84404 0.30144-0.28939 0.78375-0.28939h3.6776q0.55466 0 1.049 0.0482 0.50642 0.0362 1.2058 0.18087 0.69935 0.13263 1.4108 0.50643 0.72347 0.37379 1.2299 0.95256 0.50643 0.56672 0.7717 1.3384 0.26527 0.75964 0.26527 1.7122zm-3.3159 0.2291q0-0.81993-0.28939-1.3505-0.28938-0.53054-0.71141-0.78375-0.42202-0.25322-0.89227-0.31351-0.4582-0.0723-0.95257-0.0723h-1.3505v5.2934h1.4228q0.75964 0 1.2661-0.20499 0.51848-0.20498 0.84404-0.56671 0.32556-0.3738 0.49437-0.88022 0.16881-0.51849 0.16881-1.1214z"/>
  <path d="m426.66 144.45q0 0.12058-0.0724 0.21704-0.0723 0.0844-0.25321 0.1447-0.16881 0.0603-0.4582 0.0844-0.28939 0.0362-0.73553 0.0362t-0.73552-0.0362q-0.28939-0.0241-0.47026-0.0844-0.16881-0.0603-0.24116-0.1447-0.0723-0.0965-0.0723-0.21704v-15.856q0-0.12058 0.0723-0.21704 0.0723-0.0965 0.24116-0.15675 0.18087-0.0724 0.47026-0.10852 0.28938-0.0362 0.73552-0.0362t0.73553 0.0362 0.4582 0.10852q0.18086 0.0603 0.25321 0.15675 0.0724 0.0965 0.0724 0.21704z"/>
  <path d="m438.85 144.49q0 0.16881-0.12057 0.26527-0.12058 0.0965-0.38585 0.13264-0.25322 0.0482-0.75965 0.0482-0.5426 0-0.79581-0.0482-0.24116-0.0362-0.34968-0.13264-0.0965-0.0965-0.0965-0.26527v-0.85611q-0.66318 0.71141-1.5193 1.1093-0.84405 0.39791-1.881 0.39791-0.85611 0-1.5796-0.2291-0.71141-0.21704-1.242-0.65112-0.51849-0.44614-0.80788-1.0973-0.28938-0.65112-0.28938-1.5193 0-0.94051 0.36173-1.6278 0.37379-0.69935 1.0973-1.1455 0.73553-0.4582 1.8207-0.67524 1.0852-0.21704 2.5201-0.21704h1.049v-0.65112q0-0.50643-0.10853-0.88022-0.0965-0.38585-0.33761-0.63907-0.2291-0.25321-0.62701-0.37379-0.38585-0.12058-0.96463-0.12058-0.75964 0-1.3625 0.16881-0.59083 0.16881-1.049 0.37379-0.45819 0.20499-0.7717 0.3738-0.30144 0.16881-0.49437 0.16881-0.13263 0-0.24115-0.0844-0.0965-0.0844-0.16881-0.24116-0.0603-0.15675-0.0965-0.38585-0.0362-0.22909-0.0362-0.50642 0-0.3738 0.0603-0.59084t0.2291-0.38585q0.16881-0.18086 0.59083-0.38585 0.42202-0.21704 0.98874-0.3979 0.56672-0.18087 1.2299-0.28939 0.67524-0.12058 1.3866-0.12058 1.2661 0 2.1584 0.25321 0.90433 0.24116 1.4831 0.75965 0.57877 0.50642 0.84404 1.3143 0.26527 0.80787 0.26527 1.9172zm-2.9783-4.6061h-1.1576q-0.73553 0-1.254 0.10852-0.51848 0.10852-0.84404 0.32556-0.32557 0.21704-0.48232 0.53055-0.14469 0.30144-0.14469 0.69935 0 0.67524 0.42202 1.0611 0.43408 0.38585 1.1937 0.38585 0.63906 0 1.1696-0.32556 0.54261-0.32556 1.0973-0.95257z"/>
  <path d="m450.02 142.74q0 0.31351-0.0241 0.53055-0.012 0.20498-0.0482 0.34968-0.0241 0.14469-0.0723 0.24115-0.0362 0.0844-0.18087 0.2291-0.1447 0.13264-0.49437 0.33762-0.34968 0.19292-0.79582 0.34968-0.44614 0.15675-0.97668 0.25321-0.51849 0.0965-1.0732 0.0965-1.242 0-2.2066-0.38585-0.95256-0.38585-1.6037-1.1334-0.65113-0.75965-0.98875-1.8448-0.32556-1.0852-0.32556-2.4839 0-1.6157 0.39791-2.7854 0.40997-1.1817 1.1334-1.9534 0.72346-0.7717 1.7122-1.1455 0.98874-0.37379 2.1704-0.37379 0.48231 0 0.94051 0.0844 0.47026 0.0844 0.86816 0.2291 0.40997 0.14469 0.72347 0.32556 0.32556 0.18087 0.4582 0.3135 0.13264 0.13264 0.18087 0.2291 0.0603 0.0844 0.0844 0.2291 0.0362 0.1447 0.0482 0.36174 0.0241 0.20498 0.0241 0.50642 0 0.69936-0.12058 0.98874-0.12058 0.27733-0.3135 0.27733-0.20499 0-0.43408-0.1688-0.2291-0.16881-0.54261-0.3738-0.3135-0.20498-0.74758-0.37379t-1.037-0.16881q-1.1817 0-1.8087 0.9164-0.62701 0.90433-0.62701 2.6648 0 0.86816 0.15675 1.5313t0.4582 1.1093q0.3135 0.44614 0.7717 0.67524 0.47025 0.21704 1.0852 0.21704 0.62701 0 1.0732-0.18087 0.45819-0.19292 0.79581-0.42202t0.56672-0.40997q0.2291-0.19292 0.38585-0.19292 0.10852 0 0.18087 0.0603 0.0723 0.0603 0.10852 0.2291 0.0482 0.15675 0.0723 0.40996 0.0241 0.25322 0.0241 0.65112z"/>
  <path d="m462.15 138.76q0 0.55466-0.25321 0.81993-0.24116 0.26527-0.67524 0.26527h-6.5474q0 0.68729 0.15675 1.254 0.16881 0.55466 0.51848 0.95257 0.36174 0.38585 0.9164 0.59083 0.56671 0.20498 1.3505 0.20498 0.79582 0 1.3987-0.10852 0.60289-0.12057 1.037-0.25321 0.44614-0.14469 0.73553-0.25321 0.28938-0.12058 0.47025-0.12058 0.10852 0 0.18087 0.0482 0.0724 0.0362 0.12058 0.14469 0.0482 0.10852 0.0603 0.31351 0.0241 0.19292 0.0241 0.49437 0 0.26527-0.0121 0.45819-0.012 0.18087-0.0362 0.31351-0.0241 0.13263-0.0723 0.2291-0.0482 0.0844-0.13263 0.1688-0.0723 0.0844-0.42203 0.2291-0.34967 0.1447-0.89227 0.28939-0.54261 0.13264-1.242 0.2291-0.69935 0.10852-1.4952 0.10852-1.4349 0-2.5201-0.36173-1.0732-0.36174-1.7966-1.0973-0.72347-0.73552-1.0852-1.8569-0.34967-1.1214-0.34967-2.6286 0-1.4349 0.37379-2.5804 0.37379-1.1576 1.0852-1.9534 0.71141-0.80787 1.7243-1.2299 1.0249-0.42202 2.303-0.42202 1.3505 0 2.303 0.39791 0.96463 0.39791 1.5796 1.1093 0.61494 0.69935 0.90433 1.664 0.28939 0.96463 0.28939 2.0981zm-2.9421-0.86817q0.0362-1.2781-0.51848-2.0016-0.5426-0.73553-1.6881-0.73553-0.57877 0-1.0128 0.21704-0.42203 0.21704-0.71141 0.59083-0.27733 0.36174-0.43409 0.86817-0.14469 0.49437-0.1688 1.0611z"/>
  <path d="m484.44 136.88q0 1.9413-0.48232 3.4726-0.48231 1.5313-1.4349 2.6045-0.95256 1.0611-2.3633 1.6278-1.3987 0.55466-3.2436 0.55466-1.8207 0-3.1833-0.47026-1.3505-0.48231-2.2548-1.459-0.90434-0.97668-1.3625-2.4839-0.44614-1.5072-0.44614-3.5691 0-1.8931 0.48231-3.4003 0.48231-1.5193 1.4349-2.5804t2.3513-1.6278q1.4108-0.56672 3.2677-0.56672 1.7725 0 3.123 0.47025 1.3625 0.47026 2.2669 1.4469 0.9164 0.97669 1.3746 2.4718 0.47026 1.4831 0.47026 3.5088zm-3.328 0.16881q0-1.2299-0.19292-2.2307-0.19293-1.0128-0.66318-1.7243-0.4582-0.72346-1.2299-1.1093-0.7717-0.39791-1.9292-0.39791-1.1696 0-1.9534 0.44614-0.78375 0.43408-1.2661 1.1696-0.48231 0.73553-0.68729 1.7243-0.19293 0.97668-0.19293 2.074 0 1.2781 0.19293 2.303 0.19292 1.0128 0.65112 1.7363t1.2299 1.1093q0.7717 0.37379 1.9413 0.37379 1.1696 0 1.9534-0.43408t1.2661-1.1817q0.48231-0.74759 0.67524-1.7363 0.20498-1.0008 0.20498-2.1222z"/>
  <path d="m493.84 134.69q0 0.43408-0.0241 0.71141t-0.0723 0.43409q-0.0482 0.15675-0.13264 0.21704-0.0723 0.0603-0.19292 0.0603-0.0965 0-0.21704-0.0362-0.12058-0.0482-0.27733-0.0965-0.1447-0.0482-0.32556-0.0844-0.18087-0.0482-0.39791-0.0482-0.25322 0-0.50643 0.10852-0.25321 0.0965-0.53054 0.31351-0.26527 0.21704-0.56672 0.57877-0.28939 0.36174-0.62701 0.89228v6.7041q0 0.12058-0.0723 0.21704-0.0724 0.0844-0.25322 0.1447-0.16881 0.0603-0.45819 0.0844-0.28939 0.0362-0.73553 0.0362t-0.73553-0.0362q-0.28938-0.0241-0.47025-0.0844-0.16881-0.0603-0.24116-0.1447-0.0724-0.0965-0.0724-0.21704v-10.756q0-0.12058 0.0603-0.20499 0.0603-0.0965 0.21704-0.15675 0.15676-0.0603 0.39791-0.0844 0.25322-0.0362 0.62701-0.0362 0.38585 0 0.63906 0.0362 0.25322 0.0241 0.38585 0.0844 0.1447 0.0603 0.20499 0.15675 0.0603 0.0844 0.0603 0.20499v1.3384q0.42203-0.60289 0.79582-0.98874 0.37379-0.39791 0.71141-0.627 0.33762-0.2291 0.67524-0.31351 0.33762-0.0965 0.67524-0.0965 0.15675 0 0.33761 0.0241 0.18087 0.012 0.3738 0.0603 0.19292 0.0362 0.33762 0.0965 0.14469 0.0482 0.20498 0.10852 0.0723 0.0603 0.0965 0.13263 0.0362 0.0724 0.0603 0.20499 0.0241 0.12057 0.0362 0.37379 0.0121 0.25321 0.0121 0.68729z"/>
  <path d="m505.6 144.45q0 0.13264-0.0603 0.2291-0.0603 0.0844-0.20498 0.1447-0.14469 0.0603-0.39791 0.0844-0.24116 0.0241-0.60289 0.0241-0.38585 0-0.62701-0.0241-0.24115-0.0241-0.3979-0.0844-0.1447-0.0603-0.21704-0.1447-0.0603-0.0965-0.0603-0.2291v-1.1937q-0.83199 0.89228-1.7484 1.3866-0.90433 0.49437-2.0136 0.49437-1.2299 0-2.086-0.47026-0.84405-0.48231-1.3866-1.2902-0.53054-0.80787-0.7717-1.881-0.24116-1.0852-0.24116-2.2789 0-1.4349 0.30145-2.5804 0.3135-1.1455 0.90433-1.9534 0.59084-0.80788 1.4711-1.242t2.0257-0.43408q0.90434 0 1.6399 0.37379 0.73553 0.36174 1.459 1.0732v-5.8239q0-0.12057 0.0603-0.21704 0.0723-0.0965 0.24115-0.15675 0.18087-0.0724 0.47026-0.10852 0.28939-0.0362 0.73552-0.0362 0.44614 0 0.73553 0.0362t0.4582 0.10852q0.16881 0.0603 0.24115 0.15675 0.0724 0.0965 0.0724 0.21704zm-3.0144-7.1864q-0.65112-0.81993-1.254-1.254-0.59084-0.43409-1.242-0.43409-0.59083 0-1.0249 0.30145-0.42203 0.28939-0.6873 0.78376-0.25321 0.49437-0.38585 1.1093-0.12058 0.60289-0.12058 1.242 0 0.67524 0.10852 1.3143 0.10852 0.63907 0.34968 1.1455 0.25321 0.49437 0.66318 0.79582t1.037 0.30145q0.3135 0 0.60289-0.0844 0.30145-0.0965 0.60289-0.30144 0.31351-0.20499 0.63907-0.53055 0.32556-0.33762 0.71141-0.81993z"/>
  <path d="m518.59 138.76q0 0.55466-0.25321 0.81993-0.24116 0.26527-0.67524 0.26527h-6.5474q0 0.68729 0.15675 1.254 0.16881 0.55466 0.51849 0.95257 0.36173 0.38585 0.91639 0.59083 0.56672 0.20498 1.3505 0.20498 0.79582 0 1.3987-0.10852 0.60289-0.12057 1.037-0.25321 0.44614-0.14469 0.73553-0.25321 0.28939-0.12058 0.47025-0.12058 0.10852 0 0.18087 0.0482 0.0724 0.0362 0.12058 0.14469 0.0482 0.10852 0.0603 0.31351 0.0241 0.19292 0.0241 0.49437 0 0.26527-0.0121 0.45819-0.0121 0.18087-0.0362 0.31351-0.0241 0.13263-0.0723 0.2291-0.0482 0.0844-0.13264 0.1688-0.0724 0.0844-0.42202 0.2291-0.34968 0.1447-0.89228 0.28939-0.5426 0.13264-1.242 0.2291-0.69935 0.10852-1.4952 0.10852-1.4349 0-2.5201-0.36173-1.0731-0.36174-1.7966-1.0973-0.72347-0.73552-1.0852-1.8569-0.34968-1.1214-0.34968-2.6286 0-1.4349 0.37379-2.5804 0.37379-1.1576 1.0852-1.9534 0.71141-0.80787 1.7243-1.2299 1.0249-0.42202 2.303-0.42202 1.3505 0 2.303 0.39791 0.96462 0.39791 1.5796 1.1093 0.61495 0.69935 0.90434 1.664 0.28938 0.96463 0.28938 2.0981zm-2.9421-0.86817q0.0362-1.2781-0.51849-2.0016-0.5426-0.73553-1.6881-0.73553-0.57878 0-1.0129 0.21704-0.42202 0.21704-0.71141 0.59083-0.27733 0.36174-0.43408 0.86817-0.1447 0.49437-0.16881 1.0611z"/>
  <path d="m528 134.69q0 0.43408-0.0241 0.71141t-0.0724 0.43409q-0.0482 0.15675-0.13263 0.21704-0.0723 0.0603-0.19293 0.0603-0.0965 0-0.21704-0.0362-0.12058-0.0482-0.27733-0.0965-0.14469-0.0482-0.32556-0.0844-0.18087-0.0482-0.39791-0.0482-0.25321 0-0.50643 0.10852-0.25321 0.0965-0.53054 0.31351-0.26527 0.21704-0.56672 0.57877-0.28939 0.36174-0.627 0.89228v6.7041q0 0.12058-0.0724 0.21704-0.0724 0.0844-0.25321 0.1447-0.16881 0.0603-0.4582 0.0844-0.28939 0.0362-0.73553 0.0362t-0.73552-0.0362q-0.28939-0.0241-0.47026-0.0844-0.16881-0.0603-0.24116-0.1447-0.0723-0.0965-0.0723-0.21704v-10.756q0-0.12058 0.0603-0.20499 0.0603-0.0965 0.21704-0.15675 0.15675-0.0603 0.3979-0.0844 0.25322-0.0362 0.62701-0.0362 0.38585 0 0.63907 0.0362 0.25321 0.0241 0.38585 0.0844 0.14469 0.0603 0.20498 0.15675 0.0603 0.0844 0.0603 0.20499v1.3384q0.42202-0.60289 0.79581-0.98874 0.37379-0.39791 0.71141-0.627 0.33762-0.2291 0.67524-0.31351 0.33762-0.0965 0.67524-0.0965 0.15675 0 0.33762 0.0241 0.18086 0.012 0.37379 0.0603 0.19292 0.0362 0.33762 0.0965 0.14469 0.0482 0.20498 0.10852 0.0724 0.0603 0.0965 0.13263 0.0362 0.0724 0.0603 0.20499 0.0241 0.12057 0.0362 0.37379 0.0121 0.25321 0.0121 0.68729z"/>
 </g>
 <path d="m26.458 105.83h529.17" fill="none" stroke="#969696" stroke-width="4.1906"/>
 <path d="m26.458 105.72h529.17" fill="none" stroke="#7f11ee" stroke-width="9.1287"/>
 <g transform="translate(-215.73 .13264)" stroke-width="1.3229" aria-label="Sign In">
  <path d="m275.04 141.14q0 1.0973-0.40997 1.9534-0.39791 0.8561-1.1214 1.459-0.71142 0.59084-1.6881 0.89228-0.96462 0.30145-2.086 0.30145-0.78376 0-1.459-0.13264-0.66318-0.13264-1.1937-0.32556-0.51849-0.19293-0.88022-0.39791-0.34968-0.20498-0.49437-0.34967-0.13264-0.1447-0.20498-0.36174-0.0603-0.2291-0.0603-0.60289 0-0.26527 0.0241-0.43408 0.0241-0.18087 0.0724-0.28939 0.0482-0.10852 0.12058-0.14469 0.0723-0.0482 0.16881-0.0482 0.16881 0 0.47025 0.20498 0.31351 0.20498 0.79582 0.44614 0.48231 0.24115 1.1576 0.4582 0.68729 0.20498 1.5796 0.20498 0.67524 0 1.2299-0.18087 0.56672-0.18087 0.96462-0.50643 0.40997-0.33762 0.62701-0.81993t0.21704-1.0973q0-0.66318-0.30144-1.1334-0.30145-0.47026-0.79582-0.81994-0.49437-0.36173-1.1334-0.65112-0.62701-0.30144-1.2902-0.60289-0.66318-0.3135-1.2902-0.68729-0.627-0.3738-1.1214-0.88022-0.49437-0.50643-0.80788-1.1817-0.30144-0.68729-0.30144-1.6399 0-0.97668 0.34967-1.7363 0.36174-0.7717 0.98875-1.2902 0.63906-0.51849 1.5072-0.78376 0.88022-0.27733 1.8931-0.27733 0.51848 0 1.037 0.0965 0.53054 0.0844 0.98874 0.24116 0.47026 0.14469 0.83199 0.33762 0.36173 0.18086 0.47026 0.30144 0.12057 0.10852 0.15675 0.18087 0.0362 0.0603 0.0603 0.16881 0.0241 0.0965 0.0362 0.24116 0.0121 0.14469 0.0121 0.37379 0 0.21704-0.0241 0.38585-0.0121 0.16881-0.0482 0.28939-0.0362 0.10852-0.10852 0.1688-0.0603 0.0482-0.14469 0.0482-0.13264 0-0.42203-0.16881-0.27733-0.16881-0.68729-0.3738-0.40997-0.21704-0.97669-0.38585-0.55466-0.18086-1.254-0.18086-0.65112 0-1.1334 0.18086-0.48232 0.16881-0.79582 0.4582t-0.47025 0.6873q-0.15675 0.3979-0.15675 0.84404 0 0.65113 0.30144 1.1214 0.30145 0.47025 0.79582 0.83199 0.50642 0.36173 1.1455 0.66318 0.63906 0.30144 1.3022 0.61495 0.66318 0.30144 1.3022 0.67523 0.63906 0.36174 1.1334 0.86817 0.50643 0.49437 0.80787 1.1817 0.31351 0.67524 0.31351 1.6037z"/>
  <path d="m279.76 145.22q0 0.0965-0.0482 0.16881-0.0482 0.0603-0.15675 0.10852-0.10852 0.0482-0.30145 0.0724-0.19292 0.0241-0.49437 0.0241-0.28939 0-0.48231-0.0241-0.19293-0.0241-0.3135-0.0724-0.10852-0.0482-0.15676-0.10852-0.0362-0.0723-0.0362-0.16881v-10.852q0-0.0844 0.0362-0.15675 0.0482-0.0724 0.15676-0.12058 0.12057-0.0482 0.3135-0.0724 0.19292-0.0241 0.48231-0.0241 0.30145 0 0.49437 0.0241 0.19293 0.0241 0.30145 0.0724 0.10852 0.0482 0.15675 0.12058 0.0482 0.0724 0.0482 0.15675zm0.2291-14.518q0 0.69935-0.26527 0.95256-0.26528 0.25322-0.97669 0.25322-0.69935 0-0.96462-0.24116-0.25322-0.25321-0.25322-0.94051 0-0.69935 0.26528-0.95257 0.26527-0.25321 0.97668-0.25321 0.69935 0 0.95257 0.25321 0.26527 0.24116 0.26527 0.92846z"/>
  <path d="m292.51 134.86q0 0.42203-0.12058 0.61495-0.10852 0.18087-0.28939 0.18087h-1.5554q0.42202 0.43408 0.59083 0.96462 0.16881 0.51849 0.16881 1.0852 0 0.9405-0.30145 1.664-0.30144 0.72347-0.86816 1.2299-0.55466 0.49437-1.3264 0.75964t-1.7122 0.26527q-0.66318 0-1.2661-0.1688-0.59083-0.18087-0.91639-0.44614-0.21704 0.21704-0.36174 0.49437-0.13263 0.27733-0.13263 0.63906 0 0.42202 0.38585 0.69935 0.3979 0.27733 1.049 0.30145l2.8336 0.12058q0.80788 0.0241 1.4831 0.2291 0.67524 0.19292 1.1696 0.56671 0.49437 0.36174 0.7717 0.90434 0.27733 0.53054 0.27733 1.242 0 0.74759-0.3135 1.4228-0.31351 0.67523-0.96463 1.1817-0.63906 0.51849-1.6399 0.80787-1.0008 0.30145-2.3633 0.30145-1.3143 0-2.2428-0.2291-0.9164-0.21704-1.5072-0.60289t-0.85611-0.92845q-0.26527-0.53054-0.26527-1.1576 0-0.39791 0.0965-0.7717t0.28939-0.71141q0.20499-0.33762 0.49437-0.63907 0.30145-0.3135 0.6873-0.61494-0.59083-0.30145-0.88022-0.75965-0.27733-0.45819-0.27733-0.98874 0-0.73552 0.30144-1.3143 0.30145-0.57877 0.74759-1.037-0.37379-0.44614-0.59084-1.0008-0.21704-0.56672-0.21704-1.3625 0-0.92845 0.31351-1.664 0.3135-0.73553 0.86816-1.242 0.55466-0.50643 1.3264-0.7717 0.78376-0.27733 1.7002-0.27733 0.49437 0 0.91639 0.0603 0.43409 0.0482 0.80788 0.1447h3.2797q0.20499 0 0.30145 0.20498 0.10852 0.19293 0.10852 0.60289zm-3.1109 2.8577q0-1.1093-0.61495-1.7243-0.60289-0.62701-1.7243-0.62701-0.57878 0-1.0129 0.19292-0.42202 0.19293-0.71141 0.53055-0.27733 0.33762-0.42202 0.78376-0.13264 0.43408-0.13264 0.91639 0 1.0732 0.60289 1.6881 0.61495 0.61495 1.7122 0.61495 0.59083 0 1.0249-0.18086 0.43409-0.19293 0.71142-0.51849 0.28938-0.33762 0.42202-0.7717 0.14469-0.43408 0.14469-0.90434zm1.0008 8.5972q0-0.69935-0.57877-1.0731-0.56672-0.38585-1.5434-0.40997l-2.8095-0.0965q-0.38585 0.30145-0.63907 0.57878-0.24115 0.26527-0.38585 0.50642-0.14469 0.25322-0.20498 0.49437-0.0482 0.24116-0.0482 0.49437 0 0.78376 0.79581 1.1817 0.79582 0.40997 2.2186 0.40997 0.90434 0 1.5072-0.18087 0.61495-0.16881 0.98874-0.4582t0.53054-0.66318q0.16881-0.37379 0.16881-0.78376z"/>
  <path d="m304.41 145.22q0 0.0965-0.0482 0.16881-0.0482 0.0603-0.15675 0.10852-0.10852 0.0482-0.30145 0.0724-0.19292 0.0241-0.48231 0.0241-0.30145 0-0.49437-0.0241-0.19293-0.0241-0.30145-0.0724-0.10852-0.0482-0.15675-0.10852-0.0482-0.0723-0.0482-0.16881v-6.3545q0-0.92846-0.14469-1.4952-0.1447-0.56672-0.42203-0.97669-0.27733-0.40996-0.72347-0.627-0.43408-0.21704-1.0128-0.21704-0.74759 0-1.4952 0.53054t-1.5675 1.5555v7.5844q0 0.0965-0.0482 0.16881-0.0482 0.0603-0.15675 0.10852-0.10852 0.0482-0.30144 0.0724-0.19293 0.0241-0.49437 0.0241-0.28939 0-0.48232-0.0241-0.19292-0.0241-0.3135-0.0724-0.10852-0.0482-0.15675-0.10852-0.0362-0.0723-0.0362-0.16881v-10.852q0-0.0965 0.0362-0.15675 0.0362-0.0724 0.14469-0.12058 0.10852-0.0603 0.27733-0.0724 0.16881-0.0241 0.44614-0.0241 0.26527 0 0.43408 0.0241 0.18087 0.0121 0.27733 0.0724 0.0965 0.0482 0.13264 0.12058 0.0482 0.0603 0.0482 0.15675v1.4349q0.91639-1.0249 1.8207-1.4952 0.91639-0.48231 1.8448-0.48231 1.0852 0 1.8207 0.37379 0.74759 0.36174 1.2058 0.97668 0.45819 0.61495 0.65112 1.4469 0.20498 0.81993 0.20498 1.9775z"/>
  <path d="m315.93 145.21q0 0.0965-0.0482 0.1688-0.0482 0.0724-0.16881 0.12058-0.12058 0.0362-0.32556 0.0603-0.19293 0.0362-0.49437 0.0362-0.28939 0-0.49437-0.0362-0.20499-0.0241-0.32556-0.0603-0.12058-0.0482-0.16881-0.12058-0.0482-0.0723-0.0482-0.1688v-14.976q0-0.0965 0.0482-0.16881 0.0603-0.0723 0.18086-0.10852 0.13264-0.0482 0.32557-0.0724 0.20498-0.0362 0.48231-0.0362 0.30144 0 0.49437 0.0362 0.20498 0.0241 0.32556 0.0724 0.12058 0.0362 0.16881 0.10852 0.0482 0.0724 0.0482 0.16881z"/>
  <path d="m329.19 145.22q0 0.0965-0.0482 0.16881-0.0482 0.0603-0.15675 0.10852-0.10852 0.0482-0.30144 0.0724-0.19293 0.0241-0.48232 0.0241-0.30144 0-0.49437-0.0241-0.19292-0.0241-0.30144-0.0724-0.10852-0.0482-0.15675-0.10852-0.0482-0.0723-0.0482-0.16881v-6.3545q0-0.92846-0.1447-1.4952-0.14469-0.56672-0.42202-0.97669-0.27733-0.40996-0.72347-0.627-0.43408-0.21704-1.0129-0.21704-0.74758 0-1.4952 0.53054-0.74758 0.53054-1.5675 1.5555v7.5844q0 0.0965-0.0482 0.16881-0.0482 0.0603-0.15675 0.10852-0.10852 0.0482-0.30145 0.0724-0.19292 0.0241-0.49437 0.0241-0.28939 0-0.48231-0.0241-0.19293-0.0241-0.31351-0.0724-0.10852-0.0482-0.15675-0.10852-0.0362-0.0723-0.0362-0.16881v-10.852q0-0.0965 0.0362-0.15675 0.0362-0.0724 0.1447-0.12058 0.10852-0.0603 0.27733-0.0724 0.16881-0.0241 0.44614-0.0241 0.26527 0 0.43408 0.0241 0.18086 0.0121 0.27733 0.0724 0.0965 0.0482 0.13263 0.12058 0.0482 0.0603 0.0482 0.15675v1.4349q0.9164-1.0249 1.8207-1.4952 0.9164-0.48231 1.8448-0.48231 1.0852 0 1.8207 0.37379 0.74758 0.36174 1.2058 0.97668 0.4582 0.61495 0.65112 1.4469 0.20498 0.81993 0.20498 1.9775z"/>
 </g>
 <g stroke-width="1.3229" aria-label="Select Flight">
  <path d="m216.83 141.14q0 1.0973-0.40997 1.9534-0.39791 0.85611-1.1214 1.459-0.71142 0.59083-1.6881 0.89228-0.96463 0.30145-2.086 0.30145-0.78376 0-1.459-0.13264-0.66319-0.13264-1.1937-0.32556-0.51849-0.19293-0.88023-0.39791-0.34967-0.20498-0.49437-0.34968-0.13264-0.14469-0.20498-0.36173-0.0603-0.2291-0.0603-0.6029 0-0.26527 0.0241-0.43408 0.0241-0.18087 0.0724-0.28939 0.0482-0.10852 0.12058-0.14469 0.0724-0.0482 0.16881-0.0482 0.16881 0 0.47026 0.20499 0.3135 0.20498 0.79582 0.44614 0.48231 0.24116 1.1576 0.4582 0.6873 0.20498 1.5796 0.20498 0.67524 0 1.2299-0.18087 0.56672-0.18086 0.96463-0.50643 0.40997-0.33762 0.62701-0.81993 0.21704-0.48232 0.21704-1.0973 0-0.66318-0.30145-1.1334-0.30144-0.47025-0.79581-0.81993-0.49438-0.36174-1.1334-0.65112-0.62701-0.30145-1.2902-0.6029-0.66319-0.3135-1.2902-0.6873-0.627-0.37379-1.1214-0.88022-0.49437-0.50643-0.80787-1.1817-0.30145-0.6873-0.30145-1.6399 0-0.97669 0.34968-1.7363 0.36173-0.7717 0.98874-1.2902 0.63907-0.51849 1.5072-0.78376 0.88023-0.27733 1.8931-0.27733 0.51849 0 1.037 0.0965 0.53054 0.0844 0.98874 0.24116 0.47026 0.14469 0.83199 0.33762 0.36174 0.18086 0.47026 0.30144 0.12058 0.10852 0.15675 0.18087 0.0362 0.0603 0.0603 0.16881 0.0241 0.0965 0.0362 0.24116 0.0121 0.14469 0.0121 0.37379 0 0.21704-0.0241 0.38585-0.0121 0.16881-0.0482 0.28939-0.0362 0.10852-0.10852 0.16881-0.0603 0.0482-0.14469 0.0482-0.13264 0-0.42203-0.16881-0.27733-0.16881-0.68729-0.37379-0.40997-0.21704-0.97669-0.38585-0.55466-0.18087-1.254-0.18087-0.65112 0-1.1334 0.18087-0.48231 0.16881-0.79582 0.4582-0.3135 0.28939-0.47025 0.68729-0.15675 0.39791-0.15675 0.84406 0 0.65112 0.30144 1.1214 0.30145 0.47025 0.79582 0.83199 0.50643 0.36173 1.1455 0.66318 0.63906 0.30145 1.3022 0.61495 0.66318 0.30145 1.3022 0.67524 0.63906 0.36174 1.1334 0.86817 0.50643 0.49437 0.80788 1.1817 0.31351 0.67524 0.31351 1.6037z"/>
  <path d="m228.83 139.32q0 0.47025-0.24116 0.67524-0.2291 0.19292-0.53054 0.19292h-7.1141q0 0.90434 0.18086 1.6278 0.18087 0.72348 0.6029 1.242 0.42202 0.51849 1.0973 0.79582t1.6519 0.27733q0.7717 0 1.3746-0.12057 0.60289-0.13264 1.037-0.28939 0.44614-0.15676 0.72347-0.27733 0.28939-0.13264 0.43409-0.13264 0.0844 0 0.14469 0.0482 0.0724 0.0362 0.10852 0.12058 0.0362 0.0844 0.0482 0.24116 0.0241 0.14469 0.0241 0.36173 0 0.15675-0.0121 0.27733-0.0121 0.10852-0.0362 0.20499-0.0121 0.0844-0.0603 0.15675-0.0362 0.0724-0.10852 0.14469-0.0603 0.0603-0.38585 0.21704-0.32557 0.1447-0.84405 0.28939-0.51849 0.1447-1.2058 0.25322-0.67524 0.12058-1.4469 0.12058-1.3384 0-2.3513-0.3738-1.0008-0.37379-1.6881-1.1093-0.68729-0.73553-1.037-1.8448-0.34968-1.1093-0.34968-2.5804 0-1.3987 0.36173-2.508 0.36174-1.1214 1.037-1.8931 0.6873-0.78377 1.6519-1.1937 0.96463-0.42203 2.1584-0.42203 1.2781 0 2.1704 0.40997 0.90434 0.40997 1.4831 1.1093 0.57877 0.6873 0.84405 1.6278 0.27733 0.92846 0.27733 1.9896zm-2.0016-0.59084q0.0362-1.5675-0.69935-2.4598-0.72347-0.89228-2.1584-0.89228-0.73553 0-1.2902 0.27733t-0.92846 0.73553q-0.37379 0.4582-0.57877 1.0732-0.20499 0.60289-0.2291 1.2661z"/>
  <path d="m233.84 145.22q0 0.0965-0.0482 0.16881-0.0482 0.0603-0.15676 0.10852-0.10852 0.0482-0.30144 0.0724-0.19293 0.0241-0.49437 0.0241-0.28939 0-0.48232-0.0241t-0.3135-0.0724q-0.10852-0.0482-0.15676-0.10852-0.0362-0.0724-0.0362-0.16881v-16.109q0-0.0965 0.0362-0.16881 0.0482-0.0724 0.15676-0.12058 0.12057-0.0482 0.3135-0.0724 0.19293-0.0241 0.48232-0.0241 0.30144 0 0.49437 0.0241 0.19292 0.0241 0.30144 0.0724 0.10852 0.0482 0.15676 0.12058 0.0482 0.0724 0.0482 0.16881z"/>
  <path d="m246.78 139.32q0 0.47025-0.24115 0.67524-0.2291 0.19292-0.53055 0.19292h-7.1141q0 0.90434 0.18087 1.6278 0.18087 0.72348 0.60289 1.242 0.42203 0.51849 1.0973 0.79582t1.6519 0.27733q0.7717 0 1.3746-0.12057 0.6029-0.13264 1.037-0.28939 0.44614-0.15676 0.72347-0.27733 0.28939-0.13264 0.43408-0.13264 0.0844 0 0.1447 0.0482 0.0723 0.0362 0.10852 0.12058 0.0362 0.0844 0.0482 0.24116 0.0241 0.14469 0.0241 0.36173 0 0.15675-0.0121 0.27733-0.0121 0.10852-0.0362 0.20499-0.0121 0.0844-0.0603 0.15675-0.0362 0.0724-0.10852 0.14469-0.0603 0.0603-0.38585 0.21704-0.32556 0.1447-0.84405 0.28939-0.51849 0.1447-1.2058 0.25322-0.67524 0.12058-1.447 0.12058-1.3384 0-2.3513-0.3738-1.0008-0.37379-1.6881-1.1093t-1.037-1.8448q-0.34968-1.1093-0.34968-2.5804 0-1.3987 0.36174-2.508 0.36174-1.1214 1.037-1.8931 0.68729-0.78377 1.6519-1.1937 0.96463-0.42203 2.1584-0.42203 1.2781 0 2.1704 0.40997 0.90434 0.40997 1.4831 1.1093 0.57878 0.6873 0.84405 1.6278 0.27733 0.92846 0.27733 1.9896zm-2.0016-0.59084q0.0362-1.5675-0.69936-2.4598-0.72347-0.89228-2.1584-0.89228-0.73553 0-1.2902 0.27733-0.55466 0.27733-0.92845 0.73553t-0.57878 1.0732q-0.20498 0.60289-0.2291 1.2661z"/>
  <path d="m257.61 143.57q0 0.20499-0.0121 0.36174-0.012 0.14469-0.0482 0.25322-0.0241 0.0965-0.0723 0.18086-0.0362 0.0724-0.19293 0.2291-0.14469 0.1447-0.50643 0.3738-0.36174 0.21704-0.81994 0.39791-0.44614 0.16881-0.97668 0.27733-0.53055 0.10852-1.0973 0.10852-1.1696 0-2.074-0.38585-0.90434-0.38586-1.5193-1.1214-0.60289-0.74758-0.92846-1.8207-0.3135-1.0852-0.3135-2.496 0-1.6037 0.38585-2.7492 0.39791-1.1576 1.0732-1.8931 0.6873-0.73553 1.6037-1.0852 0.92845-0.36174 2.0016-0.36174 0.51849 0 1.0008 0.0965 0.49438 0.0965 0.90434 0.25322 0.40997 0.15675 0.72348 0.36173 0.32556 0.20499 0.47025 0.34968 0.1447 0.1447 0.19293 0.2291 0.0603 0.0844 0.0965 0.20498 0.0362 0.10853 0.0482 0.25322 0.0121 0.14469 0.0121 0.36174 0 0.47025-0.10852 0.66318-0.10852 0.18087-0.26527 0.18087-0.18087 0-0.42203-0.19293-0.2291-0.20498-0.59083-0.44614-0.36174-0.24116-0.88023-0.43408-0.50643-0.20499-1.2058-0.20499-1.4349 0-2.2066 1.1093-0.75965 1.0973-0.75965 3.1953 0 1.049 0.19293 1.8448 0.20498 0.78376 0.59083 1.3143 0.38585 0.53054 0.94052 0.79582 0.56672 0.25321 1.2902 0.25321 0.6873 0 1.2058-0.21704 0.51849-0.21704 0.89229-0.47026 0.38585-0.26527 0.63906-0.47025 0.26528-0.21704 0.40997-0.21704 0.0844 0 0.14469 0.0482 0.0603 0.0482 0.0965 0.16881 0.0482 0.10852 0.0603 0.28939 0.0241 0.16881 0.0241 0.40996z"/>
  <path d="m265.89 144.42q0 0.34968-0.0482 0.55466-0.0482 0.20499-0.14469 0.30145-0.0965 0.0965-0.28939 0.18087-0.19293 0.0844-0.44614 0.13263-0.24116 0.0603-0.51849 0.0965t-0.55466 0.0362q-0.84405 0-1.447-0.21704-0.60289-0.2291-0.98874-0.67524-0.38585-0.4582-0.56672-1.1455-0.16881-0.69935-0.16881-1.6399v-6.3424h-1.5193q-0.18087 0-0.28939-0.19293-0.10852-0.19292-0.10852-0.62701 0-0.2291 0.0241-0.38585 0.0362-0.15675 0.0844-0.25321 0.0482-0.10852 0.12058-0.1447 0.0844-0.0482 0.18087-0.0482h1.5072v-2.5804q0-0.0844 0.0362-0.15675 0.0482-0.0724 0.15676-0.12058 0.12057-0.0603 0.3135-0.0844t0.48231-0.0241q0.30145 0 0.49438 0.0241 0.19292 0.0241 0.30144 0.0844 0.10852 0.0482 0.15676 0.12058 0.0482 0.0723 0.0482 0.15675v2.5804h2.7854q0.0965 0 0.16881 0.0482 0.0724 0.0362 0.12058 0.1447 0.0603 0.0965 0.0844 0.25321 0.0241 0.15675 0.0241 0.38585 0 0.43409-0.10852 0.62701-0.10852 0.19293-0.28939 0.19293h-2.7854v6.053q0 1.1214 0.32556 1.7002 0.33762 0.56672 1.1937 0.56672 0.27733 0 0.49437-0.0482 0.21704-0.0603 0.38585-0.12058 0.16881-0.0603 0.28939-0.10852 0.12058-0.0603 0.21704-0.0603 0.0603 0 0.10852 0.0362 0.0603 0.0241 0.0844 0.10852 0.0362 0.0844 0.0603 0.2291 0.0241 0.14469 0.0241 0.36173z"/>
  <path d="m282.53 130.81q0 0.2291-0.0241 0.39791t-0.0844 0.27733q-0.0603 0.0965-0.14469 0.14469-0.0724 0.0482-0.15675 0.0482h-5.7154v5.3055h5.4019q0.0844 0 0.15675 0.0482 0.0844 0.0362 0.1447 0.13264 0.0603 0.0965 0.0844 0.26527 0.0241 0.15675 0.0241 0.40997 0 0.2291-0.0241 0.39791-0.0241 0.15675-0.0844 0.26527-0.0603 0.0965-0.1447 0.15675-0.0723 0.0482-0.15675 0.0482h-5.4019v6.4992q0 0.0844-0.0482 0.16881-0.0482 0.0724-0.16881 0.12058-0.12058 0.0362-0.31351 0.0603-0.19292 0.0362-0.50643 0.0362-0.28939 0-0.49437-0.0362-0.20498-0.0241-0.32556-0.0603-0.12058-0.0482-0.16881-0.12058-0.0482-0.0844-0.0482-0.16881v-14.445q0-0.47026 0.24115-0.65113 0.25322-0.19292 0.53055-0.19292h7.0177q0.0844 0 0.15675 0.0482 0.0844 0.0482 0.14469 0.15675 0.0603 0.10852 0.0844 0.28939 0.0241 0.16881 0.0241 0.39791z"/>
  <path d="m287.44 145.22q0 0.0965-0.0482 0.16881-0.0482 0.0603-0.15675 0.10852-0.10852 0.0482-0.30144 0.0724-0.19293 0.0241-0.49438 0.0241-0.28939 0-0.48231-0.0241-0.19293-0.0241-0.31351-0.0724-0.10852-0.0482-0.15675-0.10852-0.0362-0.0724-0.0362-0.16881v-16.109q0-0.0965 0.0362-0.16881 0.0482-0.0724 0.15675-0.12058 0.12058-0.0482 0.31351-0.0724 0.19292-0.0241 0.48231-0.0241 0.30145 0 0.49438 0.0241 0.19292 0.0241 0.30144 0.0724 0.10852 0.0482 0.15675 0.12058 0.0482 0.0724 0.0482 0.16881z"/>
  <path d="m293.11 145.22q0 0.0965-0.0482 0.16881-0.0482 0.0603-0.15676 0.10852-0.10852 0.0482-0.30144 0.0724-0.19293 0.0241-0.49438 0.0241-0.28938 0-0.48231-0.0241t-0.3135-0.0724q-0.10853-0.0482-0.15676-0.10852-0.0362-0.0724-0.0362-0.16881v-10.852q0-0.0844 0.0362-0.15676 0.0482-0.0723 0.15676-0.12057 0.12057-0.0482 0.3135-0.0724 0.19293-0.0241 0.48231-0.0241 0.30145 0 0.49438 0.0241 0.19292 0.0241 0.30144 0.0724 0.10852 0.0482 0.15676 0.12057 0.0482 0.0724 0.0482 0.15676zm0.2291-14.518q0 0.69935-0.26528 0.95257-0.26527 0.25321-0.97668 0.25321-0.69936 0-0.96463-0.24115-0.25322-0.25322-0.25322-0.94052 0-0.69935 0.26528-0.95257 0.26527-0.25321 0.97668-0.25321 0.69936 0 0.95257 0.25321 0.26528 0.24116 0.26528 0.92846z"/>
  <path d="m305.85 134.86q0 0.42202-0.12058 0.61495-0.10852 0.18087-0.28939 0.18087h-1.5555q0.42202 0.43408 0.59083 0.96463 0.16881 0.51848 0.16881 1.0852 0 0.94052-0.30144 1.664-0.30145 0.72347-0.86817 1.2299-0.55466 0.49437-1.3264 0.75965-0.77171 0.26527-1.7122 0.26527-0.66318 0-1.2661-0.16881-0.59083-0.18087-0.91639-0.44614-0.21704 0.21704-0.36174 0.49437-0.13264 0.27733-0.13264 0.63907 0 0.42202 0.38586 0.69935 0.39791 0.27733 1.049 0.30145l2.8336 0.12058q0.80787 0.0241 1.4831 0.2291 0.67524 0.19292 1.1696 0.56672 0.49437 0.36173 0.7717 0.90434 0.27733 0.53054 0.27733 1.242 0 0.74758-0.3135 1.4228-0.31351 0.67524-0.96463 1.1817-0.63907 0.51849-1.6399 0.80788-1.0008 0.30145-2.3633 0.30145-1.3143 0-2.2428-0.2291-0.9164-0.21704-1.5072-0.6029-0.59083-0.38585-0.85611-0.92845-0.26527-0.53055-0.26527-1.1576 0-0.3979 0.0965-0.7717 0.0965-0.37379 0.28939-0.71141 0.20499-0.33762 0.49438-0.63907 0.30144-0.3135 0.68729-0.61495-0.59083-0.30145-0.88022-0.75965-0.27733-0.45819-0.27733-0.98874 0-0.73553 0.30145-1.3143 0.30144-0.57877 0.74758-1.037-0.37379-0.44614-0.59083-1.0008-0.21704-0.56671-0.21704-1.3625 0-0.92846 0.3135-1.664t0.86817-1.242q0.55466-0.50643 1.3264-0.7717 0.78376-0.27733 1.7002-0.27733 0.49437 0 0.9164 0.0603 0.43408 0.0482 0.80787 0.14469h3.2797q0.20499 0 0.30145 0.20499 0.10852 0.19292 0.10852 0.60289zm-3.1109 2.8577q0-1.1093-0.61495-1.7243-0.60289-0.62701-1.7243-0.62701-0.57878 0-1.0129 0.19292-0.42203 0.19293-0.71142 0.53055-0.27733 0.33762-0.42202 0.78376-0.13264 0.43408-0.13264 0.9164 0 1.0732 0.60289 1.6881 0.61495 0.61495 1.7122 0.61495 0.59083 0 1.0249-0.18087 0.43408-0.19292 0.71141-0.51849 0.28939-0.33762 0.42203-0.7717 0.14469-0.43408 0.14469-0.90434zm1.0008 8.5973q0-0.69936-0.57877-1.0732-0.56672-0.38585-1.5434-0.40997l-2.8095-0.0965q-0.38585 0.30144-0.63907 0.57877-0.24116 0.26528-0.38585 0.50643-0.14469 0.25322-0.20498 0.49438-0.0482 0.24115-0.0482 0.49437 0 0.78376 0.79582 1.1817 0.79582 0.40997 2.2186 0.40997 0.90434 0 1.5072-0.18087 0.61495-0.16881 0.98875-0.4582 0.37379-0.28939 0.53054-0.66318 0.16881-0.3738 0.16881-0.78376z"/>
  <path d="m317.75 145.22q0 0.0965-0.0482 0.16881-0.0482 0.0603-0.15675 0.10852-0.10852 0.0482-0.30145 0.0724-0.19293 0.0241-0.48232 0.0241-0.30144 0-0.49437-0.0241-0.19292-0.0241-0.30144-0.0724-0.10852-0.0482-0.15676-0.10852-0.0482-0.0724-0.0482-0.16881v-6.3545q0-0.92846-0.14469-1.4952-0.1447-0.56672-0.42203-0.97668-0.27733-0.40997-0.72347-0.62701-0.43408-0.21704-1.0129-0.21704-0.74759 0-1.4952 0.53054-0.74759 0.53055-1.5675 1.5555v7.5844q0 0.0965-0.0482 0.16881-0.0482 0.0603-0.15675 0.10852-0.10852 0.0482-0.30145 0.0724-0.19292 0.0241-0.49437 0.0241-0.28939 0-0.48231-0.0241-0.19293-0.0241-0.31351-0.0724-0.10852-0.0482-0.15675-0.10852-0.0362-0.0724-0.0362-0.16881v-16.109q0-0.0965 0.0362-0.16881 0.0482-0.0724 0.15675-0.12058 0.12058-0.0482 0.31351-0.0724 0.19292-0.0241 0.48231-0.0241 0.30145 0 0.49437 0.0241 0.19293 0.0241 0.30145 0.0724 0.10852 0.0482 0.15675 0.12058 0.0482 0.0724 0.0482 0.16881v6.4992q0.85611-0.90434 1.7243-1.3384 0.86816-0.44614 1.7484-0.44614 1.0852 0 1.8207 0.3738 0.74758 0.36173 1.2058 0.97668t0.65113 1.447q0.20498 0.81993 0.20498 1.9895z"/>
  <path d="m326.8 144.42q0 0.34968-0.0482 0.55466-0.0482 0.20499-0.14469 0.30145-0.0965 0.0965-0.28939 0.18087-0.19293 0.0844-0.44614 0.13263-0.24116 0.0603-0.51849 0.0965t-0.55466 0.0362q-0.84405 0-1.447-0.21704-0.60289-0.2291-0.98874-0.67524-0.38585-0.4582-0.56672-1.1455-0.16881-0.69935-0.16881-1.6399v-6.3424h-1.5193q-0.18087 0-0.28939-0.19293-0.10852-0.19292-0.10852-0.62701 0-0.2291 0.0241-0.38585 0.0362-0.15675 0.0844-0.25321 0.0482-0.10852 0.12058-0.1447 0.0844-0.0482 0.18087-0.0482h1.5072v-2.5804q0-0.0844 0.0362-0.15675 0.0482-0.0724 0.15675-0.12058 0.12058-0.0603 0.31351-0.0844 0.19292-0.0241 0.48231-0.0241 0.30145 0 0.49438 0.0241 0.19292 0.0241 0.30144 0.0844 0.10852 0.0482 0.15675 0.12058 0.0482 0.0723 0.0482 0.15675v2.5804h2.7854q0.0965 0 0.16881 0.0482 0.0723 0.0362 0.12058 0.1447 0.0603 0.0965 0.0844 0.25321 0.0241 0.15675 0.0241 0.38585 0 0.43409-0.10852 0.62701-0.10852 0.19293-0.28939 0.19293h-2.7854v6.053q0 1.1214 0.32556 1.7002 0.33762 0.56672 1.1937 0.56672 0.27733 0 0.49437-0.0482 0.21704-0.0603 0.38585-0.12058 0.16881-0.0603 0.28939-0.10852 0.12058-0.0603 0.21704-0.0603 0.0603 0 0.10852 0.0362 0.0603 0.0241 0.0844 0.10852 0.0362 0.0844 0.0603 0.2291 0.0241 0.14469 0.0241 0.36173z"/>
 </g>
 <path d="m411.52 35.567h13.229l19.844 39.688h52.917l13.229-26.458-79.375 1e-5" fill="none" stroke="#000" stroke-linecap="round" stroke-linejoin="round" stroke-width="5.325"/>
 <path d="m435.35 56.009h71.503l-2.7962 6.3913h-65.511l2.7962 6.3913h58.72" fill="none" stroke="#000" stroke-width="1.3229px"/>
 <circle cx="459.41" cy="83.866" r="6.6146" stroke-opacity="0"/>
 <circle cx="483.65" cy="84.042" r="6.6146" stroke-opacity="0"/>
</svg>
