<?xml version="1.0" encoding="UTF-8"?>
<!-- Created with Inkscape (http://www.inkscape.org/) -->
<svg width="450" height="150" version="1.1" viewBox="0 0 595.31 198.44" xmlns="http://www.w3.org/2000/svg">
 <path d="m26.458 105.83h529.17" fill="none" stroke="#969696" stroke-width="4.1906"/>
 <path d="m26.458 105.72h317.5" fill="none" stroke="#7f11ee" stroke-width="3.5355"/>
 <g stroke-width="1.3229">
  <g aria-label="Select Flight">
   <path d="m63.371 141.14q0 1.0973-0.40997 1.9534-0.39791 0.8561-1.1214 1.459-0.71141 0.59084-1.6881 0.89228-0.96462 0.30145-2.086 0.30145-0.78376 0-1.459-0.13264-0.66318-0.13264-1.1937-0.32556-0.51849-0.19293-0.88022-0.39791-0.34968-0.20498-0.49437-0.34967-0.13264-0.1447-0.20498-0.36174-0.06029-0.2291-0.06029-0.60289 0-0.26527 0.02412-0.43408 0.02412-0.18087 0.07235-0.28939t0.12058-0.14469q0.07235-0.0482 0.16881-0.0482 0.16881 0 0.47025 0.20498 0.3135 0.20498 0.79582 0.44614 0.48231 0.24115 1.1576 0.4582 0.6873 0.20498 1.5796 0.20498 0.67524 0 1.2299-0.18087 0.56672-0.18087 0.96462-0.50643 0.40997-0.33762 0.62701-0.81993 0.21704-0.48231 0.21704-1.0973 0-0.66318-0.30144-1.1334-0.30144-0.47026-0.79582-0.81994-0.49437-0.36173-1.1334-0.65112-0.62701-0.30144-1.2902-0.60289-0.66318-0.3135-1.2902-0.68729-0.62701-0.3738-1.1214-0.88022-0.49437-0.50643-0.80787-1.1817-0.30144-0.68729-0.30144-1.6399 0-0.97668 0.34968-1.7363 0.36174-0.7717 0.98874-1.2902 0.63906-0.51849 1.5072-0.78376 0.88022-0.27733 1.8931-0.27733 0.51849 0 1.037 0.0965 0.53054 0.0844 0.98874 0.24116 0.47025 0.14469 0.83199 0.33762 0.36173 0.18086 0.47025 0.30144 0.12058 0.10852 0.15675 0.18087 0.03617 0.0603 0.06029 0.16881 0.02412 0.0965 0.03617 0.24116 0.01206 0.14469 0.01206 0.37379 0 0.21704-0.02412 0.38585-0.01206 0.16881-0.04823 0.28939-0.03617 0.10852-0.10852 0.1688-0.06029 0.0482-0.14469 0.0482-0.13264 0-0.42202-0.16881-0.27733-0.16881-0.6873-0.3738-0.40997-0.21704-0.97668-0.38585-0.55466-0.18086-1.254-0.18086-0.65112 0-1.1334 0.18086-0.48231 0.16881-0.79582 0.4582t-0.47026 0.6873q-0.15675 0.3979-0.15675 0.84404 0 0.65113 0.30144 1.1214 0.30145 0.47025 0.79582 0.83199 0.50643 0.36173 1.1455 0.66318 0.63906 0.30144 1.3022 0.61495 0.66318 0.30144 1.3022 0.67523 0.63906 0.36174 1.1334 0.86817 0.50643 0.49437 0.80787 1.1817 0.3135 0.67524 0.3135 1.6037z"/>
   <path d="m75.368 139.32q0 0.47026-0.24116 0.67524-0.2291 0.19292-0.53054 0.19292h-7.1141q0 0.90434 0.18087 1.6278 0.18087 0.72347 0.60289 1.242 0.42202 0.51849 1.0973 0.79582 0.67524 0.27733 1.6519 0.27733 0.7717 0 1.3746-0.12058 0.60289-0.13263 1.037-0.28939 0.44614-0.15675 0.72347-0.27733 0.28939-0.13263 0.43408-0.13263 0.08441 0 0.14469 0.0482 0.07235 0.0362 0.10852 0.12058 0.03617 0.0844 0.04823 0.24115 0.02412 0.1447 0.02412 0.36174 0 0.15675-0.01206 0.27733-0.01206 0.10852-0.03617 0.20498-0.01206 0.0844-0.06029 0.15675-0.03617 0.0724-0.10852 0.1447-0.06029 0.0603-0.38585 0.21704-0.32556 0.14469-0.84405 0.28938-0.51849 0.1447-1.2058 0.25322-0.67524 0.12058-1.4469 0.12058-1.3384 0-2.3513-0.3738-1.0008-0.37379-1.6881-1.1093-0.6873-0.73553-1.037-1.8448-0.34968-1.1093-0.34968-2.5804 0-1.3987 0.36173-2.508 0.36173-1.1214 1.037-1.8931 0.6873-0.78376 1.6519-1.1937 0.96462-0.42202 2.1583-0.42202 1.2781 0 2.1704 0.40997 0.90434 0.40996 1.4831 1.1093 0.57878 0.6873 0.84405 1.6278 0.27733 0.92845 0.27733 1.9895zm-2.0016-0.59083q0.03617-1.5675-0.69935-2.4598-0.72347-0.89228-2.1583-0.89228-0.73553 0-1.2902 0.27733-0.55466 0.27733-0.92845 0.73552-0.37379 0.4582-0.57878 1.0732-0.20498 0.60289-0.2291 1.2661z"/>
   <path d="m80.384 145.22q0 0.0965-0.04823 0.16881-0.04823 0.0603-0.15675 0.10852-0.10852 0.0482-0.30144 0.0724-0.19292 0.0241-0.49437 0.0241-0.28939 0-0.48231-0.0241t-0.3135-0.0724q-0.10852-0.0482-0.15675-0.10852-0.03617-0.0723-0.03617-0.16881v-16.109q0-0.0965 0.03617-0.1688 0.04823-0.0724 0.15675-0.12058 0.12058-0.0482 0.3135-0.0724 0.19292-0.0241 0.48231-0.0241 0.30145 0 0.49437 0.0241t0.30144 0.0724q0.10852 0.0482 0.15675 0.12058 0.04823 0.0723 0.04823 0.1688z"/>
   <path d="m93.322 139.32q0 0.47026-0.24116 0.67524-0.2291 0.19292-0.53054 0.19292h-7.1141q0 0.90434 0.18087 1.6278t0.60289 1.242q0.42202 0.51849 1.0973 0.79582 0.67524 0.27733 1.6519 0.27733 0.7717 0 1.3746-0.12058 0.60289-0.13263 1.037-0.28939 0.44614-0.15675 0.72347-0.27733 0.28939-0.13263 0.43408-0.13263 0.08441 0 0.14469 0.0482 0.07235 0.0362 0.10852 0.12058 0.03617 0.0844 0.04823 0.24115 0.02412 0.1447 0.02412 0.36174 0 0.15675-0.01206 0.27733-0.01206 0.10852-0.03617 0.20498-0.01206 0.0844-0.06029 0.15675-0.03617 0.0724-0.10852 0.1447-0.06029 0.0603-0.38585 0.21704-0.32556 0.14469-0.84405 0.28938-0.51849 0.1447-1.2058 0.25322-0.67524 0.12058-1.4469 0.12058-1.3384 0-2.3513-0.3738-1.0008-0.37379-1.6881-1.1093-0.6873-0.73553-1.037-1.8448-0.34968-1.1093-0.34968-2.5804 0-1.3987 0.36174-2.508 0.36173-1.1214 1.037-1.8931 0.6873-0.78376 1.6519-1.1937 0.96462-0.42202 2.1583-0.42202 1.2781 0 2.1704 0.40997 0.90434 0.40996 1.4831 1.1093 0.57878 0.6873 0.84405 1.6278 0.27733 0.92845 0.27733 1.9895zm-2.0016-0.59083q0.03617-1.5675-0.69935-2.4598-0.72347-0.89228-2.1583-0.89228-0.73553 0-1.2902 0.27733-0.55466 0.27733-0.92845 0.73552-0.37379 0.4582-0.57878 1.0732-0.20498 0.60289-0.2291 1.2661z"/>
   <path d="m104.15 143.57q0 0.20499-0.0121 0.36174-0.0121 0.14469-0.0482 0.25321-0.0241 0.0965-0.0723 0.18087-0.0362 0.0724-0.19293 0.2291-0.14469 0.14469-0.50643 0.37379-0.36173 0.21704-0.81993 0.39791-0.44614 0.16881-0.97668 0.27733t-1.0973 0.10852q-1.1696 0-2.0739-0.38585t-1.5193-1.1214q-0.60289-0.74758-0.92845-1.8207-0.3135-1.0852-0.3135-2.496 0-1.6037 0.38585-2.7492 0.39791-1.1576 1.0731-1.8931 0.6873-0.73553 1.6037-1.0852 0.92845-0.36173 2.0016-0.36173 0.51848 0 1.0008 0.0965 0.49437 0.0965 0.90433 0.25321 0.40997 0.15676 0.72347 0.36174 0.32556 0.20498 0.47026 0.34968 0.14469 0.14469 0.19292 0.22909 0.0603 0.0844 0.0965 0.20499 0.0362 0.10852 0.0482 0.25321 0.0121 0.14469 0.0121 0.36173 0 0.47026-0.10852 0.66318-0.10852 0.18087-0.26527 0.18087-0.18087 0-0.42202-0.19292-0.2291-0.20499-0.59084-0.44614-0.36173-0.24116-0.88022-0.43408-0.50643-0.20499-1.2058-0.20499-1.4349 0-2.2066 1.1093-0.75964 1.0973-0.75964 3.1953 0 1.049 0.19292 1.8448 0.20498 0.78376 0.59083 1.3143t0.94051 0.79582q0.56672 0.25321 1.2902 0.25321 0.6873 0 1.2058-0.21704 0.51849-0.21704 0.89228-0.47026 0.38585-0.26527 0.63907-0.47025 0.26527-0.21704 0.40996-0.21704 0.0844 0 0.1447 0.0482t0.0965 0.16881q0.0482 0.10852 0.0603 0.28939 0.0241 0.16881 0.0241 0.40996z"/>
   <path d="m112.43 144.42q0 0.34967-0.0482 0.55466-0.0482 0.20498-0.14469 0.30144-0.0965 0.0965-0.28939 0.18087-0.19293 0.0844-0.44614 0.13264-0.24116 0.0603-0.51849 0.0965t-0.55466 0.0362q-0.84404 0-1.4469-0.21704-0.60289-0.2291-0.98874-0.67524-0.38585-0.45819-0.56672-1.1455-0.16881-0.69935-0.16881-1.6399v-6.3424h-1.5193q-0.18086 0-0.28938-0.19293-0.10852-0.19292-0.10852-0.627 0-0.2291 0.0241-0.38585 0.0362-0.15675 0.0844-0.25322 0.0482-0.10852 0.12058-0.14469 0.0844-0.0482 0.18086-0.0482h1.5072v-2.5804q0-0.0844 0.0362-0.15676 0.0482-0.0723 0.15675-0.12057 0.12058-0.0603 0.31351-0.0844 0.19292-0.0241 0.48231-0.0241 0.30144 0 0.49437 0.0241 0.19292 0.0241 0.30145 0.0844 0.10852 0.0482 0.15675 0.12057 0.0482 0.0724 0.0482 0.15676v2.5804h2.7854q0.0965 0 0.16881 0.0482 0.0724 0.0362 0.12058 0.14469 0.0603 0.0965 0.0844 0.25322 0.0241 0.15675 0.0241 0.38585 0 0.43408-0.10852 0.627-0.10852 0.19293-0.28939 0.19293h-2.7854v6.053q0 1.1214 0.32556 1.7002 0.33762 0.56672 1.1937 0.56672 0.27733 0 0.49437-0.0482 0.21704-0.0603 0.38585-0.12058 0.16881-0.0603 0.28939-0.10852 0.12058-0.0603 0.21704-0.0603 0.0603 0 0.10852 0.0362 0.0603 0.0241 0.0844 0.10852 0.0362 0.0844 0.0603 0.2291t0.0241 0.36174z"/>
   <path d="m129.07 130.81q0 0.22909-0.0241 0.3979t-0.0844 0.27733q-0.0603 0.0965-0.14469 0.1447-0.0724 0.0482-0.15675 0.0482h-5.7154v5.3054h5.4019q0.0844 0 0.15676 0.0482 0.0844 0.0362 0.14469 0.13263 0.0603 0.0965 0.0844 0.26528 0.0241 0.15675 0.0241 0.40996 0 0.2291-0.0241 0.39791-0.0241 0.15675-0.0844 0.26527-0.0603 0.0965-0.14469 0.15675-0.0724 0.0482-0.15676 0.0482h-5.4019v6.4992q0 0.0844-0.0482 0.1688-0.0482 0.0724-0.16881 0.12058-0.12057 0.0362-0.3135 0.0603-0.19292 0.0362-0.50643 0.0362-0.28939 0-0.49437-0.0362-0.20498-0.0241-0.32556-0.0603-0.12058-0.0482-0.16881-0.12058-0.0482-0.0844-0.0482-0.1688v-14.445q0-0.47026 0.24116-0.65113 0.25321-0.19292 0.53054-0.19292h7.0176q0.0844 0 0.15675 0.0482 0.0844 0.0482 0.14469 0.15675 0.0603 0.10852 0.0844 0.28939 0.0241 0.16881 0.0241 0.39791z"/>
   <path d="m133.98 145.22q0 0.0965-0.0482 0.16881-0.0482 0.0603-0.15675 0.10852-0.10852 0.0482-0.30144 0.0724-0.19293 0.0241-0.49437 0.0241-0.28939 0-0.48232-0.0241-0.19292-0.0241-0.3135-0.0724-0.10852-0.0482-0.15675-0.10852-0.0362-0.0723-0.0362-0.16881v-16.109q0-0.0965 0.0362-0.1688 0.0482-0.0724 0.15675-0.12058 0.12058-0.0482 0.3135-0.0724 0.19293-0.0241 0.48232-0.0241 0.30144 0 0.49437 0.0241 0.19292 0.0241 0.30144 0.0724 0.10852 0.0482 0.15675 0.12058 0.0482 0.0723 0.0482 0.1688z"/>
   <path d="m139.65 145.22q0 0.0965-0.0482 0.16881-0.0482 0.0603-0.15675 0.10852-0.10852 0.0482-0.30144 0.0724-0.19293 0.0241-0.49438 0.0241-0.28938 0-0.48231-0.0241-0.19292-0.0241-0.3135-0.0724-0.10852-0.0482-0.15675-0.10852-0.0362-0.0723-0.0362-0.16881v-10.852q0-0.0844 0.0362-0.15675 0.0482-0.0724 0.15675-0.12058 0.12058-0.0482 0.3135-0.0724 0.19293-0.0241 0.48231-0.0241 0.30145 0 0.49438 0.0241 0.19292 0.0241 0.30144 0.0724 0.10852 0.0482 0.15675 0.12058 0.0482 0.0724 0.0482 0.15675zm0.2291-14.518q0 0.69935-0.26527 0.95256-0.26527 0.25322-0.97668 0.25322-0.69936 0-0.96463-0.24116-0.25321-0.25321-0.25321-0.94051 0-0.69935 0.26527-0.95257 0.26527-0.25321 0.97668-0.25321 0.69936 0 0.95257 0.25321 0.26527 0.24116 0.26527 0.92846z"/>
   <path d="m152.39 134.86q0 0.42203-0.12057 0.61495-0.10852 0.18087-0.28939 0.18087h-1.5555q0.42202 0.43408 0.59083 0.96462 0.16881 0.51849 0.16881 1.0852 0 0.9405-0.30144 1.664-0.30145 0.72347-0.86816 1.2299-0.55466 0.49437-1.3264 0.75964t-1.7122 0.26527q-0.66318 0-1.2661-0.1688-0.59084-0.18087-0.9164-0.44614-0.21704 0.21704-0.36173 0.49437-0.13264 0.27733-0.13264 0.63906 0 0.42202 0.38585 0.69935 0.39791 0.27733 1.049 0.30145l2.8336 0.12058q0.80787 0.0241 1.4831 0.2291 0.67524 0.19292 1.1696 0.56671 0.49437 0.36174 0.7717 0.90434 0.27733 0.53054 0.27733 1.242 0 0.74759-0.31351 1.4228-0.3135 0.67523-0.96462 1.1817-0.63907 0.51849-1.6399 0.80787-1.0008 0.30145-2.3633 0.30145-1.3143 0-2.2428-0.2291-0.91639-0.21704-1.5072-0.60289-0.59083-0.38585-0.8561-0.92845-0.26527-0.53054-0.26527-1.1576 0-0.39791 0.0965-0.7717t0.28939-0.71141q0.20498-0.33762 0.49437-0.63907 0.30144-0.3135 0.68729-0.61494-0.59083-0.30145-0.88022-0.75965-0.27733-0.45819-0.27733-0.98874 0-0.73552 0.30145-1.3143 0.30144-0.57877 0.74758-1.037-0.37379-0.44614-0.59083-1.0008-0.21704-0.56672-0.21704-1.3625 0-0.92845 0.3135-1.664 0.31351-0.73553 0.86817-1.242 0.55466-0.50643 1.3264-0.7717 0.78375-0.27733 1.7002-0.27733 0.49437 0 0.91639 0.0603 0.43408 0.0482 0.80787 0.1447h3.2797q0.20498 0 0.30144 0.20498 0.10852 0.19293 0.10852 0.60289zm-3.1109 2.8577q0-1.1093-0.61495-1.7243-0.60289-0.62701-1.7243-0.62701-0.57877 0-1.0128 0.19292-0.42203 0.19293-0.71141 0.53055-0.27733 0.33762-0.42203 0.78376-0.13263 0.43408-0.13263 0.91639 0 1.0732 0.60289 1.6881 0.61495 0.61495 1.7122 0.61495 0.59083 0 1.0249-0.18086 0.43408-0.19293 0.71141-0.51849 0.28939-0.33762 0.42203-0.7717 0.14469-0.43408 0.14469-0.90434zm1.0008 8.5972q0-0.69935-0.57878-1.0731-0.56671-0.38585-1.5434-0.40997l-2.8095-0.0965q-0.38585 0.30145-0.63906 0.57878-0.24116 0.26527-0.38585 0.50642-0.1447 0.25322-0.20498 0.49437-0.0482 0.24116-0.0482 0.49437 0 0.78376 0.79582 1.1817 0.79582 0.40997 2.2186 0.40997 0.90433 0 1.5072-0.18087 0.61495-0.16881 0.98874-0.4582 0.3738-0.28939 0.53055-0.66318 0.16881-0.37379 0.16881-0.78376z"/>
   <path d="m164.29 145.22q0 0.0965-0.0482 0.16881-0.0482 0.0603-0.15675 0.10852-0.10853 0.0482-0.30145 0.0724-0.19293 0.0241-0.48231 0.0241-0.30145 0-0.49437-0.0241-0.19293-0.0241-0.30145-0.0724-0.10852-0.0482-0.15675-0.10852-0.0482-0.0723-0.0482-0.16881v-6.3545q0-0.92846-0.14469-1.4952-0.1447-0.56672-0.42203-0.97669-0.27733-0.40996-0.72347-0.627-0.43408-0.21704-1.0128-0.21704-0.74759 0-1.4952 0.53054-0.74759 0.53054-1.5675 1.5555v7.5844q0 0.0965-0.0482 0.16881-0.0482 0.0603-0.15675 0.10852-0.10852 0.0482-0.30145 0.0724-0.19292 0.0241-0.49437 0.0241-0.28938 0-0.48231-0.0241-0.19292-0.0241-0.3135-0.0724-0.10852-0.0482-0.15675-0.10852-0.0362-0.0723-0.0362-0.16881v-16.109q0-0.0965 0.0362-0.1688 0.0482-0.0724 0.15675-0.12058 0.12058-0.0482 0.3135-0.0724 0.19293-0.0241 0.48231-0.0241 0.30145 0 0.49437 0.0241 0.19293 0.0241 0.30145 0.0724 0.10852 0.0482 0.15675 0.12058 0.0482 0.0723 0.0482 0.1688v6.4992q0.85611-0.90434 1.7243-1.3384 0.86816-0.44614 1.7484-0.44614 1.0852 0 1.8207 0.37379 0.74759 0.36174 1.2058 0.97668 0.4582 0.61495 0.65113 1.4469 0.20498 0.81993 0.20498 1.9895z"/>
   <path d="m173.34 144.42q0 0.34967-0.0482 0.55466-0.0482 0.20498-0.1447 0.30144-0.0965 0.0965-0.28938 0.18087-0.19293 0.0844-0.44614 0.13264-0.24116 0.0603-0.51849 0.0965t-0.55466 0.0362q-0.84404 0-1.4469-0.21704-0.60289-0.2291-0.98874-0.67524-0.38585-0.45819-0.56671-1.1455-0.16881-0.69935-0.16881-1.6399v-6.3424h-1.5193q-0.18086 0-0.28938-0.19293-0.10852-0.19292-0.10852-0.627 0-0.2291 0.0241-0.38585 0.0362-0.15675 0.0844-0.25322 0.0482-0.10852 0.12057-0.14469 0.0844-0.0482 0.18087-0.0482h1.5072v-2.5804q0-0.0844 0.0362-0.15676 0.0482-0.0723 0.15675-0.12057 0.12058-0.0603 0.31351-0.0844 0.19292-0.0241 0.48231-0.0241 0.30144 0 0.49437 0.0241 0.19292 0.0241 0.30144 0.0844 0.10852 0.0482 0.15676 0.12057 0.0482 0.0724 0.0482 0.15676v2.5804h2.7854q0.0965 0 0.16881 0.0482 0.0724 0.0362 0.12058 0.14469 0.0603 0.0965 0.0844 0.25322 0.0241 0.15675 0.0241 0.38585 0 0.43408-0.10852 0.627-0.10852 0.19293-0.28939 0.19293h-2.7854v6.053q0 1.1214 0.32556 1.7002 0.33762 0.56672 1.1937 0.56672 0.27733 0 0.49437-0.0482 0.21704-0.0603 0.38585-0.12058 0.16881-0.0603 0.28939-0.10852 0.12058-0.0603 0.21704-0.0603 0.0603 0 0.10852 0.0362 0.0603 0.0241 0.0844 0.10852 0.0362 0.0844 0.0603 0.2291t0.0241 0.36174z"/>
  </g>
  <g aria-label="Sign In">
   <path d="m275.53 140.84q0 1.2299-0.4582 2.1584-0.4582 0.92845-1.242 1.5554-0.78376 0.61495-1.8328 0.92845-1.049 0.31351-2.2428 0.31351-0.80788 0-1.5072-0.13264-0.6873-0.13263-1.2178-0.3135-0.53054-0.19293-0.89228-0.39791-0.34968-0.20498-0.50643-0.36173t-0.2291-0.44614q-0.0603-0.30145-0.0603-0.85611 0-0.37379 0.0241-0.627 0.0241-0.25322 0.0724-0.40997 0.0603-0.15675 0.14469-0.21704 0.0965-0.0724 0.21704-0.0724 0.16881 0 0.47026 0.20499 0.3135 0.19292 0.79581 0.43408 0.48232 0.24115 1.1455 0.44614 0.67523 0.19292 1.5554 0.19292 0.57878 0 1.037-0.13263 0.4582-0.1447 0.7717-0.39791 0.32557-0.25322 0.49438-0.62701 0.1688-0.37379 0.1688-0.83199 0-0.53054-0.28938-0.90433-0.28939-0.38585-0.75965-0.67524-0.45819-0.30145-1.049-0.55466-0.59084-0.26527-1.2178-0.55466-0.62701-0.28939-1.2178-0.65112-0.59084-0.37379-1.0611-0.88022-0.4582-0.51849-0.74758-1.2178-0.28939-0.69935-0.28939-1.676 0-1.1214 0.40996-1.9654 0.42203-0.85611 1.1214-1.4108 0.71141-0.56672 1.664-0.84405 0.96462-0.27733 2.0378-0.27733 0.55466 0 1.1093 0.0844t1.037 0.2291 0.8561 0.32556q0.3738 0.18087 0.49437 0.30145 0.12058 0.12058 0.15676 0.20498 0.0482 0.0844 0.0723 0.2291 0.0362 0.13264 0.0482 0.34968 0.0121 0.20498 0.0121 0.51848 0 0.34968-0.0241 0.59083-0.0121 0.24116-0.0603 0.39791-0.0362 0.15675-0.12058 0.2291-0.0724 0.0724-0.20498 0.0724-0.13264 0-0.42203-0.16881-0.28938-0.16881-0.71141-0.36174-0.42202-0.20498-0.97668-0.36173-0.55466-0.16881-1.2178-0.16881-0.51849 0-0.90434 0.13264-0.38585 0.12057-0.65112 0.34967-0.25321 0.21704-0.38585 0.53055-0.12058 0.3135-0.12058 0.66318 0 0.51848 0.27733 0.90433 0.28939 0.37379 0.75965 0.67524 0.48231 0.28939 1.0852 0.55466 0.60289 0.25321 1.2299 0.5426 0.627 0.28939 1.2299 0.66318 0.60289 0.36173 1.0732 0.88022 0.47025 0.50643 0.75964 1.2058 0.28939 0.6873 0.28939 1.6278z"/>
   <path d="m280.81 145.11q0 0.12058-0.0723 0.21704-0.0723 0.0844-0.25321 0.1447-0.16881 0.0603-0.4582 0.0844-0.28939 0.0362-0.73552 0.0362-0.44614 0-0.73553-0.0362-0.28939-0.0241-0.47026-0.0844-0.16881-0.0603-0.24115-0.1447-0.0724-0.0965-0.0724-0.21704v-10.731q0-0.12058 0.0724-0.20498 0.0723-0.0965 0.24115-0.15676 0.18087-0.0723 0.47026-0.10852 0.28939-0.0362 0.73553-0.0362 0.44613 0 0.73552 0.0362t0.4582 0.10852q0.18087 0.0603 0.25321 0.15676 0.0723 0.0844 0.0723 0.20498zm0.2291-14.397q0 0.9164-0.37379 1.2661-0.3738 0.34968-1.3866 0.34968-1.0249 0-1.3866-0.33762-0.34968-0.33762-0.34968-1.2178 0-0.91639 0.36174-1.2661 0.37379-0.36173 1.3987-0.36173 1.0129 0 1.3746 0.34967 0.36174 0.33762 0.36174 1.2178z"/>
   <path d="m293.53 135.1q0 0.57877-0.13263 0.8561-0.13264 0.27733-0.32557 0.27733h-1.2661q0.26528 0.28939 0.3738 0.66318 0.12057 0.36174 0.12057 0.75964 0 0.94051-0.3135 1.676-0.3135 0.72347-0.90434 1.2299-0.57877 0.49437-1.4108 0.75964-0.81993 0.25321-1.8328 0.25321-0.51848 0-0.98874-0.12057-0.47025-0.13264-0.72347-0.30145-0.14469 0.15675-0.26527 0.37379-0.10852 0.21704-0.10852 0.48231 0 0.34968 0.30145 0.57878 0.3135 0.21704 0.86816 0.24116l2.6165 0.0965q0.9164 0.0362 1.6278 0.26527 0.72347 0.21704 1.2058 0.62701 0.49437 0.3979 0.74759 0.96462 0.26527 0.56672 0.26527 1.2902 0 0.79581-0.34968 1.4952-0.34968 0.71141-1.049 1.2299-0.69935 0.51849-1.7604 0.81993-1.049 0.30145-2.4598 0.30145-1.3746 0-2.3513-0.21704-0.96462-0.21704-1.5916-0.60289-0.61495-0.38585-0.90433-0.92845-0.27733-0.53055-0.27733-1.1696 0-0.39791 0.0965-0.75964 0.10852-0.36174 0.30144-0.69936 0.20499-0.32556 0.49437-0.627 0.28939-0.30145 0.66318-0.57878-0.51848-0.27733-0.80787-0.74758-0.27733-0.48231-0.27733-1.049 0-0.71141 0.32556-1.2902 0.32556-0.59083 0.84405-1.0611-0.42202-0.42202-0.67524-1.0128-0.25321-0.59083-0.25321-1.471 0-0.94051 0.32556-1.676 0.33762-0.74758 0.92845-1.254 0.59083-0.51849 1.4108-0.78376 0.81993-0.27733 1.8087-0.27733 0.50642 0 0.96462 0.0603 0.47026 0.0603 0.86816 0.16881h3.4124q0.20499 0 0.32557 0.26527 0.13263 0.26527 0.13263 0.89228zm-3.8947 2.5442q0-0.86817-0.48232-1.3505-0.48231-0.48231-1.3625-0.48231-0.44614 0-0.78376 0.15675-0.33761 0.14469-0.56671 0.40997-0.21704 0.25321-0.32556 0.60289-0.10852 0.33762-0.10852 0.71141 0 0.81993 0.48231 1.3022 0.48231 0.47026 1.3384 0.47026 0.45819 0 0.79581-0.1447 0.33762-0.14469 0.55466-0.39791 0.2291-0.25321 0.33762-0.57877 0.12058-0.33762 0.12058-0.69935zm0.71141 8.5852q0-0.5426-0.43408-0.83199t-1.1937-0.3135l-2.1583-0.0603q-0.31351 0.2291-0.50643 0.44614-0.18087 0.20498-0.30145 0.3979-0.10852 0.19293-0.14469 0.3738-0.0362 0.18086-0.0362 0.37379 0 0.60289 0.6029 0.91639 0.61494 0.31351 1.7243 0.31351 0.6873 0 1.1576-0.1447 0.47026-0.13263 0.75964-0.36173 0.28939-0.2291 0.40997-0.51849 0.12058-0.27733 0.12058-0.59083z"/>
   <path d="m305.82 145.11q0 0.12058-0.0723 0.21704-0.0723 0.0844-0.24116 0.1447-0.16881 0.0603-0.47025 0.0844-0.28939 0.0362-0.72347 0.0362-0.44614 0-0.74759-0.0362-0.28939-0.0241-0.45819-0.0844-0.16881-0.0603-0.24116-0.1447-0.0723-0.0965-0.0723-0.21704v-6.1374q0-0.78376-0.12058-1.2299-0.10852-0.44614-0.32556-0.75964-0.21704-0.32556-0.56671-0.49437-0.33762-0.18087-0.79582-0.18087-0.57877 0-1.1696 0.42202-0.59083 0.42203-1.2299 1.2299v7.1503q0 0.12058-0.0724 0.21704-0.0723 0.0844-0.25322 0.1447-0.1688 0.0603-0.45819 0.0844-0.28939 0.0362-0.73553 0.0362t-0.73553-0.0362q-0.28938-0.0241-0.47025-0.0844-0.16881-0.0603-0.24116-0.1447-0.0723-0.0965-0.0723-0.21704v-10.756q0-0.12057 0.0603-0.20498 0.0603-0.0965 0.21704-0.15675 0.15675-0.0603 0.3979-0.0844 0.25322-0.0362 0.62701-0.0362 0.38585 0 0.63906 0.0362 0.25322 0.0241 0.38585 0.0844 0.1447 0.0603 0.20499 0.15675 0.0603 0.0844 0.0603 0.20498v1.242q0.89227-0.96463 1.8087-1.4469 0.92845-0.48231 1.9292-0.48231 1.0973 0 1.8448 0.36173 0.75965 0.36174 1.2178 0.98874 0.47026 0.61495 0.67524 1.4469t0.20498 2.0016z"/>
   <path d="m317.75 145.09q0 0.12058-0.0844 0.21704-0.0723 0.0965-0.25322 0.15675-0.18086 0.0603-0.48231 0.0965t-0.7717 0.0362q-0.4582 0-0.7717-0.0362-0.30145-0.0362-0.48231-0.0965-0.18087-0.0603-0.26527-0.15675-0.0724-0.0965-0.0724-0.21704v-14.735q0-0.12058 0.0724-0.21704 0.0844-0.0965 0.26527-0.15675 0.19292-0.0603 0.49437-0.0965 0.30144-0.0362 0.75964-0.0362 0.47025 0 0.7717 0.0362t0.48231 0.0965q0.18087 0.0603 0.25322 0.15675 0.0844 0.0965 0.0844 0.21704z"/>
   <path d="m331.24 145.11q0 0.12058-0.0723 0.21704-0.0723 0.0844-0.24116 0.1447-0.16881 0.0603-0.47025 0.0844-0.28939 0.0362-0.72347 0.0362-0.44614 0-0.74759-0.0362-0.28939-0.0241-0.45819-0.0844-0.16881-0.0603-0.24116-0.1447-0.0723-0.0965-0.0723-0.21704v-6.1374q0-0.78376-0.12058-1.2299-0.10852-0.44614-0.32556-0.75964-0.21704-0.32556-0.56671-0.49437-0.33762-0.18087-0.79582-0.18087-0.57877 0-1.1696 0.42202-0.59083 0.42203-1.2299 1.2299v7.1503q0 0.12058-0.0724 0.21704-0.0723 0.0844-0.25322 0.1447-0.1688 0.0603-0.45819 0.0844-0.28939 0.0362-0.73553 0.0362t-0.73553-0.0362q-0.28938-0.0241-0.47025-0.0844-0.16881-0.0603-0.24116-0.1447-0.0723-0.0965-0.0723-0.21704v-10.756q0-0.12057 0.0603-0.20498 0.0603-0.0965 0.21704-0.15675 0.15675-0.0603 0.3979-0.0844 0.25322-0.0362 0.62701-0.0362 0.38585 0 0.63906 0.0362 0.25322 0.0241 0.38585 0.0844 0.1447 0.0603 0.20499 0.15675 0.0603 0.0844 0.0603 0.20498v1.242q0.89227-0.96463 1.8087-1.4469 0.92845-0.48231 1.9292-0.48231 1.0973 0 1.8448 0.36173 0.75965 0.36174 1.2178 0.98874 0.47026 0.61495 0.67524 1.4469t0.20498 2.0016z"/>
  </g>
  <g aria-label="Place Order">
   <path d="m421.76 134.49q0 1.1696-0.38585 2.1101t-1.1093 1.6037q-0.71141 0.66318-1.7604 1.0249-1.037 0.36173-2.4839 0.36173h-1.7725v5.619q0 0.0965-0.0603 0.1688-0.0482 0.0724-0.16881 0.12058-0.10852 0.0362-0.31351 0.0603-0.19292 0.0362-0.49437 0.0362-0.30144 0-0.50643-0.0362-0.19292-0.0241-0.3135-0.0603-0.12058-0.0482-0.16881-0.12058-0.0482-0.0723-0.0482-0.1688v-14.397q0-0.48232 0.25321-0.6873 0.25322-0.20498 0.56672-0.20498h3.34q0.50642 0 0.96462 0.0482 0.47026 0.0362 1.0973 0.18087 0.63907 0.13263 1.2902 0.51848 0.66318 0.37379 1.1214 0.92845 0.4582 0.55466 0.69936 1.2902 0.25321 0.72347 0.25321 1.6037zm-2.1825 0.16881q0-0.95257-0.36174-1.5916-0.34967-0.63907-0.88022-0.95257-0.51848-0.3135-1.0852-0.39791-0.55466-0.0844-1.0852-0.0844h-1.9172v6.258h1.869q0.9405 0 1.5554-0.24115 0.62701-0.24116 1.049-0.66318 0.42203-0.43408 0.63907-1.0249 0.21704-0.60289 0.21704-1.3022z"/>
   <path d="m426.7 145.22q0 0.0965-0.0482 0.16881-0.0482 0.0603-0.15676 0.10852-0.10852 0.0482-0.30144 0.0724-0.19293 0.0241-0.49437 0.0241-0.28939 0-0.48231-0.0241-0.19293-0.0241-0.31351-0.0724-0.10852-0.0482-0.15675-0.10852-0.0362-0.0723-0.0362-0.16881v-16.109q0-0.0965 0.0362-0.1688 0.0482-0.0724 0.15675-0.12058 0.12058-0.0482 0.31351-0.0724 0.19292-0.0241 0.48231-0.0241 0.30144 0 0.49437 0.0241 0.19292 0.0241 0.30144 0.0724 0.10852 0.0482 0.15676 0.12058 0.0482 0.0723 0.0482 0.1688z"/>
   <path d="m438.55 145.23q0 0.14469-0.0965 0.21704-0.0965 0.0724-0.26527 0.10852-0.16881 0.0362-0.49437 0.0362-0.3135 0-0.50643-0.0362-0.18086-0.0362-0.26527-0.10852-0.0844-0.0724-0.0844-0.21704v-1.0852q-0.71141 0.75964-1.5916 1.1817-0.86817 0.42203-1.8448 0.42203-0.8561 0-1.5555-0.2291-0.68729-0.21704-1.1817-0.63907-0.48232-0.42202-0.75965-1.037-0.26527-0.61495-0.26527-1.3987 0-0.9164 0.37379-1.5916 0.3738-0.67523 1.0732-1.1214t1.7122-0.66318q1.0129-0.2291 2.2789-0.2291h1.4952v-0.84405q0-0.627-0.13264-1.1093-0.13264-0.48231-0.43408-0.79581-0.28939-0.32556-0.75964-0.48231-0.47026-0.16881-1.1576-0.16881-0.73553 0-1.3264 0.18086-0.57878 0.16881-1.0249 0.38585-0.43408 0.20499-0.73552 0.38585-0.28939 0.16881-0.43409 0.16881-0.0965 0-0.16881-0.0482-0.0723-0.0482-0.13263-0.14469-0.0482-0.0965-0.0723-0.24116-0.0241-0.15675-0.0241-0.33762 0-0.30144 0.0362-0.47025 0.0482-0.18087 0.20498-0.33762 0.16881-0.15675 0.56672-0.36173 0.39791-0.21705 0.91639-0.38585 0.51849-0.18087 1.1334-0.28939 0.61495-0.12058 1.242-0.12058 1.1696 0 1.9895 0.26527t1.3264 0.78376q0.50643 0.50643 0.73553 1.2661t0.2291 1.7725zm-1.9775-4.9558h-1.7002q-0.81993 0-1.4228 0.14469-0.60289 0.13264-1.0008 0.40997-0.3979 0.26527-0.59083 0.65112-0.18087 0.37379-0.18087 0.86816 0 0.84405 0.53055 1.3505 0.5426 0.49437 1.5072 0.49437 0.78376 0 1.4469-0.39791 0.67524-0.39791 1.4108-1.2178z"/>
   <path d="m450 143.57q0 0.20499-0.0121 0.36174-0.0121 0.14469-0.0482 0.25321-0.0241 0.0965-0.0724 0.18087-0.0362 0.0724-0.19292 0.2291-0.1447 0.14469-0.50643 0.37379-0.36173 0.21704-0.81993 0.39791-0.44614 0.16881-0.97668 0.27733-0.53055 0.10852-1.0973 0.10852-1.1696 0-2.0739-0.38585t-1.5193-1.1214q-0.60289-0.74758-0.92846-1.8207-0.3135-1.0852-0.3135-2.496 0-1.6037 0.38585-2.7492 0.39791-1.1576 1.0732-1.8931 0.68729-0.73553 1.6037-1.0852 0.92845-0.36173 2.0016-0.36173 0.51849 0 1.0008 0.0965 0.49437 0.0965 0.90434 0.25321 0.40996 0.15676 0.72347 0.36174 0.32556 0.20498 0.47025 0.34968 0.14469 0.14469 0.19293 0.22909 0.0603 0.0844 0.0965 0.20499 0.0362 0.10852 0.0482 0.25321 0.0121 0.14469 0.0121 0.36173 0 0.47026-0.10852 0.66318-0.10852 0.18087-0.26527 0.18087-0.18087 0-0.42203-0.19292-0.2291-0.20499-0.59083-0.44614-0.36174-0.24116-0.88022-0.43408-0.50643-0.20499-1.2058-0.20499-1.4349 0-2.2066 1.1093-0.75964 1.0973-0.75964 3.1953 0 1.049 0.19292 1.8448 0.20498 0.78376 0.59083 1.3143t0.94051 0.79582q0.56672 0.25321 1.2902 0.25321 0.68729 0 1.2058-0.21704t0.89228-0.47026q0.38585-0.26527 0.63906-0.47025 0.26527-0.21704 0.40997-0.21704 0.0844 0 0.14469 0.0482 0.0603 0.0482 0.0965 0.16881 0.0482 0.10852 0.0603 0.28939 0.0241 0.16881 0.0241 0.40996z"/>
   <path d="m461.9 139.32q0 0.47026-0.24116 0.67524-0.22909 0.19292-0.53054 0.19292h-7.1141q0 0.90434 0.18087 1.6278 0.18086 0.72347 0.60289 1.242 0.42202 0.51849 1.0973 0.79582t1.6519 0.27733q0.7717 0 1.3746-0.12058 0.60289-0.13263 1.037-0.28939 0.44614-0.15675 0.72347-0.27733 0.28939-0.13263 0.43408-0.13263 0.0844 0 0.1447 0.0482 0.0723 0.0362 0.10852 0.12058 0.0362 0.0844 0.0482 0.24115 0.0241 0.1447 0.0241 0.36174 0 0.15675-0.012 0.27733-0.0121 0.10852-0.0362 0.20498-0.0121 0.0844-0.0603 0.15675-0.0362 0.0724-0.10852 0.1447-0.0603 0.0603-0.38585 0.21704-0.32556 0.14469-0.84404 0.28938-0.51849 0.1447-1.2058 0.25322-0.67523 0.12058-1.4469 0.12058-1.3384 0-2.3513-0.3738-1.0008-0.37379-1.6881-1.1093-0.6873-0.73553-1.037-1.8448-0.34968-1.1093-0.34968-2.5804 0-1.3987 0.36174-2.508 0.36173-1.1214 1.037-1.8931 0.68729-0.78376 1.6519-1.1937 0.96462-0.42202 2.1584-0.42202 1.2781 0 2.1704 0.40997 0.90434 0.40996 1.4831 1.1093 0.57878 0.6873 0.84405 1.6278 0.27733 0.92845 0.27733 1.9895zm-2.0016-0.59083q0.0362-1.5675-0.69935-2.4598-0.72347-0.89228-2.1584-0.89228-0.73553 0-1.2902 0.27733-0.55466 0.27733-0.92846 0.73552-0.37379 0.4582-0.57877 1.0732-0.20498 0.60289-0.2291 1.2661z"/>
   <path d="m483.81 137.54q0 1.8931-0.44614 3.4124-0.44614 1.5193-1.3384 2.5924-0.88022 1.0611-2.2186 1.6399-1.3384 0.56672-3.123 0.56672-1.7604 0-3.0506-0.51849-1.2781-0.53054-2.1222-1.5313-0.83199-1.0008-1.242-2.4839-0.40996-1.4831-0.40996-3.4124 0-1.8448 0.44614-3.3521 0.44613-1.5072 1.3384-2.5563 0.89228-1.0611 2.2307-1.6278 1.3384-0.57877 3.123-0.57877 1.7243 0 3.0024 0.51849 1.2781 0.51848 2.1222 1.5193 0.85611 0.98874 1.2661 2.4598 0.42203 1.459 0.42203 3.3521zm-2.1825 0.14469q0-1.3264-0.24115-2.4598-0.2291-1.1455-0.78376-1.9775-0.5426-0.84404-1.459-1.3143-0.91639-0.47025-2.2669-0.47025-1.3505 0-2.2669 0.50643-0.91639 0.50642-1.4952 1.3505-0.56672 0.84405-0.81994 1.9775-0.24115 1.1214-0.24115 2.3633 0 1.3746 0.2291 2.5321t0.7717 2.0016q0.5426 0.83199 1.4469 1.3022 0.9164 0.45819 2.291 0.45819 1.3625 0 2.291-0.50643 0.92845-0.50642 1.4952-1.3625 0.56672-0.86816 0.80788-2.0016 0.24115-1.1334 0.24115-2.3995z"/>
   <path d="m493.21 135.08q0 0.26527-0.012 0.44614-0.0121 0.18087-0.0482 0.28939-0.0362 0.0965-0.0965 0.15675-0.0482 0.0482-0.14469 0.0482-0.0965 0-0.24116-0.0482-0.13263-0.0603-0.3135-0.10852-0.16881-0.0603-0.38585-0.10852-0.21704-0.0482-0.47026-0.0482-0.30144 0-0.59083 0.12058-0.28939 0.12057-0.61495 0.3979-0.3135 0.27733-0.66318 0.73553-0.34967 0.4582-0.7717 1.1214v7.1382q0 0.0965-0.0482 0.16881-0.0482 0.0603-0.15675 0.10852-0.10852 0.0482-0.30145 0.0724-0.19292 0.0241-0.49437 0.0241-0.28938 0-0.48231-0.0241-0.19292-0.0241-0.3135-0.0724-0.10852-0.0482-0.15675-0.10852-0.0362-0.0723-0.0362-0.16881v-10.852q0-0.0965 0.0362-0.15675 0.0362-0.0724 0.14469-0.12058 0.10852-0.0603 0.27733-0.0724 0.16881-0.0241 0.44614-0.0241 0.26527 0 0.43408 0.0241 0.18087 0.0121 0.27733 0.0724 0.0965 0.0482 0.13264 0.12058 0.0482 0.0603 0.0482 0.15675v1.5796q0.44614-0.65112 0.83199-1.0611 0.3979-0.40997 0.74758-0.63907 0.34968-0.24115 0.6873-0.32556 0.34967-0.0965 0.69935-0.0965 0.15675 0 0.34968 0.0241 0.20498 0.012 0.42202 0.0603 0.21704 0.0482 0.38585 0.10852 0.18087 0.0603 0.25321 0.12058 0.0724 0.0603 0.0965 0.12058 0.0241 0.0482 0.0362 0.13264 0.0241 0.0844 0.0241 0.25321 0.012 0.15675 0.012 0.43408z"/>
   <path d="m504.43 145.22q0 0.0965-0.0482 0.16881-0.0362 0.0724-0.1447 0.12058-0.0965 0.0362-0.26527 0.0603-0.16881 0.0241-0.40997 0.0241-0.25321 0-0.42202-0.0241t-0.27733-0.0603q-0.10852-0.0482-0.15675-0.12058-0.0482-0.0723-0.0482-0.16881v-1.4349q-0.85611 0.92845-1.7846 1.4469-0.91639 0.51849-2.0136 0.51849-1.1937 0-2.0378-0.4582-0.84405-0.47025-1.3746-1.254-0.51849-0.79582-0.75965-1.8569-0.24115-1.0731-0.24115-2.2548 0-1.3987 0.30144-2.5201 0.30145-1.1334 0.89228-1.9292t1.459-1.2178q0.88022-0.43408 2.0257-0.43408 0.95257 0 1.7363 0.42202 0.79582 0.40997 1.5675 1.2178v-6.3062q0-0.0844 0.0362-0.15676 0.0482-0.0844 0.16881-0.12057 0.12058-0.0482 0.30145-0.0724 0.19292-0.0362 0.48231-0.0362 0.30145 0 0.49437 0.0362 0.19293 0.0241 0.30145 0.0724 0.10852 0.0362 0.15675 0.12057 0.0603 0.0724 0.0603 0.15676zm-2.0016-7.6326q-0.80787-1.0008-1.5675-1.5193-0.74758-0.53054-1.5675-0.53054-0.75964 0-1.2902 0.36173-0.53054 0.36174-0.86816 0.95257-0.32556 0.59083-0.48231 1.3384-0.1447 0.74758-0.1447 1.5193 0 0.81993 0.12058 1.6037 0.13264 0.78376 0.44614 1.3987 0.3135 0.60289 0.83199 0.97668 0.51849 0.36174 1.3022 0.36174 0.39791 0 0.75965-0.10853 0.37379-0.10852 0.75964-0.36173t0.80787-0.65112q0.42203-0.40997 0.89228-1.0008z"/>
   <path d="m517.37 139.32q0 0.47026-0.24116 0.67524-0.2291 0.19292-0.53054 0.19292h-7.1141q0 0.90434 0.18087 1.6278 0.18086 0.72347 0.60289 1.242 0.42202 0.51849 1.0973 0.79582t1.6519 0.27733q0.7717 0 1.3746-0.12058 0.60289-0.13263 1.037-0.28939 0.44614-0.15675 0.72347-0.27733 0.28939-0.13263 0.43408-0.13263 0.0844 0 0.14469 0.0482 0.0723 0.0362 0.10852 0.12058 0.0362 0.0844 0.0482 0.24115 0.0241 0.1447 0.0241 0.36174 0 0.15675-0.0121 0.27733-0.0121 0.10852-0.0362 0.20498-0.0121 0.0844-0.0603 0.15675-0.0362 0.0724-0.10852 0.1447-0.0603 0.0603-0.38585 0.21704-0.32556 0.14469-0.84405 0.28938-0.51848 0.1447-1.2058 0.25322-0.67523 0.12058-1.4469 0.12058-1.3384 0-2.3513-0.3738-1.0008-0.37379-1.6881-1.1093-0.6873-0.73553-1.037-1.8448-0.34968-1.1093-0.34968-2.5804 0-1.3987 0.36173-2.508 0.36174-1.1214 1.037-1.8931 0.68729-0.78376 1.6519-1.1937 0.96462-0.42202 2.1583-0.42202 1.2781 0 2.1704 0.40997 0.90434 0.40996 1.4831 1.1093 0.57878 0.6873 0.84405 1.6278 0.27733 0.92845 0.27733 1.9895zm-2.0016-0.59083q0.0362-1.5675-0.69935-2.4598-0.72347-0.89228-2.1584-0.89228-0.73553 0-1.2902 0.27733t-0.92845 0.73552q-0.37379 0.4582-0.57877 1.0732-0.20499 0.60289-0.2291 1.2661z"/>
   <path d="m526.74 135.08q0 0.26527-0.0121 0.44614t-0.0482 0.28939q-0.0362 0.0965-0.0965 0.15675-0.0482 0.0482-0.1447 0.0482t-0.24115-0.0482q-0.13264-0.0603-0.31351-0.10852-0.16881-0.0603-0.38585-0.10852-0.21704-0.0482-0.47025-0.0482-0.30145 0-0.59083 0.12058-0.28939 0.12057-0.61495 0.3979-0.3135 0.27733-0.66318 0.73553t-0.7717 1.1214v7.1382q0 0.0965-0.0482 0.16881-0.0482 0.0603-0.15675 0.10852-0.10852 0.0482-0.30145 0.0724-0.19292 0.0241-0.49437 0.0241-0.28939 0-0.48231-0.0241-0.19293-0.0241-0.31351-0.0724-0.10852-0.0482-0.15675-0.10852-0.0362-0.0723-0.0362-0.16881v-10.852q0-0.0965 0.0362-0.15675 0.0362-0.0724 0.1447-0.12058 0.10852-0.0603 0.27733-0.0724 0.16881-0.0241 0.44614-0.0241 0.26527 0 0.43408 0.0241 0.18086 0.0121 0.27733 0.0724 0.0965 0.0482 0.13263 0.12058 0.0482 0.0603 0.0482 0.15675v1.5796q0.44614-0.65112 0.83199-1.0611 0.39791-0.40997 0.74759-0.63907 0.34967-0.24115 0.68729-0.32556 0.34968-0.0965 0.69936-0.0965 0.15675 0 0.34967 0.0241 0.20498 0.012 0.42203 0.0603 0.21704 0.0482 0.38585 0.10852 0.18086 0.0603 0.25321 0.12058 0.0724 0.0603 0.0965 0.12058 0.0241 0.0482 0.0362 0.13264 0.0241 0.0844 0.0241 0.25321 0.0121 0.15675 0.0121 0.43408z"/>
  </g>
 </g>
 <path d="m235.39 32.474h13.229l19.844 39.688h52.917l13.229-26.458-79.375 1e-5" fill="none" stroke="#000" stroke-linecap="round" stroke-linejoin="round" stroke-width="5.325"/>
 <path d="m259.23 52.917h71.503l-2.7962 6.3913h-65.511l2.7962 6.3913h58.72" fill="none" stroke="#000" stroke-width="1.3229px"/>
 <circle cx="283.29" cy="80.774" r="6.6146" stroke-opacity="0"/>
 <circle cx="307.53" cy="80.95" r="6.6146" stroke-opacity="0"/>
</svg>
