<?xml version="1.0" encoding="UTF-8"?>
<!-- Created with Inkscape (http://www.inkscape.org/) -->
<svg width="1200" height="800" version="1.1" viewBox="0 0 317.5 211.67" xmlns="http://www.w3.org/2000/svg">
 <g transform="matrix(3 0 0 3 -237.89 -241.34)" fill="#7d9ef6" fill-rule="evenodd" stroke-opacity="0">
  <path d="m137.19 132.93-0.41774-17.8 18.544-6.6688-2.7613 18.944z" fill="#e9e9ff" opacity=".2"/>
  <path d="m147.6 148.46 17.926-6.4465-12.968-14.617-15.365 5.5255z" fill="#353564" opacity=".2"/>
  <path d="m165.52 142.02 6.5787-19.236-16.786-14.324-2.7613 18.944z" fill="#afafde" opacity=".2"/>
  <g>
   <path d="m147.6 148.46 2.0971-17.624-12.923-15.714 0.41774 17.8z" fill="#824675" opacity=".2"/>
   <path d="m149.69 130.84 22.408-8.0581-16.786-14.324-18.544 6.6688z" fill="#b46cbb" opacity=".2"/>
   <path d="m147.6 148.46 2.0971-17.624 22.408-8.0581-6.5787 19.236z" fill="#ca71b4" opacity=".2"/>
   <path d="m94.284 125.88-15.459-14.75 10.077-21.394 13.731 18.417z" fill="#e9e9ff" opacity=".2"/>
   <path d="m116.3 130.23 9.7408-20.681-23.407-1.3985-8.3492 17.726z" fill="#353564" opacity=".2"/>
   <path d="m126.04 109.55-10.74-21.905-26.398 2.0888 13.731 18.417z" fill="#afafde" opacity=".2"/>
   <path d="m116.3 130.23-13.175-16.734-24.299-2.3683 15.459 14.75z" fill="#824675" opacity=".2"/>
   <path d="m103.12 113.5 12.176-25.851-26.398 2.0888-10.077 21.394z" fill="#b46cbb" opacity=".2"/>
   <path d="m116.3 130.23-13.175-16.734 12.176-25.851 10.74 21.905z" fill="#ca71b4" opacity=".2"/>
  </g>
 </g>
</svg>
