<?xml version="1.0" encoding="UTF-8"?>
<!-- Created with Inkscape (http://www.inkscape.org/) -->
<svg width="1200" height="800" version="1.1" viewBox="0 0 317.5 211.67" xmlns="http://www.w3.org/2000/svg">
 <g transform="matrix(3 0 0 3 -237.89 -241.34)" fill="#7d9ef6" fill-rule="evenodd" stroke-opacity="0">
  <path d="m133.81 111.84 17.8-0.41774 6.6688 18.544-18.944-2.7613z" fill="#e9e9ff" opacity=".2"/>
  <path d="m140.82 134.17 6.4465 17.926 14.617-12.968-5.5255-15.365z" fill="#353564" opacity=".2"/>
  <path d="m145.55 128.43 19.236 6.5787 14.324-16.786-18.944-2.7613z" fill="#afafde" opacity=".2"/>
  <g>
   <path d="m126.56 136.16 17.624 2.0971 15.714-12.922-17.8 0.41774z" fill="#824675" opacity=".2"/>
   <path d="m143.24 114.91 8.0581 22.408 14.324-16.786-6.6688-18.544z" fill="#b46cbb" opacity=".2"/>
   <path d="m147.01 123.37 17.624 2.0971 8.0581 22.408-19.236-6.5787z" fill="#ca71b4" opacity=".2"/>
   <path d="m72.657 111.36 14.75-15.459 21.394 10.077-18.417 13.731z" fill="#e9e9ff" opacity=".2"/>
   <path d="m99.122 125.33 20.681 9.7408 1.3985-23.407-17.726-8.3492z" fill="#353564" opacity=".2"/>
   <path d="m96.519 117.17 21.905-10.74-2.0888-26.398-18.417 13.731z" fill="#afafde" opacity=".2"/>
   <path d="m88.011 139.42 16.734-13.175 2.3683-24.299-14.75 15.459z" fill="#824675" opacity=".2"/>
   <path d="m84.137 106.63 25.851 12.176-2.0888-26.398-21.394-10.077z" fill="#b46cbb" opacity=".2"/>
   <path d="m93.289 110.66 16.734-13.175 25.851 12.176-21.905 10.74z" fill="#ca71b4" opacity=".2"/>
  </g>
 </g>
</svg>
