<?xml version="1.0" encoding="UTF-8"?>
<!-- Created with Inkscape (http://www.inkscape.org/) -->
<svg width="281.99" height="149.64" version="1.1" viewBox="0 0 74.609 39.593" xmlns="http://www.w3.org/2000/svg">
 <defs>
  <filter id="filter10682" x="0" y="0" width="1" height="1" color-interpolation-filters="sRGB">
   <feComponentTransfer result="component">
    <feFuncR amplitude="1.2" type="gamma"/>
    <feFuncG amplitude="1.2" type="gamma"/>
    <feFuncB amplitude="1.2" type="gamma"/>
   </feComponentTransfer>
  </filter>
 </defs>
 <g transform="translate(-149.53 -48.36)">
  <g transform="matrix(.76115 0 0 .76115 3.7003 31.478)">
   <g transform="matrix(.72206 -.12732 .12732 .72206 70.721 35.192)" filter="url(#filter10682)" stroke-width=".21167">
    <path d="m208.1 82.338c-2.5231-5.4419-8.958 1.8039-9.9896-4.5472 4.0564-6.0485-3.5555-8.2289-6.5042-12.162-2.3318-5.0256-6.9014-7.4945-12.372-6.0572-4.999-0.49043-9.8558 1.6774-14.813 0.67593-6.6442-2.1407 3.9354-3.2719 6.4985-3.6133 11.022-1.8444 22.054-3.6762 33.096-5.4272 6.2138-0.75628 11.949-3.4156 18.19-3.9267 10.331-2.9927 20.813-5.5881 31.24-8.2976 1.5143 2.0402 1.6428-1.914 4.5792-1.235 6.5135-1.5662 13.009-3.4991 19.526-4.8643 3.2164 0.15003 9.83 1.3919 10.439 3.3431-6.6742 1.5724-12.982 4.4805-19.456 6.583 4.5489 3.1677-0.71517 8.5853-0.77317 13.101-2.8618 8.0707 7.42 2.4066 11.68 3.1519 2.4564-0.25502 7.7008 0.75188 2.7748 1.9072-5.1827 1.6766-10.907 1.2763-15.788 3.6864-4.2898 2.8298-9.5324 3.3694-14.549 3.6746-5.318 0.26255-10.484 1.8082-15.67 2.3127-2.9274-0.35279-4.9068 1.439-0.67027 0.54237 4.8399-0.1136 5.3348 5.4482 0.86801 6.6-5.1815 3.8852-5.2265-7.6195-10.152-3.3125-5.4501 1.5475-11.675 0.92806-16.488 2.6431-2.093-3.9741-4.4424 3.7043 0.10036 1.8673 4.2336-2.9562 4.236 1.1813 0.69024 2.7143-0.59877 0.67796-1.5908 1.0649-2.4568 0.63965zm-3.7183-8.9792c-0.2649-4.7386-1.9429 4.1573-0.0487 0.69995zm-2.7124-0.59665c-0.35473-3.9234-1.4598 3.1024 0 0zm1.6999 0.80227c0.0158-3.1256-1.9968 1.1488 0 0zm44.996-15.351c6.4142-0.70583 11.778-4.9826 13.885-11.026 0.39697-4.1382-6.3686 1.2183-8.9941 0.86104-6.28 1.6859-12.637 3.0676-18.911 4.7762 4.4334 2.0058 8.8084 6.7358 14.021 5.3887zm-15.366-0.06836c-2.3574-2.9109-4.0515 0.71285 0 0zm4.0786-1.3318c-1.133-0.28057-0.4689 0.36626 0 0z" fill="#8db0ce"/>
    <path d="m208.14 82.023c-1.8914-3.4495-5.1308-2.3365-7.5135-1.4088-5.5355-1.0047 0.60767-9.3438 2.0451-5.4569-4.9893-0.02375-2.5758 4.1002 0.79079 2.899 1.883-2.6321 2.794 3.5776 6.2985 1.6134 4.4865-0.63858 0.12507 3.3184-1.6209 2.3534zm24.933-3.8938c-3.5981-1.9131 0.0476-8.8378-5.7942-8.4609-4.9789-0.66578-10.203-1.2116-15.494 0.89717-6.8751 2.7234 3.1886 3.4009 5.7942 3.1242 3.604 1.2659 6.4414-4.6934 7.2986-0.39587 3.7189 1.6618-4.9773 1.3066-6.2488 2.1188-4.6382 0.80554-9.7005 0.18533-13.963 0.78956-0.329-1.0867 4.2918-3.0192-0.073-4.1825-3.7655-0.916-9.3071-2.0104-11.449-6.338 1.9895 0.38355 4.6098-1.2313 1.0421-2.2332-4.1613 0.01979-6.8563-4.1779-8.5745-5.7932-6.1388 0.07872-12.236 0.87864-18.315 1.6719 2.5048 0.2092 6.5529 0.95615 1.7734 0.81284-2.2064 0.72089-10.419-1.2795-4.2304-1.8192 4.8131-1.3761 9.7957-1.1531 14.593-2.3378 5.7009-1.2365 11.47-2.1392 17.263-2.8223 5.1971 2.8908 9.551-0.97721 14.158-2.6826 6.0769-1.589 12.295-2.534 18.323-4.381 7.9763-2.0719 15.947-4.1667 23.903-6.3143 5.166-1.3386 11.095-2.8725 16.779-4.1735 5.1076-1.6377 8.5561-2.9844 13.687-1.4229 3.3065 0.44782 5.3918 2.309 0.92251 2.6937-5.637 1.7121-11.073 4.0126-16.691 5.7823 5.2238 3.2615-0.51112 9.231-0.17251 14.004-1.2335 7.2827-4.7588-1.7825-7.3457-3.3086 2.1269 1.4207 3.9499 8.2236 0.72937 3.8526-5.1027-4.3303 2.279-8.0762 1.759-12.382-9.1775 3.2481-18.832 5.373-28.379 7.4665-1.2492 2.8177 0.41396 9.1434-5.0069 6.211-4.4014 2.8575 10.276 0.17712 6.164 5.334-3.2692 5.6714-8.7663-1.632-12.98 0.03021-2.6028 4.2534 4.7095 3.6183 6.6448 5.6758 4.1988 0.34005 9.0784-1.5068 12.785-1.8428-3.8667 0.63557-9.687-0.57332-5.1368-4.8633 5.3783-4.6071 12.942 0.04969 19.261-0.70488 9.5168-0.06949 18.84-4.0596 28.391-2.2575-5.3472 1.9367-11.064 2.6924-16.639 3.5023-4.8922 3.7896-11.149 4.315-17.22 4.8558-6.1529 1.0225-14.065 1.0964-19.056 3.3286 1.3688 0.43864 3.2401 0.64126 0.67686 1.6252 2.2624-0.13941 10.601-0.44195 5.3606 2.9728-1.3376 1.0245-2.5352 3.4755-4.5394 1.9666zm-16.028-11.152c0.44914-2.2118 6.786-3.7996 1.6307-4.9595-5.0033-2.2688-13.474-0.69723-16.744-3.5336 5.4177 0.42169 10.959 0.32633 16.085 2.4832 2.1257 1.5034 7.8308 0.10654 3.0083-1.316-4.7796 0.02106-9.3829-1.1734-14.156-1.3542-6.7692-1.181 3.145-0.20609 5.5837-0.05141 4.2318 0.3243 8.4622 0.67782 12.681 1.1468-2.1033-2.4832-8.2872-2.2755-6.7676-6.8667 0.2243 7.1209-8.0501 4.3648-12.461 4.1784-3.0482 0.18646-13.241-2.1793-7.89 3.493 3.2697 1.7514 0.16373 4.4636 4.1816 5.3259 1.0978 1.206 6.9184 1.8513 3.6375 0.46309 2.2412-1.7805 2.7885 0.78108 2.5008 0.95882 2.8846-0.3835 5.8319-0.41924 8.7108 0.0322zm-5.0906-3.2369c0.0916-1.5491 1.0709 1.2656 0 0zm-11.227-6.1592c-2.7942-0.79408 4.0908 0.29375 0 0zm-3.3386 8.1073c-1.9982-1.2092 1.5008 1.8713 0 0zm35.384-1.2748c5.8363-5.9416-13.65-4.3061-5.7727-0.7478 1.782 0.65755 3.9167 1.8943 5.7727 0.7478zm-37.561-4.597c-2.4839-1.5255 9e-3 1.3095 0 0zm-2.103-0.96112c-0.95259-2.9175-8.5335 0.52298-2.8143 0.15584 0.93724 0.0078 1.9042 0.15219 2.8143-0.15584zm40.039-0.54136c-1.771-3.9287-4.9189 1.3769 0 0zm-43.472-1.8603c1.5046-3.5671-4.8859 2.4072 0 0zm38.974-0.72553c-1.5805-1.9205-0.27533 2.8423 0 0zm-15.116-0.78135c-1.3595-1.2532-1.7669-0.27288 0 0zm-17.935-1.0968c-1.1328-0.2804-0.46909 0.36646 0 0zm12.797 0.01096c-0.6991-0.3387-0.382 0.428 0 0zm28.448-5.7459c0.59858-0.97326-1.2247 1.2692 0 0zm29.26-0.79375c-0.0294-1.035-0.5653 1.1197 0 0zm-0.28822-1.1642c-0.51081-0.83124-0.51081 0.83124 0 0zm-65.974 27.993c-2.8958-5.8799 2.6055-1.2683 0 0zm26.084-2.3666c0.0916-1.5492 1.0709 1.2657 0 0zm10.52-12.459c-6.372-3.2588 3.8162-7.2932 1.7592-0.26344-0.46009 0.45252-1.1885 0.41074-1.7592 0.26344zm0.68864-2.16c0.51863-1.9051-3.2101 0.8093 0 0zm3.5459 1.2167c-3.598-4.2998 5.1726 1.1105 0 0zm14.129 0.04417c-2.8701 0.37594-6.1722-1.0119-1.3502-0.75639 2.7324-0.02886 8.1535 1.2424 2.431 0.81805-0.36027-0.02055-0.72055-0.04111-1.0808-0.06166zm-52.775-5.7946c1.0296-2.1345 2.2469 1.5081 0 0z" fill="#6d8fad"/>
    <path d="m208.14 82.023c-2.3995-0.68731-4.0249-4.9909-0.61603-2.3203 3.5464-1.2079 5.8603 1.3775 1.5191 2.4766l-0.90306-0.15627zm-8.3926-2.1581c-1.7686-0.77479-1.8711-4.1923 0.081-1.297 6.1785-1.5362 3.627 4.2762-0.081 1.297zm33.326-1.7357c-2.1678-0.91336-2.4001-4.9162 0.0757-2.0118 4.6369-1.8531 3.9134 3.7404-0.0757 2.0118zm-27.467-2.5986c3.028-2.8833-1.5469-4.1288-4.306-4.516-2.2041-0.46832-9.5178-2.4832-6.8222-6.0708 1.1072 2.0379 6.3337 1.9556 2.4795-0.05996 1.4251-1.3938 4.6181 3.4965 7.5991 2.6638 5.0034 1.0341 10.071 0.72054 14.285-1.5611 6.5096-6.7144 13.825-12.665 19.88-19.83-3.8871 3.3186-7.5747 7.2755-11.489 10.173-2.6162 4.0286-9.5251 0.87218-8.4594-4.1837-0.86337-2.9331-0.26078 6.9065-3.9213 3.4009-4.5122-2.5529-0.60664-0.12851 1.3469 1.5659-6.825 0.0588-13.618-1.0446-20.446-0.70614 2.9198 3.0095-1.5644 4.073-2.2587 0.63151 1.3906 3.1619-0.0907 8.7273-3.9951 4.6975-3.2306-1.3755-2.8491-4.2815 0.67879-2.521 3.901 0.4606 2.8477-2.5335-0.32315-1.1964-6.0648 0.94703 5.053-3.2429-0.88176-2.4498-2.3579 3.159-7.1531 1.7575-11.059 2.5323-2.8595 0.35356-9.5009 0.69256-9.8849 1.38 2.7769-1.79e-4 5.157 0.90735 1.028 0.65875-2.1444 0.67287-10.341-1.2427-4.1704-1.571 4.8163-1.3001 9.7482-1.425 14.585-2.3924 5.4714-1.0528 11.013-1.6699 16.516-2.5262 3.8454 1.2076 12.322 0.07777 13.608 0.05449-5.7002-0.71827 4.3852-4.6938 6.6321-4.3098 7.177-0.94431 14.212-3.5698 21.331-5.1803 7.0675-1.9644 14.196-3.6644 21.306-5.3646 5.2668-2.051 10.996-2.32 16.165-4.6848 3.5486-1.2503 10.985-0.0056 12.099 1.7099-6.6246 2.2733-13.275 4.4848-19.786 7.0726 5.6982 3.6305-0.62481 11.431-1.0149 16.356-4.0638-2.1533-8.2621-8.2114-3.7378-12.214 2.0132-5.1034-5.7082 0.63105-8.0434 0.33872-6.8043 2.0677-13.958 3.1504-20.714 5.1507-1.3266 2.1265 1.161 7.9397-2.6661 4.1499-4.3039 2.379-7.9534 6.2741-11.513 10.28-2.3702 3.132-11.518 1.9103-10.759 5.642 4.971 2.753 10.931-0.15236 15.791 1.5371-5.2516 1.6526-11.823 1.7877-17.658 1.6328-0.50632 0.06513-0.9558-0.14695-1.4222-0.29108zm1.6066-6.7323c-2.4511-1.6223 1.0982 1.3491 0 0zm-12.211-14.409c-1.9467-0.0998-1.735 1.0449 0 0zm71.025-2.3892c2.7158 0.10521 0.87433-1.2217-0.38056-0.27196zm0.35417-4.4869c0.39535-3.6865-2.4012-0.13999 0 0zm-28.162 27.756c1.6483-2.4505 1.3124 1.299 0 0zm-36.01-0.74889c0.59085-0.81132 0.068 0.72266 0 0zm-2.3685-0.37042c-2.8958-5.8799 2.6055-1.2683 0 0zm29.96-3.5836c4.3861-2.4001 11.181-0.99843 14.774-2.7169-3.3402-0.57537-12.714 0.41658-7.4399-5.1013 3.4492-3.7504 8.8887-0.63418 13.283-0.93438 9.0418 1.4472 17.867-1.3596 26.789-2.274 2.7339-0.41616 10.71 0.44029 3.8475 1.3266-5.8774 2.3687-13.097 0.81907-17.538 5.2704-8.6748 2.2333-17.764 2.1048-26.521 3.994-2.377 0.3545-4.7891 0.63461-7.1941 0.43566zm-3.4908-1.0202c0.24645-2.4366 2.4673 1.4935 0 0zm5.4268-3.7904c-5.511-1.1224-0.52347-1.4786 1.4238 0.16652l-0.46111 0.01516zm-11.748-3.6589c-1.5-1.014-9.5853-1.5159-7.3106-2.2386 2.3465 0.62837 5.5584 0.78024 7.3106 2.2386zm-11.585-2.2139c-2.167-2.4011 4.4143 1.1184 0.93525 0.26081zm11.852-0.54058c2.121-0.59927 0.26042 0.49025 0 0zm-1.6933-0.21167c2.121-0.59927 0.26039 0.49026 0 0zm16.611-0.3189c-3.3072-5.0353 4.8904-4.1593 2.953 0.14378-0.97147 0.30219-1.9727-0.11962-2.953-0.14378zm2.4775-1.7391c-1.3059-2.4103-3.3566 1.6408-0.10915 0.05774zm3.4474 1.4169c-4.0065-3.7069 3.671-0.0014 0 0zm12.334-0.27663c-6.2399-0.98505 9.5933 0.33249 1.7086 0.10002-0.56978-0.02893-1.1391-0.06543-1.7086-0.10002zm6.145-3.4562c-2.7942-5.3796 4.1647 2.3992 0 0zm-57.273-2.1312c1.4103-0.94711 0.21731 1.1207 0 0z" fill="#5d728c"/>
    <path d="m206.9 81.098c-1.2596-3.5365 8.2365-0.54289 2.5456 0.9314-0.93803 0.34268-2.0023-0.14282-2.5456-0.9314zm-6.219-0.50038c-5.1204-3.424 6.8351-1.175 0.6802 0.17371-0.22673-0.0579-0.45347-0.11581-0.6802-0.17371zm32.573-2.3993c-5.341-3.8799 7.7891-1.3273 1.0741 0.16941-0.35803-0.05647-0.71607-0.11294-1.0741-0.16941zm-27.398-2.8203c3.4112-4.2272 9.6677-0.19903 14.204-0.85482-1.0824 0.34817-7.4504 0.60526-3.0794 0.96292-3.6921 0.445-7.4419 0.40836-11.125-0.1081zm-5.9498-1.2315c-2.947-4.1191 2.3108-2.0851 0 0zm5.4456-2.4704c-2.2708-1.6114-10.205-0.76383-8.7059-3.8894 4.6753 0.0032 9.4995 1.5297 13.838 1.4024 1.5101 1.4223-4.2136 2.0792-5.1319 2.487zm25.692-1.111c1.9635-1.5389 11.514-1.1534 4.6882-0.44616-1.5629 0.14595-3.1342 0.21488-4.6882 0.44616zm-4.3921-1.3358c0.6243-0.96425 0.62272 1.0686 0 0zm14.142-0.14459c1.3062-0.51983-0.16953 0.53538 0 0zm-23.455-1.4429c2.15-2.689 3.4667-1.4497 0.43463 0.54709-0.44362 0.56749-2.2244-0.03004-0.43463-0.54709zm29.501 0.33609c-2.5831-1.3677-11.389 0.63779-9.8944-2.6135 3.8958-1.1285 11.981 1.6053 13.271-0.77512-3.1042-1.1978-12.54 1.4127-11.351-2.8198 6.0676-2.2364 12.417 1.2913 18.684 0.60187 8.6934-0.09242 17.165-3.8794 25.903-2.3043-3.6779 0.9572-14.044 3.7625-14.216 2.5148 2.0218-0.32358 11.269-2.4857 4.5052-1.6557-6.8539-0.67551-9.8517 6.6275-16.34 6.4348-3.4974 0.3947-7.0472 0.67306-10.561 0.61693zm9.9573-3.1104c-2.0199-2.0244-5.4379 1.2865 0 0zm1.6048-0.17653c-0.4345-0.91522-0.86078 0.84074 0 0zm5.5523-0.18812c2.7756-1.4687-3.5755 0.77534 0 0zm-1.7599-0.0061c-1.2918-0.9694-2.0472 0.87055 0 0zm-48.242 3.0392c-0.23184-1.0637 1.5887 1.2314 0 0zm-19.99-0.47043c-2.6437-4.3653 4.7458 1.8137 0 0zm3.9038-1.7521c-0.58561-2.5647 2.8111 2.5302 0 0zm-6.2293-2.6218c-2.7926 0.02305-6.1113-5.2734-1.1872-3.7031 2.8622-1.7757 4.4241 3.748 1.1872 3.7031zm34.967-3.6598c4.0794-3.7273-2.6577 3.2487 0 0zm-60.488 0.89421c-3.043 0.99396-4.3758-2.229-0.70774-0.65268 1.7543 0.38654 8.074 0.72011 3.124 0.74287l-1.2082-0.04418-1.2081-0.046zm42.228-0.34752c0.9774-1.3282 1.5973 1.7706 0 0zm-12.966-0.13876c1.3376-5.4268-11.258 1.3434-5.2096-3.0828 6.6022-3.05 14.055-2.2907 21.107-2.1238 2.0394 0.45696 6.8229 3.7601 1.7757 2.7265-5.077 0.29762-14.812-1.9897-16.937 0.22205 0.59589 0.76882 1.0801 3.0969-0.73637 2.2581zm70.831 0.10583c0.62368-2.4474 1.428-8.5188 0.0571-2.761-3.8102 3.6467-8.5-7.2687-3.512-9.4454 1.2818-5.5919-6.1712 0.24298-8.8711 0.16427-5.1148 1.8977-10.196 0.69628-15.007 3.034-4.1966-1.6213-6.2254 6.2212-6.6043 6.2105-5.4584-1.5151 4.3221-6.1828 5.7285-8.6926 2.0722-2.6988 1.1143-3.4775-1.3896-1.0665-1.6076 1.4319-7.5122-2.2201-5.8131 1.0918 5.6512-0.44262-0.477 8.8001-2.6605 5.1807 0.81887 6.8134-12.338 4.8592-8.0733-0.88671 1.956-0.86319 6.5804 0.36436 2.0612-0.76563-4.7421-0.06508-4.6655-3.1686-0.16727-3.2523 5.5493 0.18413 9.8794-2.6411 15.123-3.6851 9.8057-2.8188 19.774-5.0283 29.595-7.776 5.1239-0.29463 9.0804-4.1553 14.208-3.0541 4.2336-0.32275 7.6362 2.9082 1.6629 3.2581-5.1412 1.6352-10.565 2.7026-15.409 5.0742 2.0219 2.0491 4.0646 4.4529 1.6321 7.6097-0.85781 3.2494-1.0006 6.7267-2.5609 9.7619zm-39.817-2.7649c-0.30461-0.99399-0.72749 1.573 0 0zm3.3778-3.7659c-0.75722-0.70571-0.39878 0.55954 0 0zm36.464-0.93045c4.5213-0.81727-3.3427-1.3671 0 0zm-38.312-2.4467c-0.38685-1.3767-0.38726 1.7786 0 0zm12.171-0.70166c2.2646-0.43237 1.8336-3.4812 0.17592-1.3107-2.2182-0.06867-3.5091 2.7054-0.17592 1.3107zm4.4023-1.2187c0.11502-3.0632-2.9431 0.46818 0 0zm21.881-0.20308c0.69544-3.5206-2.5529-0.39834 0 0zm-21.098-1.3691c-0.89125-1.0749-0.51976 1.3646 0 0zm20.427-2.1058c-0.38537-2.3434-1.9036 0.39924 0 0zm-100.22 14.753c8.4944-1.8794 17.176-2.7266 25.734-4.2173-3.951 2.5501-8.3842 2.9154-12.96 3.2406-4.2422 0.48564-8.4952 1.0215-12.773 0.97673zm75.16-0.90407c-1.0287-3.1625 3.2019 2.4399 0 0zm12.781 0.32522c-3.7927-1.0265 8.3239 0.53316 0.10466 0.0065zm-16.797-0.17971c0.82171-1.7083 1.8247 0.99781 0 0zm-1.8577-2.2823c2.0874-2.9282 3.666 3.0529 0 0zm-20.251-0.66077c-1.9738-1.0372-9.2516-2.3475-3.6258-4.2998 3.9739-4.9071 10.844 4.4966 4.5811 4.9339l-0.95541-0.6341zm45.097-0.28238c-2.5028-3.2444 2.025-1.0691 1.1119 0.4347zm-25.559-5.5741c1.2325-4.0007 2.2324 1.7071 0 0z" fill="#565966"/>
    <path d="m207.44 81.382c-1.9025-2.8221 6.6852-0.87973 1.9736 0.50327l-1.0381-0.0469zm-6.7752-0.99504c-2.5851-2.9627 6.0429-0.16232 0.554 0.17796l-0.2882-0.09258zm32.969-2.1962c-3.8833-2.8832 6.6906-1.0675 0.73728 0.09615-0.24576-0.03205-0.49152-0.0641-0.73728-0.09615zm13.335-10.445c-2.9226-0.84248-11.001 0.03438-10.368-1.8752 4.2777-0.47834 12.062 1.2994 14.154-1.1908-4.0788-1.7696-9.3513 0.43704-13.342-1.5181 3.9397-4.8348 12.867-0.35752 18.674-0.75571 1.9522 0.19679 12.272 0.1172 6.1465 1.6537-1.9721-0.19994-9.1464-1.182-8.0813 1.1866 2.3374 0.48212 10.512-1.4265 9.7442 0.37849-5.4386 1.6772-11.249 2.3177-16.928 2.121zm-48.56-2.2509c0.0936-1.52 1.1429 1.4243 0 0zm-7.8944-3.673c-2.4546-0.8608-3.5561-3.4474-0.22823-1.6439 2.7845-1.0651 3.144 2.2434 0.22823 1.6439zm17.825-2.2433c-0.1196-1.4644 2.8928 1.6887 0 0zm-45.495-0.06369c1.2957-1.3491 2.1264 1.2237 0 0zm103.36 0.03074c0.432-1.776 1.7098-8.9381 0.25028-3.9237-0.59782 6.5316-5.937-2.4013-6.2841-4.007 1.7721-3.309 4.4395-10.605 9.2004-7.3842 0.71267 4.909-2.0236 9.9714-2.8081 14.875l-0.35831 0.44027zm0.0251-7.4612c4.251-0.03067-1.9936-2.3148-0.41638 0.39764l0.28-0.08383zm0.1425-4.5701c0.39535-3.6865-2.4012-0.13999 0 0zm-71.088 11.502c-2.2892-4.8258 3.2461 0.57341 0 0zm45.359-1.1281c-1.2722-3.0694 3.5499 2.2647 0 0zm12.781 0.32522c-6.2399-0.98505 9.5933 0.33249 1.7086 0.10002-0.56978-0.02893-1.1391-0.06543-1.7086-0.10002zm-65.402-0.56324c6.6787-4.589 15.223-3.5246 22.871-3.4476 2.794 0.02987 6.4097 4.3729 1.1709 2.6993-6.4413 0.14315-13.795-2.1081-19.633 0.71096-0.43628 0.23545-6.4631 1.3051-4.4094 0.03734zm48.605 0.38353c0.76758-1.7054 2.1001 0.89451 0 0zm-62.684-0.86948c0.51082-0.83124 0.51082 0.83124 0 0zm49.082-0.15875c-7 0.32225-2.4647-8.588 2.428-3.982 3.3502 1.745-6e-3 4.8261-2.428 3.982zm2.7674-1.2665c-1.1322-0.70685-2.1463 1.5194 0 0zm6.6768 1.0019c-3.0502-5.1124 4.4055 0.25585 0 0zm2.3001-0.98947c1.4508-2.767 4.1238 2.5581 0.10386 0.26756zm-20.609-0.92168c-1.9622-1.0497-8.9624-1.8004-3.4627-3.8085 3.495-4.9904 9.7008 3.5979 4.616 4.3798l-0.58921-0.31546-0.56421-0.25585zm45.455-0.02148c-2.94-5.3547 4.2927 2.279 0 0zm-30.793-0.02779c-0.99432-2.606 2.7791-0.05982 0 0zm1.2128-3.8737c1.8929-5.2181 4.7637 1.3628 0 0zm50.165-15.02c-2.4992 1.8063-6.8852-3.1305-3.3844-1.5196 1.8745 1.4108 3.6863-2.6105 6.2963-0.19816 2.4708 0.3867 4.5434 2.2478 0.59305 1.3884-1.3015-0.5042-4.0331-0.26733-1.1097 0.58223l-1.201-0.0908-1.1943-0.16215z" fill="#1e6195"/>
    <path d="m207.44 81.382c-1.9025-2.8221 6.6852-0.87973 1.9736 0.50327l-1.0381-0.0469zm-6.7752-0.99504c-2.5851-2.9627 6.0429-0.16232 0.554 0.17796l-0.2882-0.09258zm32.969-2.1962c-3.8833-2.8832 6.6906-1.0675 0.73728 0.09615-0.24576-0.03205-0.49152-0.0641-0.73728-0.09615zm13.335-10.445c-2.9226-0.84248-11.001 0.03438-10.368-1.8752 4.2069-0.48269 12.265 1.3113 14.064-1.2073-2.594-1.8223-9.5803 0.50466-10.075-1.4522 7.4912-0.47232 15.019-0.88242 22.503-0.54078 4.6932 1.624-4.6901 1.2916-6.0319 1.0774-2.6971-0.62248-5.2418 2.144-0.96075 1.5493 1.6655-0.03251 9.2289-1.221 7.7978 0.32774-5.439 1.6772-11.247 2.3177-16.929 2.121zm-48.56-2.2509c0.0936-1.52 1.1429 1.4243 0 0zm39.468-2.0748c0.34518-1.6445 1.6473 1.0745 0 0zm-47.362-1.5982c-2.4546-0.8608-3.5561-3.4474-0.22823-1.6439 2.7845-1.0651 3.144 2.2434 0.22823 1.6439zm-27.67-2.307c1.2957-1.3491 2.1264 1.2237 0 0zm32.485-0.4316c-2.5082-4.7092 3.221 0.18242 0 0zm-21.386-1.9189c0.51082-0.83124 0.51082 0.83124 0 0zm18.395-0.76246c4.3471-3.4975 10.681-1.0101 15.829-1.959 2.5682-1.2265 10.488 3.2759 3.9505 2.4268-6.6021-0.85874-13.134-1.2068-19.779-0.46783zm27.378 0.31156c-4.4165-6.8468 12.135-4.3946 5.2735-0.7418-1.6764 0.6051-3.4931 0.89729-5.2735 0.7418zm-5.0271-1.656c-1.9333-0.93939-7.565-2.2882-2.735-3.9389 3.4337-5.3035 7.9094 5.1018 3.0731 4.1063l-0.27126-0.13432zm13.959-0.87488c0.58296-1.6344 1.9582 0.89359 0 0zm31.678-1.8682c0.22775-1.9338 3.9893-8.3991 3.8348-6.6292-1.7093 1.9179-1.4781 5.3935-3.8348 6.6292zm-30.291-1.4075c1.8929-5.2181 4.7637 1.3628 0 0zm37.465-5.82c0.44176-0.48834 0.39171 0.81575 0 0zm12.7-9.2c-2.2374 1.6593-7.1834-2.8569-2.8303-1.4442 1.9574 0.78381 8.6065-0.62169 8.1163 1.2732-1.1116-0.09933-6.5597-1.0078-2.8878 0.42039l-1.2025-0.08808-1.1958-0.16122z" fill="#142d58"/>
   </g>
  </g>
 </g>
</svg>
