<?xml version="1.0" encoding="UTF-8"?>
<!-- Created with Inkscape (http://www.inkscape.org/) -->
<svg width="2412.3" height="463.57" version="1.1" viewBox="0 0 638.24 122.65" xmlns="http://www.w3.org/2000/svg" xmlns:xlink="http://www.w3.org/1999/xlink">
 <defs>
  <linearGradient id="linearGradient13970" x1="145.52" x2="145.52" y1="211.67" y2="92.604" gradientUnits="userSpaceOnUse">
   <stop stop-color="#5e5e5c" offset="0"/>
   <stop stop-color="#bebded" stop-opacity=".99216" offset="1"/>
  </linearGradient>
  <linearGradient id="linearGradient18543" x1="171.98" x2="171.98" y1="198.44" y2="92.604" gradientUnits="userSpaceOnUse">
   <stop stop-color="#3d414e" offset="0"/>
   <stop stop-color="#646464" offset=".02046"/>
   <stop stop-color="#57579d" offset="1"/>
  </linearGradient>
  <filter id="filter24034" x="-.0039246" y="-.071967" width="1.0128" height="1.2339" color-interpolation-filters="sRGB">
   <feFlood flood-color="rgb(0,0,0)" flood-opacity=".50196" result="flood"/>
   <feComposite in="flood" in2="SourceGraphic" operator="in" result="composite1"/>
   <feGaussianBlur in="composite1" result="blur" stdDeviation="1"/>
   <feOffset dx="3" dy="3" result="offset"/>
   <feComposite in="SourceGraphic" in2="offset" result="composite2"/>
  </filter>
 </defs>
 <g transform="translate(0 -92.604)">
  <path d="m0 198.44 39.688-13.229 26.458-26.458 26.458 13.229 26.458-26.458 26.458-13.229 13.229-26.458 26.458-13.229 26.458 39.687 13.229-13.229 26.458 39.688 39.688 39.687h-291.04" fill="url(#linearGradient18543)"/>
  <path d="m185.21 92.604v26.458l13.229 13.229-13.229 13.229 39.688 13.229 66.146 39.687m-291.04 0 39.688-13.229 26.458-26.458 26.458 13.229 26.458-26.458 26.458-13.229 13.229-26.458 26.458-13.229m105.83 105.83h-291.04" display="none" fill="none"/>
  <path d="m145.52 198.44h-145.52l39.688-13.229 26.458-26.458 26.458 13.229 26.458-26.458 26.458-13.229 13.229-26.458 26.458-13.229v26.458l13.229 13.229-13.229 13.229 39.688 13.229 66.146 39.687z" fill="url(#linearGradient13970)"/>
  <path transform="scale(.26458)" d="m653.81 516.92-95.407-31.882 41.853-83.51 49.544-24.746c27.249-13.61 49.937-24.303 50.417-23.761 0.48011 0.54127 22.97 34.163 49.977 74.714l49.104 73.73 25.213-25.121c15.623-15.566 25.793-24.225 26.739-22.765 0.83925 1.2957 8.5623 12.963 17.162 25.928 8.6 12.965 15.257 23.899 14.794 24.298-0.46331 0.39958-30.8 10.687-67.416 22.861l-66.573 22.135z" fill="#dfe0f0"/>
  <path transform="scale(.26458)" d="m700.21 353.02c-0.0108-0.0121-0.17998 0.0556-0.21289 0.0547v96.93l50 50-36.771 36.771 35.984 12.025 66.574-22.135c36.615-12.174 66.951-22.462 67.414-22.861 0.4633-0.39959-6.1929-11.334-14.793-24.299-8.6-12.965-16.323-24.632-17.162-25.928-0.94553-1.4598-11.117 7.1994-26.74 22.766l-25.213 25.121-49.104-73.73c-27.007-40.552-49.496-74.174-49.977-74.715z" fill="#afafcc" fill-opacity=".98357"/>
  <text x="13.229167" y="198.43752" display="none" fill="#282879" filter="url(#filter24034)" font-family="'Segoe Script'" font-size="38.806px" font-weight="bold" stroke-width=".26458" style="font-variant-caps:normal;font-variant-east-asian:normal;font-variant-ligatures:normal;font-variant-numeric:normal;line-height:1.25" xml:space="preserve"><tspan x="13.229167" y="198.43752" fill="#282879" font-family="'Segoe Script'" font-size="38.806px" font-weight="bold" stroke-width=".26458" style="font-variant-caps:normal;font-variant-east-asian:normal;font-variant-ligatures:normal;font-variant-numeric:normal">Aurora Alaskan Air Charters</tspan></text>
  <g fill="#282879" filter="url(#filter24034)" stroke-width=".26458" aria-label="Aurora Alaskan Air Charters">
   <path d="m32.253 187.14q0.83371-0.20843 1.6864-0.43581 0.87161-0.22737 1.6106-0.45475-0.30317-0.92845-0.62529-1.9327t-0.68213-1.9895q-0.34106-1.0042-0.70108-1.9327-0.36001-0.9474-0.75792-1.7243-1.6106 2.198-3.2401 4.6233-1.6106 2.4254-3.0696 4.9454 0.56844-0.0568 1.1937-0.0758 0.62529-0.0379 1.0042-0.15158 0.5116-0.15158 0.90951-0.26527 0.41686-0.11369 0.81477-0.20843 0.41686-0.0947 0.85266-0.18948 0.4358-0.0947 1.0042-0.20843zm12.657 9.5498q0 0.47371-0.18948 0.89056-0.17053 0.41686-0.49265 0.73898-0.30317 0.30317-0.75792 0.49265-0.4358 0.18948-0.9474 0.18948-0.4737 0-0.92845-0.30317-0.45475-0.30317-0.89056-0.77687-0.41686-0.4737-0.81477-1.0611-0.37896-0.60634-0.70108-1.2127-0.30317-0.60634-0.54949-1.1558-0.24632-0.54949-0.39791-0.9095-0.20843-0.5116-0.41686-0.94741-0.20843-0.4358-0.4358-1.1179-0.13264-0.37896-0.20843-0.56844-0.05684-0.18948-0.11369-0.28422-0.0379-0.11369-0.07579-0.17054-0.01895-0.0758-0.05684-0.20842-0.37896 0.17053-0.81477 0.20842-0.4358 0.019-0.96635 0.019-0.09474 0-0.32212 0.0758-0.22738 0.0568-0.53054 0.15159-0.28422 0.0947-0.60634 0.20843-0.30317 0.0947-0.58739 0.17053-0.90951 0.22738-1.9706 0.4358-1.0611 0.20843-2.2169 0.41686-1.1558 0.18948-2.3685 0.39791-1.1937 0.18948-2.4064 0.39791-0.13264 0.0189-0.22738 0.0758-0.09474 0.0568-0.26527 0.30317-0.17053 0.22738-0.5116 0.72003t-0.96635 1.4022q-0.72003 1.0421-1.3643 1.819-0.64423 0.75793-1.2127 1.3074-0.54949 0.54949-1.1748 0.83371-0.60634 0.28422-1.2695 0.28422-0.87161 0-1.5537-0.22737-0.68213-0.20843-1.1558-0.5495-0.45475-0.34106-0.70108-0.73897-0.22738-0.39791-0.22738-0.73897 0-0.64424 0.54949-0.89056 0.54949-0.26527 1.5158-0.43581 0-0.0189 0.20843-0.28422 0.20843-0.26527 0.49265-0.60634 0.28422-0.34106 0.54949-0.66318 0.28422-0.34106 0.39791-0.51159 0.73897-1.0232 1.5348-2.1222 0.81477-1.1179 1.7811-2.558v0.019q0.49265-0.72003 0.79582-1.1937 0.32212-0.4737 0.60634-0.89056 0.28422-0.41686 0.58739-0.85266 0.32212-0.43581 0.77687-1.08 1.1748-1.6485 2.0464-2.7854 0.89056-1.1558 1.459-1.9138 0.68213-1.0611 1.2885-2.0274 0.26527-0.41685 0.5116-0.83371 0.24632-0.4358 0.4737-0.83371 0.22738-0.39791 0.39791-0.73898 0.18948-0.36001 0.28422-0.60634 2.2548-5.5139 3.8654-5.5139 0.70108 0 1.1369 0.11369 0.4358 0.0947 0.66318 0.36001 0.24632 0.24633 0.32212 0.66319 0.09474 0.41685 0.09474 1.0421 0 0.58739 0 0.92845 0 0.32212-0.01895 0.56844-0.01895 0.24633-0.0379 0.49265 0 0.24633-0.0379 0.66319 0.45475 0.96635 0.87161 1.9895 0.4358 1.0232 0.81477 2.0274 0.07579 0.22738 0.32212 0.96635 0.26527 0.72003 0.60634 1.7053 0.36001 0.98529 0.73897 2.0843 0.39791 1.099 0.72003 2.0653 0.34106 0.96635 0.58739 1.6674 0.24632 0.70107 0.32212 0.89055 0.24632 1.0611 1.3832 3.5054 0.15158 0.30317 0.24632 0.53055 0.11369 0.22737 0.24632 0.4737 0.15158 0.24632 0.37896 0.56844t0.60634 0.83371q1.3074 1.7811 1.3074 2.6148z"/>
   <path d="m82.181 181.63q0 0.15158-0.0379 0.30317-0.0379 0.15158-0.13264 0.34106-0.68213 1.3643-1.6106 2.8233-0.92846 1.459-2.0274 2.8612-1.08 1.3832-2.2738 2.6338-1.1937 1.2506-2.4064 2.198-1.1937 0.92845-2.3685 1.478-1.1748 0.54949-2.2359 0.54949-1.08 0-1.9895-0.32212-0.89056-0.34106-1.5537-1.08-0.66318-0.73897-1.0421-1.8948-0.36001-1.1558-0.36001-2.8043-0.30317 0.49265-0.73897 1.1179-0.41686 0.60634-0.90951 1.2316-0.4737 0.62528-1.0042 1.2127-0.5116 0.58739-1.0232 1.0232-0.45475 0.39791-1.1369 0.96636-0.66318 0.54949-1.5348 1.08-0.85266 0.5116-1.8948 0.90951-1.0421 0.37896-2.2359 0.4358-1.5537 0-2.4632-0.53054-0.89056-0.54949-1.3453-1.3832-0.45475-0.85266-0.58739-1.8758-0.11369-1.0232-0.11369-1.9896 0-0.0947 0.01895-0.53054 0.0379-0.43581 0.09474-1.08 0.07579-0.64424 0.18948-1.44 0.13264-0.81477 0.30317-1.6864 0.18948-0.87161 0.4358-1.7432 0.24632-0.87161 0.56844-1.6485 0.17053-0.39791 0.32212-0.72003 0.17053-0.34106 0.37896-0.56844 0.20843-0.24632 0.5116-0.39791 0.30317-0.15158 0.75792-0.17053 0.58739 0 0.96635 0.20843 0.39791 0.18948 0.62529 0.49265 0.24632 0.30317 0.34106 0.68213 0.09474 0.37896 0.09474 0.73897 0 0.28422-0.26527 1.0042-0.24632 0.72002-0.54949 1.7811t-0.56844 2.4254q-0.24632 1.3643-0.24632 2.937 0 0.79582 0.26527 1.2695 0.26527 0.45475 0.70108 0.45475 0.60634 0 1.1748-0.18948 0.58739-0.18948 1.1369-0.49265 0.54949-0.30316 1.0611-0.68213 0.53055-0.3979 1.0042-0.79581 0.56844-0.4737 1.2316-1.2127 0.68213-0.73897 1.3264-1.5537 0.64423-0.83371 1.1937-1.6295t0.87161-1.3832q0.17053-0.30317 0.39791-0.79582 0.22738-0.51159 0.4358-1.0611 0.20843-0.54949 0.37896-1.0421 0.17053-0.5116 0.24632-0.81476 0.05684-0.26528 0.09474-0.45476 0.05684-0.20843 0.09474-0.41686 0.05684-0.20842 0.13264-0.4358 0.07579-0.22738 0.18948-0.5116 0.07579-0.18948 0.28422-0.39791 0.20843-0.22737 0.4737-0.39791 0.28422-0.18948 0.58739-0.30316 0.32212-0.13264 0.60634-0.13264 0.85266 0 1.3074 0.49265 0.45475 0.4737 0.49265 1.1748-0.07579 0.37896-0.26527 1.2695-0.17053 0.87161-0.36001 1.9706-0.18948 1.08-0.32212 2.2548-0.13264 1.1558-0.13264 2.1222 0 1.6674 0.45475 2.6338 0.4737 0.9474 1.3264 0.9474 0.64423 0 1.3453-0.34106 0.72003-0.36001 1.4779-0.9474t1.5158-1.3453q0.77687-0.77687 1.5158-1.6295 0.75792-0.85266 1.4401-1.7243 0.70108-0.87161 1.3074-1.6485 0.87161-1.1369 1.5916-1.8759 0.72003-0.75792 1.4022-0.75792 0.11369 0 0.28422 0.0379 0.18948 0.0379 0.36001 0.13263 0.17053 0.0947 0.28422 0.24633 0.13264 0.15158 0.13264 0.39791z"/>
   <path d="m96.108 183.3q0 0.17053-0.07579 0.45475t-0.22738 0.56844q-0.15158 0.28422-0.39791 0.49265-0.22738 0.20843-0.56844 0.22738-0.07579 0-0.32212 0-0.24632-0.0189-0.53055-0.0379-0.28422-0.019-0.53054-0.019-0.24632-0.0189-0.36001-0.0189-3.1643 0.17054-5.476 2.2738-0.53055 0.4737-1.099 1.1179-0.54949 0.64424-1.099 1.4211-0.53054 0.75792-1.0232 1.6295t-0.89056 1.819q-0.32212 0.77687-0.62529 1.6106-0.30317 0.81476-0.53054 1.7243-0.13264 0.49265-0.20843 0.87161-0.05684 0.36001-0.20843 0.85266-0.09474 0.30317-0.32212 0.5116-0.22738 0.22737-0.53054 0.36001-0.30317 0.15159-0.64423 0.22738-0.32212 0.0758-0.64423 0.0947-1.2127 0-1.6674-1.099-0.45475-1.099-0.45475-3.278 0-0.49265 0-0.92846 0.01895-0.4358 0.0379-0.87161 0.0379-0.45475 0.07579-0.92845 0.0379-0.49265 0.09474-1.099 0.07579-0.89055 0.20843-2.1032 0.13264-1.2316 0.28422-2.4822 0.15158-1.2695 0.32212-2.4443 0.18948-1.1748 0.37896-1.9896 0.22738-1.0042 0.75792-1.5727 0.54949-0.56845 1.5916-0.56845 0.30317 0 0.60634 0.17054 0.32212 0.15158 0.56844 0.37896 0.24632 0.22737 0.41686 0.49265 0.17053 0.26527 0.18948 0.4737l0.01895 0.34106q0 0.53055-0.09474 1.2506-0.09474 0.72003-0.26527 1.5348-0.15158 0.79581-0.34106 1.6295-0.17053 0.81476-0.36001 1.5727-0.17053 0.73897-0.32212 1.3832-0.13264 0.62529-0.20843 1.0422 0.66318-1.4022 1.4211-2.6906 0.75792-1.3074 1.6295-2.4064 0.87161-1.1179 1.8759-1.9895 1.0042-0.87161 2.1601-1.4022 0.90951-0.41686 1.6674-0.62528 0.75792-0.22738 1.3643-0.22738 0.72003 0 1.4779 0.15158 0.77687 0.15159 1.4022 0.45476 0.64423 0.28422 1.0611 0.70107 0.41686 0.41686 0.41686 0.94741z"/>
   <path d="m123.51 181.91q0 0.36001-0.24632 0.77687-0.22738 0.39791-0.60634 0.81476-0.36001 0.39791-0.83371 0.79582t-0.9474 0.73898q-0.47371 0.32211-0.90951 0.56844-0.41686 0.24632-0.70108 0.37896-0.5116 0.20843-1.3264 0.39791-0.79582 0.17053-1.6864 0.30317-0.87161 0.11368-1.7053 0.18948-0.81477 0.0758-1.3832 0.0758-0.13264 0-0.37896-0.019-0.22738-0.0379-0.5116-0.0947-0.26527-0.0568-0.54949-0.13264-0.26527-0.0947-0.45475-0.22737 0.20843 0.4358 0.22737 0.96635 0.0379 0.5116 0.0379 1.0232 0 0.36002-0.0758 0.85266-0.0758 0.49265-0.20843 1.0042-0.11369 0.5116-0.28422 0.9853t-0.36002 0.79582q-0.4737 0.81476-1.0232 1.4969-0.53054 0.68213-1.1937 1.2695-0.66318 0.58739-1.4969 1.099-0.83372 0.5116-1.9327 1.0042-1.1748 0.51159-2.3496 0.72002-1.1748 0.18948-2.4254 0.18948-0.92846 0-1.6485-0.4737-0.72002-0.49265-1.2127-1.3074-0.49265-0.81477-0.75792-1.8759-0.24632-1.0611-0.24632-2.2169 0-0.28422 0.0379-0.70108 0.05684-0.43581 0.13264-0.87161 0.09474-0.43581 0.18948-0.85266 0.11369-0.41686 0.20843-0.70108 0.26527-0.79582 0.75792-1.819 0.5116-1.0232 1.1937-2.0843 0.68213-1.08 1.5158-2.1032 0.83372-1.0421 1.7622-1.838 0.9474-0.81477 1.9516-1.3074 1.0232-0.49265 2.0464-0.49265 0.4358 0 0.70108 0.0947 0.26527 0.0758 0.4358 0.22738 0.17053 0.13264 0.30317 0.32212 0.15158 0.17053 0.32212 0.34106 0.13263-0.0379 0.26527-0.0568 0.15158-0.019 0.30317-0.019 0.58739 0 1.1558 0.45475 0.56844 0.45476 1.1558 1.0042 0.26527 0.24632 0.53054 0.5116 0.28423 0.24632 0.5116 0.45475 0.22738 0.18948 0.39791 0.32212 0.18948 0.11369 0.26527 0.11369 0.49265 0 1.0611 0 0.58739-0.019 1.1748-0.0379 0.60634-0.0379 1.1558-0.0947 0.56845-0.0568 1.0232-0.13264 0.0568-0.0189 0.49265-0.11369 0.4358-0.11368 1.0421-0.26527 0.62529-0.17053 1.3453-0.36001 0.72003-0.18948 1.3264-0.34107 0.62529-0.17053 1.0611-0.26527 0.45475-0.11369 0.53054-0.11369 0.37896 0 0.60634 0.0947 0.22737 0.0947 0.22737 0.53055zm-21.866 12.638q1.5348 0 2.7096-0.81477 1.1937-0.81477 2.0085-2.1601 0.81477-1.3643 1.2506-3.0885 0.45476-1.7432 0.4737-3.5812-0.13263-0.28422-0.3979-0.58739-0.24633-0.30317-0.56845-0.53054-0.32211-0.24633-0.66318-0.39791-0.34106-0.15159-0.62528-0.15159-0.45476 0-0.9853 0.36001-0.53055 0.36002-0.9853 0.73898t-0.90951 1.0042q-0.4358 0.60633-0.81476 1.3642-0.37896 0.75793-0.70108 1.6106-0.32212 0.83371-0.54949 1.6674-0.22738 0.81476-0.36002 1.5916-0.11368 0.77687-0.11368 1.3832 0 0.30317 0.0947 0.58739t0.24632 0.5116q0.17053 0.22737 0.39791 0.36001t0.49265 0.13264z"/>
   <path d="m138.82 183.3q0 0.17053-0.0758 0.45475t-0.22738 0.56844-0.39791 0.49265q-0.22737 0.20843-0.56844 0.22738-0.0758 0-0.32211 0-0.24633-0.0189-0.53055-0.0379t-0.53055-0.019q-0.24632-0.0189-0.36001-0.0189-3.1643 0.17054-5.476 2.2738-0.53055 0.4737-1.099 1.1179-0.54949 0.64424-1.099 1.4211-0.53054 0.75792-1.0232 1.6295t-0.89056 1.819q-0.32212 0.77687-0.62529 1.6106-0.30316 0.81476-0.53054 1.7243-0.13264 0.49265-0.20843 0.87161-0.0568 0.36001-0.20843 0.85266-0.0947 0.30317-0.32211 0.5116-0.22738 0.22737-0.53055 0.36001-0.30317 0.15159-0.64423 0.22738-0.32212 0.0758-0.64424 0.0947-1.2127 0-1.6674-1.099-0.45475-1.099-0.45475-3.278 0-0.49265 0-0.92846 0.019-0.4358 0.0379-0.87161 0.0379-0.45475 0.0758-0.92845 0.0379-0.49265 0.0947-1.099 0.0758-0.89055 0.20843-2.1032 0.13264-1.2316 0.28422-2.4822 0.15158-1.2695 0.32212-2.4443 0.18948-1.1748 0.37896-1.9896 0.22737-1.0042 0.75792-1.5727 0.54949-0.56845 1.5916-0.56845 0.30317 0 0.60634 0.17054 0.32212 0.15158 0.56844 0.37896 0.24633 0.22737 0.41686 0.49265 0.17053 0.26527 0.18948 0.4737l0.0189 0.34106q0 0.53055-0.0947 1.2506-0.0947 0.72003-0.26527 1.5348-0.15159 0.79581-0.34107 1.6295-0.17053 0.81476-0.36001 1.5727-0.17053 0.73897-0.32212 1.3832-0.13263 0.62529-0.20843 1.0422 0.66319-1.4022 1.4211-2.6906 0.75792-1.3074 1.6295-2.4064 0.87161-1.1179 1.8759-1.9895 1.0042-0.87161 2.1601-1.4022 0.90951-0.41686 1.6674-0.62528 0.75792-0.22738 1.3643-0.22738 0.72003 0 1.478 0.15158 0.77687 0.15159 1.4022 0.45476 0.64424 0.28422 1.0611 0.70107 0.41686 0.41686 0.41686 0.94741z"/>
   <path d="m150.03 184.13q0-1.1369-0.20843-1.6295-0.18948-0.5116-0.45475-0.5116-0.34106 0-0.73897 0.17053-0.37896 0.15159-0.73898 0.41686-0.36001 0.24632-0.68213 0.54949-0.30316 0.30317-0.51159 0.58739-0.37896 0.5495-0.85266 1.2506-0.47371 0.70108-0.96636 1.4969-0.49264 0.79582-0.96635 1.6295-0.45475 0.83372-0.81476 1.6485-0.36001 0.81477-0.58739 1.5727t-0.22738 1.3643q0 0.64423 0.18948 1.0421 0.18948 0.37896 0.68213 0.37896 0.26528 0 0.79582-0.37896 0.54949-0.37896 1.1748-0.9474 0.64423-0.58739 1.2695-1.2695 0.62528-0.68213 1.0421-1.3074 0.45475-0.68213 0.90951-1.459 0.45475-0.77687 0.83371-1.5727t0.60634-1.5727q0.24632-0.77687 0.24632-1.459zm11.369 8.1287q0 0.34107-0.13264 0.79582-0.13263 0.43581-0.45475 0.89056-0.36001 0.60634-0.9474 1.2506-0.58739 0.62528-1.3453 1.1558-0.73898 0.53055-1.6295 0.87161-0.87161 0.32212-1.838 0.32212-1.099 0-1.9516-0.45476-0.85267-0.45475-1.478-1.2316-0.62529-0.79582-1.0042-1.819-0.37896-1.0421-0.51159-2.179-0.79582 1.1748-1.819 2.2548-1.0042 1.0611-2.1222 1.8948-1.099 0.81476-2.2359 1.3074-1.1369 0.4737-2.1601 0.4737-0.73898 0-1.4022-0.32212-0.66318-0.34106-1.1748-0.9095-0.49265-0.56844-0.79582-1.3074-0.30317-0.73897-0.30317-1.5537 0-0.72002 0.11369-1.5158 0.13264-0.81477 0.41686-1.7432t0.73897-2.0274q0.4737-1.099 1.1558-2.4064 0.75793-1.459 1.838-2.7664 1.08-1.3264 2.198-2.3117 1.1179-1.0042 2.1601-1.5916 1.0421-0.58739 1.7053-0.58739 0.20843 0 0.45475 0.0758 0.26528 0.0568 0.49265 0.15158 0.22738 0.0758 0.39791 0.15159 0.17053 0.0758 0.22738 0.0758 0.0189 0 0.13263-0.0758 0.11369-0.0758 0.28422-0.15159 0.17054-0.0947 0.36002-0.15158 0.20843-0.0758 0.41685-0.0758 0.32212 0 0.68213 0.18949 0.37896 0.17053 0.72003 0.4737 0.34106 0.28422 0.60634 0.64423 0.26527 0.36001 0.34106 0.72003 0.0569 0.22737 0.0947 0.32211 0.0379 0.0758 0.0758 0.13264 0.24633 0.22738 0.39791 0.5116 0.15159 0.26527 0.15159 0.75792 0 0.22737-0.13264 0.83371-0.11369 0.58739-0.28422 1.3453-0.15158 0.75793-0.28422 1.5916-0.11369 0.81477-0.11369 1.4969 0 1.7622 0.20843 2.9748 0.22738 1.1937 0.56844 1.9327 0.34107 0.73897 0.77687 1.0611 0.43581 0.30317 0.87161 0.30317 1.1558 0 1.9706-0.4737 0.83371-0.4737 1.459-1.2885 0.17053-0.20843 0.28422-0.36001 0.13264-0.17054 0.24632-0.28422 0.13264-0.11369 0.28422-0.17054 0.17054-0.0568 0.39791-0.0568 0.28422 0 0.58739 0.24632 0.30317 0.22738 0.30317 0.60634z"/>
   <path d="m195.28 187.14q0.83371-0.20843 1.6864-0.43581 0.87161-0.22737 1.6106-0.45475-0.30317-0.92845-0.62529-1.9327-0.32211-1.0042-0.68213-1.9895-0.34106-1.0042-0.70108-1.9327-0.36001-0.9474-0.75792-1.7243-1.6106 2.198-3.2401 4.6233-1.6106 2.4254-3.0696 4.9454 0.56844-0.0568 1.1937-0.0758 0.62529-0.0379 1.0042-0.15158 0.51159-0.15158 0.9095-0.26527 0.41686-0.11369 0.81477-0.20843 0.41686-0.0947 0.85266-0.18948 0.43581-0.0947 1.0042-0.20843zm12.657 9.5498q0 0.47371-0.18948 0.89056-0.17053 0.41686-0.49265 0.73898-0.30317 0.30317-0.75792 0.49265-0.4358 0.18948-0.9474 0.18948-0.4737 0-0.92846-0.30317-0.45475-0.30317-0.89055-0.77687-0.41686-0.4737-0.81477-1.0611-0.37896-0.60634-0.70108-1.2127-0.30317-0.60634-0.54949-1.1558-0.24633-0.54949-0.39791-0.9095-0.20843-0.5116-0.41686-0.94741-0.20843-0.4358-0.4358-1.1179-0.13264-0.37896-0.20843-0.56844-0.0568-0.18948-0.11369-0.28422-0.0379-0.11369-0.0758-0.17054-0.019-0.0758-0.0568-0.20842-0.37896 0.17053-0.81476 0.20842-0.43581 0.019-0.96635 0.019-0.0947 0-0.32212 0.0758-0.22737 0.0568-0.53054 0.15159-0.28422 0.0947-0.60634 0.20843-0.30317 0.0947-0.58739 0.17053-0.90951 0.22738-1.9706 0.4358-1.0611 0.20843-2.2169 0.41686-1.1558 0.18948-2.3685 0.39791-1.1937 0.18948-2.4064 0.39791-0.13263 0.0189-0.22737 0.0758-0.0947 0.0568-0.26528 0.30317-0.17053 0.22738-0.51159 0.72003-0.34107 0.49265-0.96635 1.4022-0.72003 1.0421-1.3643 1.819-0.64424 0.75793-1.2127 1.3074-0.54949 0.54949-1.1748 0.83371-0.60633 0.28422-1.2695 0.28422-0.87161 0-1.5537-0.22737-0.68213-0.20843-1.1558-0.5495-0.45475-0.34106-0.70107-0.73897-0.22738-0.39791-0.22738-0.73897 0-0.64424 0.54949-0.89056 0.5495-0.26527 1.5158-0.43581 0-0.0189 0.20842-0.28422 0.20843-0.26527 0.49265-0.60634 0.28422-0.34106 0.5495-0.66318 0.28422-0.34106 0.39791-0.51159 0.73897-1.0232 1.5348-2.1222 0.81476-1.1179 1.7811-2.558v0.019q0.49265-0.72003 0.79582-1.1937 0.32212-0.4737 0.60634-0.89056t0.58739-0.85266q0.32212-0.43581 0.77687-1.08 1.1748-1.6485 2.0464-2.7854 0.89056-1.1558 1.459-1.9138 0.68213-1.0611 1.2885-2.0274 0.26527-0.41685 0.51159-0.83371 0.24633-0.4358 0.4737-0.83371 0.22738-0.39791 0.39791-0.73898 0.18948-0.36001 0.28422-0.60634 2.2548-5.5139 3.8654-5.5139 0.70108 0 1.1369 0.11369 0.4358 0.0947 0.66318 0.36001 0.24632 0.24633 0.32212 0.66319 0.0947 0.41685 0.0947 1.0421 0 0.58739 0 0.92845 0 0.32212-0.0189 0.56844-0.0189 0.24633-0.0379 0.49265 0 0.24633-0.0379 0.66319 0.45475 0.96635 0.87161 1.9895 0.4358 1.0232 0.81476 2.0274 0.0758 0.22738 0.32212 0.96635 0.26527 0.72003 0.60634 1.7053 0.36001 0.98529 0.73897 2.0843 0.39791 1.099 0.72003 2.0653 0.34106 0.96635 0.58739 1.6674 0.24632 0.70107 0.32211 0.89055 0.24633 1.0611 1.3832 3.5054 0.15158 0.30317 0.24632 0.53055 0.11369 0.22737 0.24633 0.4737 0.15158 0.24632 0.37896 0.56844t0.60634 0.83371q1.3074 1.7811 1.3074 2.6148z"/>
   <path d="m231.07 186.88q0 0.4358-0.22737 1.099-0.20843 0.64424-0.72003 1.5158-0.51159 0.85266-1.3643 1.9327-0.85266 1.08-2.1222 2.3685-0.70108 0.70108-1.5916 1.4022-0.87161 0.70108-1.8569 1.2506-0.9853 0.53055-2.0464 0.87161-1.0421 0.34107-2.0843 0.34107-1.4022 0-2.6338-0.49265-1.2127-0.49265-2.1222-1.4969-0.9095-1.0232-1.44-2.558-0.5116-1.5348-0.5116-3.6001 0-1.3453 0.13264-2.7854 0.13264-1.459 0.32212-2.9369 0.20843-1.478 0.45475-2.918 0.26527-1.459 0.5116-2.7854 0.17053-0.9095 0.28422-1.6106t0.20843-1.4022q0.11369-0.70107 0.24632-1.4969 0.13264-0.81477 0.32212-1.9138 0.0947-0.53055 0.32212-1.0042 0.22737-0.49265 0.56844-0.85266 0.36001-0.37896 0.83371-0.58739 0.4737-0.22738 1.0421-0.22738 1.4022 0 2.0464 1.3074l-0.20843 1.08q-0.17053 0.90951-0.45475 2.1411-0.26527 1.2127-0.58739 2.6527-0.30317 1.44-0.62528 3.0317-0.30317 1.5727-0.56845 3.2022-0.24632 1.6295-0.41685 3.2401-0.15159 1.6106-0.15159 3.1075 0 1.1369 0.15159 2.0653 0.17053 0.92845 0.53054 1.5916 0.36002 0.64423 0.92846 1.0042 0.56844 0.36002 1.3643 0.36002 0.79581 0 1.6485-0.32212 0.85266-0.34107 1.7053-0.87161 0.87161-0.53055 1.6864-1.2127 0.83371-0.68213 1.5537-1.3643 0.72002-0.70107 1.2885-1.3453 0.56845-0.66318 0.92846-1.1369 0.17053-0.22738 0.36001-0.4737 0.20843-0.26527 0.45475-0.49265 0.26528-0.22738 0.5495-0.37896 0.30317-0.15159 0.64423-0.15159 0.26527 0 0.45475 0.22738 0.18948 0.20843 0.18948 0.62529z"/>
   <path d="m240.21 183.77q0-0.17054-0.0758-0.39791-0.0568-0.22738-0.17054-0.41686-0.0947-0.20843-0.22737-0.34106-0.13264-0.15159-0.24633-0.15159-1.2506 0-2.2927 0.68213-1.0232 0.66318-2.1411 1.819-0.62529 0.62529-1.3453 1.6864-0.70108 1.0611-1.3074 2.2548-0.60633 1.1937-1.0042 2.3874t-0.39791 2.1032q0 0.22738 0.019 0.45476 0.0379 0.20843 0.11368 0.37896 0.0947 0.17053 0.24633 0.28422 0.15158 0.11369 0.39791 0.11369 0.72002 0 1.6295-0.45476 0.90951-0.4737 1.819-1.2127 0.92846-0.75792 1.7811-1.7243 0.87161-0.9853 1.459-2.0085 0.72002-1.2506 1.2316-2.6148t0.5116-2.8422zm17.224 1.9516q0 0.22737-0.0947 0.54949-0.0758 0.30317-0.20843 0.62528-0.13263 0.30317-0.30316 0.60634-0.15159 0.28422-0.30317 0.49265-0.0947 0.13264-0.30317 0.37896-0.20843 0.22738-0.4737 0.53055-0.26528 0.28422-0.60634 0.62528-0.32212 0.34107-0.66318 0.68213-1.099 1.0232-2.2359 2.0274-1.1179 0.9853-2.3496 1.7622-1.2316 0.75792-2.5769 1.2316-1.3453 0.4737-2.8612 0.4737-0.64423 0-1.3074-0.28422-0.66319-0.28422-1.2316-0.77687t-1.0042-1.1748q-0.41686-0.70108-0.58739-1.4969-0.34107 0.56844-0.89056 1.2316-0.54949 0.64424-1.2127 1.2885-0.64423 0.64424-1.3453 1.2316-0.70107 0.56845-1.3074 0.9853-0.41686 0.28422-1.0232 0.58739-0.58739 0.30317-1.2506 0.56844-0.66318 0.24633-1.3453 0.41686-0.66318 0.15159-1.2316 0.15159-0.90951 0-1.5916-0.5116-0.68213-0.53055-1.1369-1.2885-0.43581-0.75792-0.66318-1.6106-0.20843-0.85267-0.20843-1.5348 0-1.2506 0.36001-2.539 0.37896-1.3074 0.9474-2.539 0.58739-1.2316 1.2885-2.3496 0.72003-1.1179 1.4022-1.9895 0.72002-0.90951 1.7243-1.8001 1.0042-0.9095 2.1032-1.6106 1.099-0.72003 2.1601-1.1558 1.08-0.43581 1.9138-0.43581 0.45476 0 0.92846 0.0379 0.49265 0.0189 0.96635 0.0758 0.4737 0.0568 0.9095 0.17053 0.43581 0.11369 0.77687 0.28422 0.22738 0.15159 0.49265 0.5495 0.28422 0.37896 0.5116 0.83371 0.24632 0.43581 0.41686 0.87161 0.17053 0.43581 0.17053 0.68213 0 0.53055-0.17053 1.2695-0.15159 0.72003-0.36002 1.5158-0.18948 0.79582-0.36001 1.6295-0.17053 0.83371-0.17053 1.5916 0 0.53055 0.15158 1.08 0.15159 0.54949 0.43581 1.0042 0.28422 0.4358 0.68213 0.72002t0.89056 0.28422q1.1179 0 2.2169-0.41685 1.099-0.41686 2.198-1.1369 1.099-0.73897 2.198-1.7243 1.099-1.0042 2.2169-2.1601 0.0379 0 0.30316-0.28422 0.26528-0.28422 0.62529-0.62528 0.37896-0.34107 0.77687-0.62529 0.41686-0.28422 0.72003-0.28422 0.54949 0 0.72002 0.32212 0.17053 0.32211 0.17053 0.9853z"/>
   <path d="m262.32 180.4q0 0.20843-0.11369 0.5495-0.11368 0.34106-0.32211 0.73897-0.20843 0.37896-0.5116 0.79582-0.30317 0.39791-0.68213 0.75792-0.18948 0.17053-0.39791 0.39791-0.20843 0.20843-0.37896 0.45475-0.17053 0.24633-0.28422 0.5116t-0.11369 0.5116q0 0.45475 0.0947 0.89056 0.11369 0.4358 0.32212 0.92845 0.22738 0.4737 0.54949 1.0421 0.34107 0.5495 0.81477 1.2316 0.28422 0.39791 0.60634 0.89055 0.34106 0.49265 0.64423 1.0232 0.32212 0.53054 0.56844 1.099 0.24633 0.54949 0.36001 1.08 1.5727-1.3453 3.0885-2.899 1.5158-1.5727 2.8232-3.1264 1.3264-1.5727 2.3685-3.0317 1.0611-1.478 1.7053-2.6717 0.34107-0.60633 0.56845-1.0232 0.24632-0.41686 0.4737-0.66318 0.22737-0.24633 0.4737-0.34107 0.26527-0.11369 0.62528-0.11369 0.43581 0 0.66318 0.28423 0.22738 0.28422 0.22738 1.099 0 0.45476-0.34106 1.4022-0.34107 0.92845-1.099 2.2927t-1.9706 3.1454q-1.2127 1.7622-2.9748 3.8654-0.9474 1.1369-2.198 2.3685-1.2316 1.2316-2.5959 2.4064-1.3453 1.1558-2.7285 2.198-1.3832 1.0611-2.6148 1.838-1.2316 0.79582-2.2359 1.2506-1.0042 0.4737-1.6106 0.4737-0.4358 0-0.83371-0.22737-0.39791-0.22738-0.70108-0.56845-0.28422-0.32211-0.45475-0.70107-0.17054-0.36002-0.17054-0.64424 0-0.58739 0.28422-1.0232 0.30317-0.43581 0.75793-0.75792 0.45475-0.32212 1.0232-0.5495 0.56844-0.24632 1.1369-0.45475 0.56845-0.20843 1.0611-0.41686 0.5116-0.22737 0.81477-0.49265 0.20843-0.20842 0.32212-0.36001 0.11369-0.17053 0.17053-0.32212 0.0568-0.15158 0.0758-0.32211 0.019-0.18948 0.019-0.43581 0-0.24632-0.22738-0.68213-0.20842-0.4358-0.54949-0.96635-0.32212-0.53054-0.73897-1.099-0.39791-0.58739-0.79582-1.1179-0.37896-0.53054-0.70108-0.9853-0.32212-0.45475-0.49265-0.73897-0.4358-0.75792-0.77687-1.6485-0.34106-0.89056-0.34106-1.838 0-0.32212 0.0947-0.81477t0.22737-1.0042q0.15159-0.5116 0.32212-0.9853 0.18948-0.4737 0.36001-0.75792 0.0758-0.11369 0.26528-0.41686 0.20842-0.30317 0.51159-0.68213 0.30317-0.39791 0.68213-0.81477 0.37896-0.4358 0.77687-0.77687 0.39791-0.36001 0.79582-0.58739 0.39791-0.22737 0.75792-0.22737 1.08 0 1.8001 0.49265 0.72002 0.4737 0.72002 1.2695z"/>
   <path d="m299.4 190.29q0 0.20842-0.53055 0.9095t-1.4211 1.6295q-0.89056 0.92846-2.0464 1.9516-1.1369 1.0232-2.3875 1.8948-1.2506 0.85266-2.5011 1.4211-1.2316 0.54949-2.3117 0.54949-0.85266 0-1.5916-0.20842-0.73897-0.20843-1.4211-0.5495-0.66318-0.34106-1.2885-0.79582-0.60633-0.4737-1.1748-0.98529-0.56844-0.5116-1.1369-1.08t-1.099-1.099q-0.51159-0.54949-0.98529-1.0232-0.45476-0.47371-0.85267-0.79582-0.70107 0.70108-1.1558 1.1937-0.4358 0.49265-0.70107 0.92846-0.24633 0.41686-0.34107 0.85266-0.0947 0.41686-0.0947 1.0232 0 0.89055-0.0947 1.4779-0.0758 0.58739-0.32212 0.94741-0.24632 0.36001-0.70107 0.49264-0.45476 0.15159-1.1937 0.15159-0.56844 0-0.90951-0.11369-0.34106-0.0947-0.53054-0.32212-0.17054-0.22737-0.22738-0.58739-0.0568-0.36001-0.0568-0.85266t0.0568-1.08q0.0758-0.60633 0.17053-1.2316 0.0947-0.62528 0.18948-1.2127 0.11369-0.60634 0.18948-1.099 0.019-0.0947 0.0758-0.60634 0.0758-0.53054 0.17053-1.3264 0.0947-0.79582 0.22738-1.7811 0.13263-1.0042 0.24632-2.0274 0.13264-1.0232 0.24632-1.9895 0.13264-0.9853 0.22738-1.7622 0.0947-0.77687 0.15159-1.2695 0.0758-0.49265 0.0758-0.54949 0.15158-1.1558 0.28422-2.3496 0.15158-1.2127 0.26527-2.3875 0.13264-1.1937 0.22738-2.3306 0.0947-1.1369 0.13263-2.1601 0.0189-0.43581 0.17054-0.90951 0.15158-0.49265 0.4358-0.89056 0.30317-0.39791 0.72003-0.64423 0.4358-0.26527 1.0042-0.26527 0.77687 0 1.2127 0.24632 0.45475 0.24633 0.68213 0.60634 0.22737 0.34106 0.28422 0.72002 0.0568 0.36002 0.0568 0.60634 0 0.32212-0.0758 0.92846-0.0758 0.60633-0.18948 1.3643-0.0947 0.75792-0.22738 1.5727-0.13263 0.79582-0.26527 1.5158-0.11369 0.70107-0.20843 1.2316-0.0947 0.53054-0.13263 0.73897-0.37896 2.198-0.62529 3.5433-0.22738 1.3264-0.36001 2.0464-0.18948 1.0232-0.30317 1.7053t-0.18948 1.1937q-0.0758 0.49265-0.13264 0.89056-0.0568 0.37896-0.15158 0.81476 0.60634-0.77687 1.2885-1.6106 0.70107-0.83372 1.3832-1.6485 0.68213-0.83372 1.3074-1.5916 0.62528-0.75792 1.08-1.3832 0.4358-0.60634 1.08-1.4211 0.64423-0.83371 1.4211-1.5727 0.79582-0.73897 1.6674-1.2506 0.89055-0.53054 1.7811-0.53054 0.5495 0 0.90951 0.18948t0.56844 0.4737 0.28422 0.62528q0.0947 0.32212 0.0947 0.60634 0 0.4737-0.4358 1.0611-0.41686 0.58739-1.0422 1.2127-0.62528 0.60634-1.3264 1.2127-0.70108 0.60634-1.2506 1.1369-1.4211 1.3642-2.4822 2.4822-1.0422 1.1179-1.9327 2.179 0.49265 0.34107 1.0611 0.87162 0.56844 0.53054 1.1748 1.099 0.62529 0.56844 1.2695 1.1369 0.64424 0.56845 1.2695 1.0042 0.66318 0.45475 1.08 0.72003 0.43581 0.24632 0.77687 0.37896 0.34107 0.11369 0.66318 0.15158 0.32212 0.0189 0.73898 0.0189 0.53054 0 1.1748-0.22738 0.66318-0.22737 1.3453-0.60633 0.70107-0.37896 1.4022-0.85267 0.72003-0.4737 1.3643-0.98529 0.66318-0.5116 1.2316-1.0042 0.56845-0.49265 0.9853-0.89056 0.49265-0.45475 0.81477-0.73897t0.70108-0.28422q0.28422 0 0.4737 0.17053t0.30317 0.37896q0.11368 0.20843 0.15158 0.39791 0.0568 0.18948 0.0568 0.22738z"/>
   <path d="m310.47 181.1q0-0.0568-0.0379-0.20843-0.0189-0.17053-0.0568-0.26527-0.62529 0.0758-1.3832 0.49265-0.73897 0.39791-1.6106 1.2316-0.85266 0.83372-1.838 2.1601-0.9853 1.3074-2.0653 3.2022-0.28422 0.5116-0.60634 1.1179-0.32211 0.58739-0.60633 1.2695-0.26528 0.68213-0.43581 1.459-0.17053 0.75793-0.17053 1.6106 0 0.32212 0.17053 0.49265 0.18948 0.15158 0.37896 0.15158 0.43581 0 1.1179-0.49265 0.70107-0.51159 1.4969-1.3453 0.81477-0.83371 1.6485-1.8948 0.85266-1.08 1.5727-2.198 0.72002-1.1369 1.2506-2.2359 0.54949-1.1179 0.75792-2.0085 0.0568-0.28422 0.13264-0.66318 0.0758-0.37896 0.13263-0.73897 0.0758-0.37897 0.11369-0.68213 0.0379-0.30317 0.0379-0.45476zm15.291 2.3875q0 0.34106-0.11369 0.72002-0.11368 0.37896-0.30316 0.75792-0.17054 0.37897-0.39791 0.75793-0.22738 0.37896-0.4737 0.70107-1.099 1.478-2.3685 2.7854-1.2506 1.2885-2.5201 2.4254-0.68213 0.60633-1.4022 1.099-0.72002 0.49265-1.44 0.85267-0.72002 0.36001-1.4022 0.54949t-1.2695 0.18948q-0.72003 0-1.3832-0.45475-0.66318-0.45476-1.1748-1.1369-0.49265-0.70107-0.79582-1.4969-0.28422-0.79582-0.28422-1.478-0.22737 0.34106-0.66318 0.90951-0.4358 0.56844-0.9095 1.1558-0.47371 0.58739-0.89056 1.08-0.39791 0.4737-0.56844 0.68213-0.60634 0.64423-1.4022 1.3264t-1.5916 1.2316q-0.77687 0.54949-1.459 0.90951-0.68212 0.34106-1.0421 0.34106-0.83371 0-1.6106-0.26527t-1.3832-0.75792q-0.58739-0.5116-0.9474-1.2506-0.36001-0.73898-0.36001-1.6864 0-0.92845 0.24632-2.0274 0.26527-1.1179 0.70108-2.3117 0.45475-1.2127 1.08-2.4443 0.62528-1.2316 1.3453-2.3874 0.73897-1.1748 1.5537-2.2169 0.81476-1.0422 1.6674-1.8569 1.5158-1.4401 3.2212-2.1222 1.7053-0.68213 3.5243-0.68213 0.4737 0 0.79582 0.13263 0.32212 0.13264 0.54949 0.36001 0.22738 0.20843 0.37896 0.49265 0.17053 0.28422 0.30317 0.56845 0.0947 0.13263 0.30317 0.37896 0.22738 0.22737 0.45475 0.51159 0.22738 0.28422 0.39791 0.56844 0.17053 0.28423 0.17053 0.5116 0 0.39791-0.11368 0.87161-0.11369 0.45476-0.24633 1.0611-0.11369 0.60634-0.22737 1.3832-0.11369 0.75792-0.11369 1.7622 0 0.56844 0.0758 1.3264 0.0947 0.75792 0.26527 1.4211 0.17053 0.66318 0.41686 1.1369 0.26527 0.45475 0.58739 0.45475 0.39791 0 0.70108-0.0758 0.32211-0.0947 0.60633-0.24633 0.28422-0.17053 0.56844-0.3979 0.30317-0.22738 0.68213-0.49265 1.1748-0.85267 2.3496-1.9706 1.1937-1.1179 2.4254-2.2927 0.34107-0.32212 0.70108-0.72003 0.37896-0.39791 0.75792-0.73897 0.39791-0.34107 0.77687-0.56845 0.37896-0.22737 0.72003-0.22737 0.53054 0 0.53054 0.89056z"/>
   <path d="m348.69 191.56q0.17054 0 0.26528 0.20843 0.11368 0.18948 0.11368 0.66318 0 0.73898-0.49265 1.6106-0.4737 0.85266-1.4211 1.6106-0.92845 0.75792-2.3117 1.2695-1.3832 0.49265-3.1833 0.49265-1.6864 0-3.0317-0.53054-1.3453-0.5495-2.2927-1.6864-0.94741-1.1369-1.478-2.899-0.5116-1.7811-0.54949-4.2633-0.85267 0.72002-1.7432 1.7432-0.89056 1.0042-1.6864 2.0464-0.79582 1.0421-1.44 1.9516-0.62529 0.9095-0.96635 1.4022-0.49265 0.73898-0.81477 1.2506-0.30317 0.49265-0.60634 0.81477-0.28422 0.30317-0.64423 0.45475-0.36001 0.13264-0.96635 0.13264-0.54949 0-1.0042-0.17053-0.45475-0.17054-0.79581-0.43581-0.32212-0.26527-0.5116-0.58739-0.17053-0.34106-0.17053-0.68213 0-0.32212 0.0379-0.75792 0.0379-0.43581 0.0947-0.89056 0.0758-0.45475 0.13264-0.89056 0.0758-0.45475 0.13263-0.81476 0.0758-0.4737 0.15159-1.0042 0.0947-0.53054 0.18948-1.1748 0.11369-0.64423 0.20843-1.4211 0.11369-0.79582 0.20843-1.7622 0.11368-1.1369 0.20843-2.198 0.11368-1.08 0.26527-2.2169 0.0947-0.66318 0.24632-1.2127 0.15159-0.56844 0.43581-0.96635t0.73897-0.62529q0.45475-0.22737 1.1748-0.22737 0.64423 0 1.0232 0.15158 0.37897 0.15159 0.56845 0.41686 0.18948 0.24632 0.22737 0.58739 0.0568 0.32212 0.0568 0.66318 0 0.18948-0.019 0.34106 0 0.15159-0.019 0.28423 0 0-0.0189 0.15158 0 0.15158-0.0758 0.58739-0.0758 0.4358-0.24632 1.2316-0.15159 0.77687-0.43581 2.0843-0.17053 0.75792-0.36001 1.5537t-0.36002 1.5158q-0.15158 0.72003-0.26527 1.3074-0.11369 0.56844-0.15158 0.89055 0.45475-0.53054 1.0611-1.3074 0.60634-0.79582 1.2127-1.6106 0.60634-0.81477 1.1748-1.5537 0.56844-0.73898 0.96635-1.1937 0.64424-0.72003 1.2506-1.3643 0.62529-0.64423 1.2885-1.1179 0.66318-0.49264 1.4022-0.75792 0.73897-0.28422 1.6295-0.28422 0.5116 0 0.81476 0.11369 0.30317 0.11369 0.45476 0.32212 0.17053 0.18948 0.20843 0.45475 0.0568 0.24632 0.0568 0.53055v0.30316q0 0.11369-0.0568 0.5495-0.0379 0.41685-0.11369 0.9095-0.0569 0.49265-0.11369 0.92846-0.0379 0.4358-0.0379 0.56844 0 1.459 0.22738 2.7285t0.70108 2.2169q0.49265 0.92845 1.2506 1.478 0.75792 0.53054 1.819 0.53054 0.73897 0 1.2885-0.0758 0.54949-0.0947 1.0611-0.28422 0.53054-0.20843 1.08-0.53055 0.54949-0.34106 1.2695-0.81476 0.26527-0.20843 0.54949-0.37896 0.24632-0.15159 0.53055-0.24633 0.30316-0.11369 0.60633-0.11369z"/>
   <path d="m382.68 187.14q0.83371-0.20843 1.6864-0.43581 0.87161-0.22737 1.6106-0.45475-0.30317-0.92845-0.62529-1.9327t-0.68213-1.9895q-0.34106-1.0042-0.70108-1.9327-0.36001-0.9474-0.75792-1.7243-1.6106 2.198-3.2401 4.6233-1.6106 2.4254-3.0696 4.9454 0.56844-0.0568 1.1937-0.0758 0.62528-0.0379 1.0042-0.15158 0.51159-0.15158 0.9095-0.26527 0.41686-0.11369 0.81477-0.20843 0.41686-0.0947 0.85266-0.18948 0.43581-0.0947 1.0042-0.20843zm12.657 9.5498q0 0.47371-0.18948 0.89056-0.17053 0.41686-0.49265 0.73898-0.30317 0.30317-0.75792 0.49265-0.4358 0.18948-0.9474 0.18948-0.4737 0-0.92846-0.30317-0.45475-0.30317-0.89055-0.77687-0.41686-0.4737-0.81477-1.0611-0.37896-0.60634-0.70108-1.2127-0.30317-0.60634-0.54949-1.1558-0.24633-0.54949-0.39791-0.9095-0.20843-0.5116-0.41686-0.94741-0.20843-0.4358-0.4358-1.1179-0.13264-0.37896-0.20843-0.56844-0.0568-0.18948-0.11369-0.28422-0.0379-0.11369-0.0758-0.17054-0.019-0.0758-0.0568-0.20842-0.37896 0.17053-0.81476 0.20842-0.43581 0.019-0.96635 0.019-0.0947 0-0.32212 0.0758-0.22738 0.0568-0.53054 0.15159-0.28423 0.0947-0.60634 0.20843-0.30317 0.0947-0.58739 0.17053-0.90951 0.22738-1.9706 0.4358-1.0611 0.20843-2.2169 0.41686-1.1558 0.18948-2.3685 0.39791-1.1937 0.18948-2.4064 0.39791-0.13263 0.0189-0.22737 0.0758-0.0947 0.0568-0.26528 0.30317-0.17053 0.22738-0.51159 0.72003-0.34107 0.49265-0.96635 1.4022-0.72003 1.0421-1.3643 1.819-0.64424 0.75793-1.2127 1.3074-0.54949 0.54949-1.1748 0.83371-0.60633 0.28422-1.2695 0.28422-0.87161 0-1.5537-0.22737-0.68213-0.20843-1.1558-0.5495-0.45475-0.34106-0.70107-0.73897-0.22738-0.39791-0.22738-0.73897 0-0.64424 0.54949-0.89056 0.5495-0.26527 1.5158-0.43581 0-0.0189 0.20842-0.28422 0.20843-0.26527 0.49265-0.60634 0.28422-0.34106 0.5495-0.66318 0.28422-0.34106 0.39791-0.51159 0.73897-1.0232 1.5348-2.1222 0.81476-1.1179 1.7811-2.558v0.019q0.49265-0.72003 0.79582-1.1937 0.32212-0.4737 0.60634-0.89056t0.58739-0.85266q0.32212-0.43581 0.77687-1.08 1.1748-1.6485 2.0464-2.7854 0.89056-1.1558 1.459-1.9138 0.68213-1.0611 1.2885-2.0274 0.26528-0.41685 0.5116-0.83371 0.24633-0.4358 0.4737-0.83371 0.22738-0.39791 0.39791-0.73898 0.18948-0.36001 0.28422-0.60634 2.2548-5.5139 3.8654-5.5139 0.70108 0 1.1369 0.11369 0.4358 0.0947 0.66318 0.36001 0.24632 0.24633 0.32212 0.66319 0.0947 0.41685 0.0947 1.0421 0 0.58739 0 0.92845 0 0.32212-0.0189 0.56844-0.019 0.24633-0.0379 0.49265 0 0.24633-0.0379 0.66319 0.45475 0.96635 0.87161 1.9895 0.4358 1.0232 0.81476 2.0274 0.0758 0.22738 0.32212 0.96635 0.26527 0.72003 0.60634 1.7053 0.36001 0.98529 0.73897 2.0843 0.39791 1.099 0.72003 2.0653 0.34106 0.96635 0.58738 1.6674 0.24633 0.70107 0.32212 0.89055 0.24633 1.0611 1.3832 3.5054 0.15158 0.30317 0.24632 0.53055 0.11369 0.22737 0.24633 0.4737 0.15158 0.24632 0.37896 0.56844t0.60634 0.83371q1.3074 1.7811 1.3074 2.6148z"/>
   <path d="m408.26 170.62q0 0.62529-0.18948 1.1937-0.18948 0.54949-0.5495 1.0421-0.72002 1.0042-2.2169 1.0042-0.5116 0-1.0611-0.0758-0.54949-0.0947-1.0042-0.26528-0.4358-0.18948-0.72002-0.45475t-0.28422-0.60634q0-0.58739 0.30317-1.2316 0.32211-0.66318 0.79581-1.2127 0.47371-0.56845 1.0422-0.92846 0.58739-0.37896 1.1179-0.37896 0.66318 0 1.1748 0.0947 0.5116 0.0758 0.87161 0.28422 0.36001 0.20843 0.53055 0.58739 0.18948 0.37896 0.18948 0.9474zm7.3708 21.98q-0.62529 0.62528-1.1937 1.1748-0.54949 0.54949-1.1179 1.0421-0.56845 0.49265-1.1558 0.96635-0.56844 0.4737-1.2127 0.9474-1.3074 0.9474-2.5769 1.478-1.2695 0.5116-2.4064 0.5116-1.3264 0-2.3117-0.43581-0.96635-0.45475-1.6674-1.2127-0.68213-0.77687-1.1179-1.7622-0.43581-1.0042-0.70108-2.1032-0.24632-1.1179-0.34106-2.2548-0.0947-1.1369-0.0947-2.1601 0-0.39791 0.0568-1.1369 0.0568-0.75793 0.15158-1.5727 0.11369-0.83372 0.22738-1.6106 0.13264-0.77686 0.26527-1.2506 0.15159-0.49265 0.4737-0.92845 0.34107-0.45475 0.83372-0.83371 0.9853-0.79582 2.198-0.79582 1.2316 0 1.2316 1.478 0 0.51159-0.11369 1.2127t-0.20843 1.4211q-0.11369 0.85267-0.20843 1.5348-0.0947 0.66318-0.17053 1.2127-0.0568 0.53055-0.0947 0.96635-0.0379 0.43581-0.0379 0.83371 0 0.72003 0.0947 1.6106 0.11369 0.89056 0.32212 1.6674 0.20843 0.75792 0.5116 1.2885 0.30316 0.5116 0.70107 0.5116 0.58739 0 1.3264-0.13263 0.73897-0.15159 1.5727-0.62529 0.79582-0.45475 1.6485-1.0611 0.87161-0.60634 1.7811-1.4022 0.85266-0.73897 1.6674-1.4779 0.83371-0.73898 1.6674-1.6106 0.37896-0.39791 0.68213-0.72002 0.32211-0.32212 0.58739-0.60634 0.26527-0.30317 0.51159-0.56844 0.26528-0.28422 0.5495-0.58739 0.0758-0.0947 0.18948-0.20843 0.11369-0.13264 0.24632-0.24633 0.13264-0.13263 0.28422-0.20842 0.15159-0.0947 0.30317-0.0947 0.20843 0 0.43581 0.0947 0.24632 0.0947 0.37896 0.37896 0.13263 0.26527 0.15158 0.53054 0.019 0.24633 0.019 0.41686 0 0.18948-0.20843 0.62528-0.20843 0.41686-0.54949 0.9853-0.34107 0.56844-0.79582 1.2127-0.45475 0.64423-0.92845 1.2885-0.47371 0.64423-0.96635 1.2316-0.47371 0.56844-0.89056 0.9853z"/>
   <path d="m435.56 182.75q0 0.77687-0.49265 1.2885-0.49265 0.49265-1.2316 0.49265-0.5116 0-0.92845-0.18948-0.39791-0.18948-0.73898-0.41686-0.34106-0.24632-0.64423-0.4358-0.28422-0.18948-0.58739-0.18948-0.34107 0-0.73898 0.22737-0.3979 0.22738-0.83371 0.62529-0.4358 0.37896-0.90951 0.89056-0.45475 0.51159-0.9095 1.08-0.32212 0.3979-0.72003 0.96635-0.39791 0.54949-0.79582 1.1558-0.3979 0.60633-0.75792 1.2316-0.36001 0.62528-0.62528 1.1558-0.22738 0.4737-0.5116 1.099-0.26527 0.62528-0.5116 1.2695-0.22737 0.64423-0.41685 1.2316-0.18949 0.58739-0.24633 0.9853-0.11369 0.73897-0.22738 1.3643-0.11368 0.62528-0.32211 1.08-0.18948 0.4358-0.53055 0.68213-0.32211 0.24632-0.89056 0.24632-1.0232 0-1.5348-0.43581-0.5116-0.4358-0.73897-1.1179-0.20843-0.68213-0.24633-1.4969-0.0379-0.81476-0.11368-1.5727-0.0568-0.49265-0.0947-0.9853t-0.0758-1.0232q-0.019-0.54949-0.0379-1.1558-0.019-0.62528-0.019-1.3643 0-0.96635 0.0758-2.1601 0.0758-1.1937 0.17053-2.2927 0.11369-1.099 0.22738-1.9516 0.13264-0.85266 0.22738-1.1369 0.18948-0.5116 0.51159-0.96635 0.32212-0.4737 0.70108-0.81477 0.39791-0.36001 0.81477-0.56844 0.4358-0.20843 0.83371-0.20843 0.36001 0 0.72003 0.0947 0.37896 0.0947 0.66318 0.32212 0.30317 0.22738 0.49265 0.60634 0.18948 0.36001 0.18948 0.90951 0 0.13263-0.0947 0.4358-0.0947 0.28422-0.24633 0.83371-0.17053 0.58739-0.37896 1.3643t-0.39791 1.5916q-0.17053 0.81477-0.30316 1.6106-0.13264 0.79582-0.15159 1.4211 0.0947-0.20843 0.34107-0.68213 0.24632-0.49265 0.51159-1.0232 0.28422-0.54949 0.5495-1.0421 0.26527-0.5116 0.39791-0.73897 0.54949-0.92846 1.2695-1.9706 0.72003-1.0421 1.6295-1.9138 0.92845-0.89056 2.0843-1.459 1.1558-0.58739 2.539-0.58739 1.0611 0 1.819 0.32211 0.77687 0.30317 1.2695 0.81477t0.72003 1.1748q0.24632 0.64423 0.24632 1.3264z"/>
   <path d="m483.56 186.16q0 0.66318-0.5116 1.4969-0.5116 0.83371-1.3832 1.7622-0.87161 0.9095-2.0274 1.8948t-2.4443 1.9706q-1.7432 1.3264-3.7138 2.539-1.9516 1.2127-3.9791 2.1601-2.0274 0.92846-4.0359 1.478-2.0085 0.56844-3.8275 0.56844-2.179 0-3.7707-0.62528-1.5916-0.60634-2.6338-1.7432-1.0422-1.1369-1.5537-2.7285-0.49265-1.6106-0.49265-3.5622 0-1.6295 0.37896-3.3348 0.37896-1.7053 1.0421-3.3728 0.68213-1.6674 1.5916-3.2212 0.9095-1.5537 1.9516-2.8612 0.60633-0.75792 1.44-1.5727 0.83371-0.83371 1.7622-1.6295 0.92845-0.79582 1.8758-1.4779 0.9474-0.70108 1.8001-1.2127 0.60633-0.36001 1.5348-0.79582 0.92845-0.45475 1.9327-0.83371 1.0232-0.39791 2.0085-0.66318 0.9853-0.26528 1.7053-0.26528 1.2885 0 2.0464 0.17054 0.75792 0.17053 1.3453 0.60633 0.28422 0.20843 0.64423 0.64424 0.36001 0.4358 0.68213 0.9474t0.54949 1.0232q0.22738 0.49265 0.22738 0.83372 0 0.22737-0.15158 0.62528-0.13264 0.37896-0.36002 0.83372-0.22737 0.45475-0.51159 0.9474-0.28423 0.4737-0.56845 0.90951-0.26527 0.4358-0.51159 0.77687-0.24633 0.34106-0.37896 0.51159-0.85267 1.0042-2.1411 1.0042-1.08 0-1.6864-0.60634-0.58739-0.60634-0.58739-1.5158 0-0.28422 0.32212-0.89056 0.32211-0.62528 1.0611-1.3643 0.36001-0.36001 0.62528-0.70108 0.26528-0.36001 0.41686-0.62528-0.4737-0.17053-0.96635-0.17053-0.58739 0-1.478 0.30316-0.87161 0.28422-1.838 0.73898-0.9474 0.4358-1.8569 0.9853-0.9095 0.54949-1.5348 1.0611-1.7432 1.4211-3.297 3.2022-1.5537 1.7811-2.5769 3.8844-0.39791 0.83371-0.75792 1.7811-0.36002 0.94741-0.62529 1.9327-0.26527 0.96635-0.41686 1.9516-0.15158 0.96635-0.15158 1.838 0 0.96635 0.20843 1.7811t0.68213 1.4211q0.49265 0.60634 1.2695 0.94741 0.77687 0.34106 1.9138 0.34106 1.3453 0 2.8233-0.36001 1.478-0.37896 2.9938-1.0042 1.5158-0.64423 3.0317-1.459 1.5348-0.83371 2.9369-1.7432 1.4211-0.90951 2.6717-1.838 1.2695-0.92845 2.2927-1.7622 0.39791-0.32211 0.87161-0.75792 0.49265-0.43581 0.9853-0.90951 0.5116-0.4737 0.9853-0.96635 0.49265-0.49265 0.89056-0.9095 0.4358 0.22737 0.68213 0.39791 0.26527 0.17053 0.37896 0.36001 0.13263 0.17053 0.17053 0.37896t0.0379 0.4737z"/>
   <path d="m516.41 185.95q0 0.26528-0.18948 0.64424-0.17053 0.36001-0.49265 0.85266-0.18948 0.30317-0.5116 0.70108-0.30317 0.3979-0.66318 0.81476-0.34106 0.41686-0.68213 0.81477-0.34106 0.39791-0.62528 0.68213-1.08 1.099-2.3117 2.1222-1.2127 1.0232-2.558 1.819-1.3264 0.79582-2.7475 1.2885-1.4211 0.4737-2.937 0.4737-1.3074 0-2.2927-0.4737-0.96635-0.4737-1.5158-1.5158-0.18948-0.34106-0.39791-1.08-0.18948-0.73898-0.36001-1.5727-0.17054-0.85266-0.28423-1.6674-0.11368-0.81477-0.15158-1.3264-0.019-0.34107-0.0568-0.77687-0.0379-0.45476-0.11369-0.85267-0.0568-0.3979-0.17053-0.66318-0.0947-0.28422-0.26528-0.28422-0.18948 0-0.36001 0.0947-0.34106 0.17054-1.1369 0.89056-0.77687 0.70108-1.7811 1.8001-1.0042 1.08-2.1222 2.4822-1.1179 1.3832-2.1222 2.918-0.37896 0.56844-0.77687 1.2695-0.39791 0.68213-0.79582 1.4022-0.37896 0.70108-0.75792 1.3643-0.36001 0.66318-0.66318 1.1748-0.20843 0.30317-0.49265 0.5116-0.28422 0.22738-0.56844 0.36001-0.26528 0.13264-0.49265 0.18948-0.22738 0.0568-0.34107 0.0568-0.41685 0-0.79582-0.18948-0.36001-0.18948-0.64423-0.49265-0.26527-0.28422-0.4358-0.66319-0.15159-0.37896-0.15159-0.75792 0-0.20843 0.0568-0.73897 0.0758-0.54949 0.17053-1.2316 0.11369-0.68213 0.20843-1.4211 0.11368-0.73897 0.18948-1.3643 0.15158-1.2127 0.30317-2.6527 0.17053-1.44 0.30316-2.899 0.15159-1.459 0.26528-2.8422 0.13263-1.4022 0.18948-2.5201 0.019-0.36001 0.0568-0.9474 0.0379-0.60634 0.0758-1.3264 0.0568-0.73897 0.0947-1.5158 0.0379-0.79582 0.0758-1.5537 0.0568-0.75792 0.0758-1.4211 0.0379-0.66319 0.0568-1.1179 0.019-0.53054 0.0568-0.9853 0.0568-0.4737 0.15158-0.92845 0.11369-0.45475 0.26527-0.90951 0.17054-0.4737 0.43581-1.0232 0.0947-0.20843 0.30317-0.45476 0.20843-0.24632 0.49265-0.45475 0.30317-0.20843 0.64423-0.34106 0.36001-0.15159 0.72003-0.15159 0.79581 0 1.3453 0.56844 0.56844 0.5495 0.56844 1.5537 0 0.28422-0.0758 0.75793-0.0568 0.4737-0.15159 0.92845-0.0758 0.45475-0.15158 0.83371-0.0568 0.36002-0.0568 0.45476-0.0568 0.26527-0.15158 0.96635-0.0947 0.68213-0.22738 1.6295-0.11369 0.92845-0.24632 2.0464-0.13264 1.099-0.28422 2.2359-0.13264 1.1179-0.26527 2.179-0.13264 1.0611-0.24633 1.8948-0.0947 0.83371-0.15158 1.3643-0.0568 0.53054-0.0758 0.60633-0.0568 0.37897-0.15158 1.08-0.0758 0.68213-0.18948 1.4211-0.0947 0.72002-0.18948 1.3643-0.0758 0.64423-0.11369 0.92845 0.17053-0.24632 0.43581-0.66318 0.28422-0.43581 0.56844-0.87161 0.30317-0.45475 0.56844-0.85266t0.39791-0.58739q0.30317-0.45476 0.70107-1.0232 0.41686-0.56844 0.87162-1.1558 0.45475-0.60634 0.9474-1.1748 0.49265-0.58739 0.9474-1.0611 0.58739-0.60634 1.3264-1.2506 0.73898-0.64423 1.5537-1.1748 0.81477-0.53054 1.6674-0.87161 0.85266-0.34106 1.6485-0.34106 0.20843 0 0.5116 0.0947 0.32211 0.0947 0.62528 0.28422 0.32212 0.17053 0.58739 0.4358 0.26528 0.26528 0.37896 0.60634 0.24633 0.68213 0.41686 1.6674 0.17053 0.96635 0.30317 2.0274 0.15158 1.0421 0.30317 2.0843 0.15158 1.0232 0.34106 1.8569 0.18948 0.81477 0.43581 1.3264 0.26527 0.51159 0.64423 0.51159 0.5116 0 0.9474-0.0379 0.45476-0.0379 0.87161-0.13264 0.43581-0.0947 0.87161-0.24632 0.43581-0.15159 0.92846-0.39791 1.0421-0.5116 1.8001-0.96635 0.75793-0.45476 1.4211-0.9474 0.68213-0.5116 1.3643-1.1179 0.70107-0.62528 1.5916-1.44 0.9474-0.87161 1.6485-1.4022 0.72003-0.54949 1.0421-0.54949 0.22738 0 0.36002 0.0947 0.15158 0.0947 0.22737 0.24633 0.0758 0.13263 0.0947 0.30316 0.0379 0.17054 0.0379 0.30317z"/>
   <path d="m523.48 184.13q0-1.1369-0.20843-1.6295-0.18948-0.5116-0.45475-0.5116-0.34107 0-0.73898 0.17053-0.37896 0.15159-0.73897 0.41686-0.36001 0.24632-0.68213 0.54949-0.30317 0.30317-0.5116 0.58739-0.37896 0.5495-0.85266 1.2506-0.4737 0.70108-0.96635 1.4969t-0.96635 1.6295q-0.45475 0.83372-0.81477 1.6485-0.36001 0.81477-0.58739 1.5727-0.22737 0.75792-0.22737 1.3643 0 0.64423 0.18948 1.0421 0.18948 0.37896 0.68213 0.37896 0.26527 0 0.79581-0.37896 0.5495-0.37896 1.1748-0.9474 0.64424-0.58739 1.2695-1.2695 0.62529-0.68213 1.0422-1.3074 0.45475-0.68213 0.9095-1.459t0.83372-1.5727q0.37896-0.79582 0.60633-1.5727 0.24633-0.77687 0.24633-1.459zm11.369 8.1287q0 0.34107-0.13264 0.79582-0.13264 0.43581-0.45475 0.89056-0.36002 0.60634-0.94741 1.2506-0.58739 0.62528-1.3453 1.1558-0.73897 0.53055-1.6295 0.87161-0.87161 0.32212-1.838 0.32212-1.099 0-1.9516-0.45476-0.85266-0.45475-1.478-1.2316-0.62528-0.79582-1.0042-1.819-0.37896-1.0421-0.5116-2.179-0.79582 1.1748-1.819 2.2548-1.0042 1.0611-2.1222 1.8948-1.099 0.81476-2.2359 1.3074-1.1369 0.4737-2.1601 0.4737-0.73897 0-1.4022-0.32212-0.66318-0.34106-1.1748-0.9095-0.49265-0.56844-0.79582-1.3074-0.30317-0.73897-0.30317-1.5537 0-0.72002 0.11369-1.5158 0.13263-0.81477 0.41685-1.7432t0.73898-2.0274q0.4737-1.099 1.1558-2.4064 0.75792-1.459 1.838-2.7664 1.08-1.3264 2.198-2.3117 1.1179-1.0042 2.1601-1.5916t1.7053-0.58739q0.20843 0 0.45476 0.0758 0.26527 0.0568 0.49265 0.15158 0.22737 0.0758 0.39791 0.15159 0.17053 0.0758 0.22737 0.0758 0.019 0 0.13264-0.0758 0.11369-0.0758 0.28422-0.15159 0.17053-0.0947 0.36001-0.15158 0.20843-0.0758 0.41686-0.0758 0.32212 0 0.68213 0.18949 0.37896 0.17053 0.72002 0.4737 0.34107 0.28422 0.60634 0.64423t0.34107 0.72003q0.0568 0.22737 0.0947 0.32211 0.0379 0.0758 0.0758 0.13264 0.24632 0.22738 0.39791 0.5116 0.15158 0.26527 0.15158 0.75792 0 0.22737-0.13263 0.83371-0.11369 0.58739-0.28422 1.3453-0.15159 0.75793-0.28423 1.5916-0.11368 0.81477-0.11368 1.4969 0 1.7622 0.20842 2.9748 0.22738 1.1937 0.56845 1.9327 0.34106 0.73897 0.77687 1.0611 0.4358 0.30317 0.87161 0.30317 1.1558 0 1.9706-0.4737 0.83372-0.4737 1.459-1.2885 0.17053-0.20843 0.28422-0.36001 0.13264-0.17054 0.24633-0.28422 0.13263-0.11369 0.28422-0.17054 0.17053-0.0568 0.39791-0.0568 0.28422 0 0.58739 0.24632 0.30317 0.22738 0.30317 0.60634z"/>
   <path d="m554.69 183.62q0 0.15159-0.0568 0.43581-0.0379 0.28422-0.17053 0.56844-0.11369 0.26527-0.32212 0.4737t-0.54949 0.20843q-0.30317 0-0.68213-0.0568-0.36002-0.0758-0.62529-0.0758-0.60634 0-1.1179 0.0947-0.5116 0.0947-1.0042 0.30317-0.49265 0.20843-1.0042 0.56844-0.51159 0.36002-1.1179 0.90951-0.56844 0.5116-1.1558 1.1937-0.56844 0.66318-1.1179 1.4779-0.54949 0.79582-1.0611 1.6864-0.51159 0.89056-0.9095 1.838-0.32212 0.75792-0.62529 1.5916-0.28422 0.81476-0.54949 1.7243-0.11369 0.49265-0.18948 0.87161-0.0569 0.36001-0.22738 0.85266-0.0758 0.26527-0.34106 0.4737-0.24633 0.20843-0.58739 0.36001-0.32212 0.15159-0.68213 0.24633-0.34107 0.0947-0.58739 0.11369-1.1937 0-1.7243-1.099-0.5116-1.099-0.5116-3.278 0-0.49265 0.019-0.92846 0.0189-0.4358 0.0568-0.87161 0.0379-0.45475 0.0758-0.9474 0.0569-0.49265 0.11369-1.08 0.0947-0.89055 0.22738-2.1032 0.13263-1.2316 0.30317-2.4822 0.17053-1.2695 0.36001-2.4443t0.37896-1.9896q0.22738-1.0042 0.75792-1.5727 0.5495-0.56845 1.5916-0.56845 0.39791 0 0.73897 0.18948 0.36001 0.18949 0.60634 0.47371 0.26527 0.28422 0.39791 0.60633 0.15158 0.32212 0.15158 0.60634 0 0.77687-0.22737 1.9138-0.20843 1.1369-0.49265 2.3306-0.28422 1.1748-0.56844 2.2548-0.26528 1.08-0.37897 1.7432 0.66319-1.4022 1.4211-2.6906 0.75792-1.3074 1.5348-2.3685 0.79582-1.0611 1.5727-1.838 0.77687-0.79582 1.44-1.1937 0.85266-0.49265 1.6674-0.66319 0.81476-0.18948 1.3453-0.18948 0.58739 0 1.2506 0.15159 0.68213 0.15158 1.2506 0.45475t0.9474 0.73897q0.37896 0.43581 0.37896 0.9853zm2.3117 9.114q0-0.87161 0.0947-1.7432 0.11368-0.89056 0.26527-1.7432 0.17053-0.87161 0.36001-1.6864 0.18948-0.81477 0.34107-1.5537 0.20842-0.9853 0.37896-1.8001 0.17053-0.81476 0.20843-1.478-0.0947 0-0.30317 0.0189-0.18948 0-0.39791 0t-0.39791 0.019q-0.17053 0-0.22738 0-1.0232 0-1.5916-0.45475-0.5495-0.45476-0.5495-1.2695 0-0.41686 0.18948-0.75792 0.20843-0.34107 0.53055-0.56844 0.32212-0.24633 0.72002-0.37897 0.41686-0.13263 0.81477-0.13263 0.32212 0 0.83371-0.0758 0.53055-0.0947 1.0042-0.13264 0.15159 0 0.28422-0.20843 0.13264-0.20843 0.24633-0.49265 0.11368-0.28422 0.18948-0.58739 0.0947-0.32211 0.13263-0.54949 0.0947-0.5116 0.26528-1.2506 0.18948-0.73898 0.3979-1.5158 0.22738-0.77687 0.45476-1.4779 0.24632-0.72003 0.4737-1.1369 0.30317-0.58739 0.66318-0.89055 0.36001-0.30317 1.08-0.30317 1.0042 0 1.459 0.4737 0.4737 0.4737 0.4737 1.459 0 0.45475-0.20843 1.1748-0.18948 0.72002-0.4358 1.5537-0.24633 0.81476-0.4737 1.6674-0.20843 0.83372-0.22738 1.4969 0.24632 0 0.68213-0.0379 0.45475-0.0379 0.9853-0.0947 0.54949-0.0568 1.1369-0.11368 0.58739-0.0758 1.1179-0.15159 0.5495-0.0758 1.0042-0.13264 0.45475-0.0758 0.70108-0.13263 0.79582-0.17053 1.2127-0.24633 0.43581-0.0947 0.77687-0.17053 0.36002-0.0758 0.75793-0.17053 0.41685-0.11369 1.1558-0.32212 0.13263 0.019 0.28422 0.13264 0.15158 0.0947 0.26527 0.24632 0.13264 0.13264 0.20843 0.28422 0.0947 0.15159 0.0947 0.24633 0 0.73897-0.58739 1.3264-0.56844 0.58739-1.5727 1.0421-0.9853 0.45476-2.3306 0.79582-1.3453 0.34107-2.8612 0.60634-0.79582 0.13264-1.4401 0.22738-0.62528 0.0947-1.099 0.18948-0.4737 0.0758-0.77687 0.18948-0.30317 0.0947-0.45475 0.24632-0.24633 0.85266-0.56845 2.0464-0.30317 1.1748-0.58739 2.4822-0.28422 1.3074-0.4737 2.6527-0.18948 1.3264-0.18948 2.4822 0 1.3074 0.5116 1.9516 0.5116 0.64424 1.44 0.64424 0.85266 0 1.6674-0.11369 0.83371-0.13264 1.7243-0.45475 0.90951-0.34107 1.9138-0.90951 1.0232-0.56844 2.2738-1.459 0.34106-0.26527 0.70108-0.58739 0.37896-0.32212 0.75792-0.60634 0.37896-0.30316 0.77687-0.49265 0.39791-0.20842 0.81477-0.20842 0.37896 0 0.58738 0.18948 0.22738 0.17053 0.22738 0.54949 0 0.28422-0.18948 0.70108-0.18948 0.39791-0.53054 0.85266-0.34107 0.45475-0.81477 0.9474-0.45475 0.4737-1.0232 0.90951-1.099 0.87161-2.3117 1.6674-1.1937 0.77687-2.4443 1.3643-1.2316 0.58739-2.4822 0.92845t-2.4822 0.34106q-1.5158 0-2.5769-0.45475-1.0611-0.4737-1.7432-1.2506-0.66318-0.77687-0.9853-1.7622-0.30316-1.0042-0.30316-2.0464z"/>
   <path d="m582.07 182.14q0-0.83372-0.26527-1.1748-0.24633-0.34107-0.56844-0.34107-0.28422 0-0.66319 0.34107-0.37896 0.34106-0.79581 0.92845-0.39791 0.56844-0.81477 1.3453-0.39791 0.75792-0.75792 1.6106-0.34107 0.85266-0.58739 1.7622-0.22738 0.89056-0.32212 1.7243 0.5495-0.45476 0.9853-0.81477 0.45475-0.37896 0.85266-0.79582 0.39791-0.39791 0.89056-0.96635 0.5116-0.58739 0.96635-1.2127 0.45476-0.62529 0.75792-1.2506 0.32212-0.62529 0.32212-1.1558zm14.704 2.0464q0 0.15159-0.11368 0.47371-0.11369 0.32211-0.37896 0.75792-0.73898 1.1748-1.8569 2.558-1.099 1.3832-2.4443 2.7664-1.3264 1.3643-2.8612 2.6527-1.5158 1.2695-3.0885 2.2548-1.5537 0.9853-3.1075 1.5916-1.5537 0.58739-2.9559 0.58739-1.7811 0-3.1075-0.49265-1.3264-0.49265-2.198-1.4211-0.87161-0.94741-1.3074-2.2927-0.43581-1.3643-0.43581-3.0885 0-1.3074 0.18948-2.7664 0.20843-1.459 0.73898-2.9559 0.53054-1.5158 1.4211-3.0317 0.90951-1.5348 2.3117-2.9559 1.08-1.099 2.3306-1.6674t2.3875-0.56844q0.20843 0 0.53054 0.0947 0.32212 0.0758 0.64424 0.22737 0.32211 0.15159 0.62528 0.36002t0.49265 0.45475q0.60634 0.77687 0.90951 1.478 0.30317 0.68213 0.30317 1.5537 0 1.3643-0.37897 2.4632-0.37896 1.099-1.0421 2.0653-0.64423 0.9474-1.5348 1.838t-1.9138 1.8569q-0.62529 0.58739-1.5537 1.2885-0.92846 0.68213-1.9896 1.4969 0.15159 0.58739 0.37896 1.0232 0.22738 0.41685 0.56845 0.70108 0.34106 0.28422 0.81476 0.4358 0.49265 0.13264 1.1558 0.13264 0.89056 0 1.8948-0.30317 1.0232-0.30317 2.0464-0.77687 0.89055-0.41686 1.7622-1.0421 0.87161-0.64424 1.7622-1.3264 0.5495-0.41685 1.4022-1.1937 0.87161-0.79582 1.7622-1.6485 0.60633-0.56845 1.2127-1.099 0.60634-0.54949 1.2885-1.2127l1.0042-0.9853q1.099-0.89055 1.7811-0.89055 0.36001 0 0.45475 0.20843 0.0947 0.20842 0.0947 0.3979z"/>
   <path d="m612.4 183.3q0 0.17053-0.0758 0.45475t-0.22737 0.56844q-0.15159 0.28422-0.39791 0.49265-0.22738 0.20843-0.56844 0.22738-0.0758 0-0.32212 0-0.24633-0.0189-0.53055-0.0379t-0.53054-0.019q-0.24633-0.0189-0.36001-0.0189-3.1643 0.17054-5.476 2.2738-0.53055 0.4737-1.099 1.1179-0.54949 0.64424-1.099 1.4211-0.53055 0.75792-1.0232 1.6295t-0.89056 1.819q-0.32211 0.77687-0.62528 1.6106-0.30317 0.81476-0.53055 1.7243-0.13263 0.49265-0.20843 0.87161-0.0568 0.36001-0.20842 0.85266-0.0947 0.30317-0.32212 0.5116-0.22738 0.22737-0.53055 0.36001-0.30316 0.15159-0.64423 0.22738-0.32212 0.0758-0.64423 0.0947-1.2127 0-1.6674-1.099t-0.45475-3.278q0-0.49265 0-0.92846 0.0189-0.4358 0.0379-0.87161 0.0379-0.45475 0.0758-0.92845 0.0379-0.49265 0.0947-1.099 0.0758-0.89055 0.20843-2.1032 0.13264-1.2316 0.28422-2.4822 0.15159-1.2695 0.32212-2.4443 0.18948-1.1748 0.37896-1.9896 0.22738-1.0042 0.75792-1.5727 0.5495-0.56845 1.5916-0.56845 0.30317 0 0.60634 0.17054 0.32211 0.15158 0.56844 0.37896 0.24632 0.22737 0.41685 0.49265 0.17054 0.26527 0.18949 0.4737l0.0189 0.34106q0 0.53055-0.0947 1.2506-0.0947 0.72003-0.26527 1.5348-0.15158 0.79581-0.34106 1.6295-0.17054 0.81476-0.36002 1.5727-0.17053 0.73897-0.32211 1.3832-0.13264 0.62529-0.20843 1.0422 0.66318-1.4022 1.4211-2.6906 0.75792-1.3074 1.6295-2.4064 0.87161-1.1179 1.8759-1.9895t2.1601-1.4022q0.9095-0.41686 1.6674-0.62528 0.75793-0.22738 1.3643-0.22738 0.72003 0 1.478 0.15158 0.77687 0.15159 1.4022 0.45476 0.64423 0.28422 1.0611 0.70107 0.41685 0.41686 0.41685 0.94741z"/>
   <path d="m625.04 194q0 0.9853-0.37896 1.9516-0.36001 0.9474-0.96635 1.8001-0.60634 0.85266-1.4022 1.5727-0.79582 0.72003-1.6485 1.2316-0.85267 0.51159-1.7053 0.79581-0.85266 0.30317-1.5916 0.30317-1.1558 0-1.6864-0.56844-0.53055-0.54949-0.53055-1.4969 0-0.45476 0.13264-0.87161 0.15159-0.39791 0.41686-0.70108 0.26527-0.32212 0.64423-0.49265 0.39791-0.18948 0.89056-0.18948h0.34106q0.37897 0 0.85267-0.11369t1.099-0.62529q0.5495-0.45475 0.79582-1.08 0.26527-0.64424 0.26527-1.1179 0-0.41686-0.20842-0.77687-0.20843-0.37896-0.5495-0.73897-0.34106-0.36002-0.79582-0.70108-0.4358-0.36001-0.92845-0.72003-0.64423-0.49265-1.3074-1.0232-0.64423-0.54949-1.1748-1.1558-0.53055-0.62529-0.85267-1.3074-0.32211-0.70107-0.32211-1.4969t0.28422-1.6674 0.75792-1.7243q0.49265-0.85266 1.1179-1.6106 0.62529-0.75792 1.2885-1.3453 0.68213-0.58739 1.3643-0.92845 0.68213-0.34107 1.2695-0.34107 0.96635 0 1.459 0.4737 0.5116 0.47371 0.5116 1.5158 0 0.49265-0.26528 1.0232-0.24632 0.5116-0.64423 1.0232-0.37896 0.49265-0.87161 0.96635-0.4737 0.4737-0.92845 0.87161-0.39791 0.36001-0.75793 0.58739-0.34106 0.22737-0.64423 0.49265 0.18948 0.34106 0.49265 0.70107 0.30317 0.34107 0.66318 0.68213 0.36001 0.32212 0.72003 0.62529 0.37896 0.30317 0.70108 0.56844 0.70107 0.56844 1.4211 1.1937 0.72002 0.62528 1.3074 1.3264 0.60634 0.68213 0.9853 1.459 0.37896 0.75792 0.37896 1.6295z"/>
  </g>
 </g>
</svg>
